%TF.GenerationSoftware,KiCad,Pcbnew,8.0.3*%
%TF.CreationDate,2024-06-18T00:53:01+07:00*%
%TF.ProjectId,Bandung_v1.0.0,42616e64-756e-4675-9f76-312e302e302e,rev?*%
%TF.SameCoordinates,Original*%
%TF.FileFunction,Paste,Bot*%
%TF.FilePolarity,Positive*%
%FSLAX46Y46*%
G04 Gerber Fmt 4.6, Leading zero omitted, Abs format (unit mm)*
G04 Created by KiCad (PCBNEW 8.0.3) date 2024-06-18 00:53:01*
%MOMM*%
%LPD*%
G01*
G04 APERTURE LIST*
G04 Aperture macros list*
%AMRoundRect*
0 Rectangle with rounded corners*
0 $1 Rounding radius*
0 $2 $3 $4 $5 $6 $7 $8 $9 X,Y pos of 4 corners*
0 Add a 4 corners polygon primitive as box body*
4,1,4,$2,$3,$4,$5,$6,$7,$8,$9,$2,$3,0*
0 Add four circle primitives for the rounded corners*
1,1,$1+$1,$2,$3*
1,1,$1+$1,$4,$5*
1,1,$1+$1,$6,$7*
1,1,$1+$1,$8,$9*
0 Add four rect primitives between the rounded corners*
20,1,$1+$1,$2,$3,$4,$5,0*
20,1,$1+$1,$4,$5,$6,$7,0*
20,1,$1+$1,$6,$7,$8,$9,0*
20,1,$1+$1,$8,$9,$2,$3,0*%
G04 Aperture macros list end*
%ADD10RoundRect,0.112500X-0.112500X0.187500X-0.112500X-0.187500X0.112500X-0.187500X0.112500X0.187500X0*%
%ADD11RoundRect,0.255000X1.070000X1.020000X-1.070000X1.020000X-1.070000X-1.020000X1.070000X-1.020000X0*%
%ADD12RoundRect,0.375000X0.625000X0.375000X-0.625000X0.375000X-0.625000X-0.375000X0.625000X-0.375000X0*%
%ADD13RoundRect,0.500000X0.500000X1.400000X-0.500000X1.400000X-0.500000X-1.400000X0.500000X-1.400000X0*%
%ADD14R,1.400000X1.200000*%
%ADD15RoundRect,0.140000X0.140000X0.170000X-0.140000X0.170000X-0.140000X-0.170000X0.140000X-0.170000X0*%
%ADD16RoundRect,0.250000X0.250000X0.475000X-0.250000X0.475000X-0.250000X-0.475000X0.250000X-0.475000X0*%
%ADD17RoundRect,0.135000X0.135000X0.185000X-0.135000X0.185000X-0.135000X-0.185000X0.135000X-0.185000X0*%
%ADD18RoundRect,0.150000X0.650000X0.150000X-0.650000X0.150000X-0.650000X-0.150000X0.650000X-0.150000X0*%
%ADD19RoundRect,0.249999X0.395001X0.395001X-0.395001X0.395001X-0.395001X-0.395001X0.395001X-0.395001X0*%
%ADD20RoundRect,0.050000X0.387500X0.050000X-0.387500X0.050000X-0.387500X-0.050000X0.387500X-0.050000X0*%
%ADD21RoundRect,0.050000X0.050000X0.387500X-0.050000X0.387500X-0.050000X-0.387500X0.050000X-0.387500X0*%
G04 APERTURE END LIST*
D10*
%TO.C,D10*%
X141300000Y-53575000D03*
X141300000Y-55675000D03*
%TD*%
%TO.C,D2*%
X141300000Y-15475000D03*
X141300000Y-17575000D03*
%TD*%
D11*
%TO.C,CH9*%
X108080000Y-62325000D03*
X121570000Y-63375000D03*
%TD*%
D12*
%TO.C,U1*%
X40820236Y-65780000D03*
X40820236Y-68080000D03*
D13*
X34520236Y-68080000D03*
D12*
X40820236Y-70380000D03*
%TD*%
D11*
%TO.C,CH6*%
X127130000Y-43275000D03*
X140620000Y-44325000D03*
%TD*%
%TO.C,CH7*%
X146180000Y-43275000D03*
X159670000Y-44325000D03*
%TD*%
D14*
%TO.C,Y1*%
X8850236Y-74155000D03*
X6650236Y-74155000D03*
X6650236Y-72455000D03*
X8850236Y-72455000D03*
%TD*%
D15*
%TO.C,C6*%
X31790236Y-70775000D03*
X30830236Y-70775000D03*
%TD*%
D11*
%TO.C,CH5*%
X108080000Y-43275000D03*
X121570000Y-44325000D03*
%TD*%
D10*
%TO.C,D7*%
X160350000Y-34525000D03*
X160350000Y-36625000D03*
%TD*%
D11*
%TO.C,CH10*%
X127130000Y-62325000D03*
X140620000Y-63375000D03*
%TD*%
%TO.C,CH11*%
X146180000Y-62325000D03*
X159670000Y-63375000D03*
%TD*%
D16*
%TO.C,C17*%
X13550236Y-71405000D03*
X11650236Y-71405000D03*
%TD*%
D15*
%TO.C,C16*%
X26050236Y-70775000D03*
X25090236Y-70775000D03*
%TD*%
D16*
%TO.C,C1*%
X13550236Y-65385000D03*
X11650236Y-65385000D03*
%TD*%
D10*
%TO.C,D15*%
X160350000Y-72625000D03*
X160350000Y-74725000D03*
%TD*%
D11*
%TO.C,CH4*%
X165230000Y-24225000D03*
X178720000Y-25275000D03*
%TD*%
D17*
%TO.C,R2*%
X11420236Y-34285000D03*
X10400236Y-34285000D03*
%TD*%
D15*
%TO.C,C10*%
X28920236Y-68805000D03*
X27960236Y-68805000D03*
%TD*%
D17*
%TO.C,R5*%
X11420236Y-40255000D03*
X10400236Y-40255000D03*
%TD*%
D10*
%TO.C,D14*%
X141300000Y-72625000D03*
X141300000Y-74725000D03*
%TD*%
D15*
%TO.C,C3*%
X31790236Y-66835000D03*
X30830236Y-66835000D03*
%TD*%
D11*
%TO.C,CH12*%
X165230000Y-62325000D03*
X178720000Y-63375000D03*
%TD*%
D16*
%TO.C,C4*%
X13550236Y-68395000D03*
X11650236Y-68395000D03*
%TD*%
D15*
%TO.C,C13*%
X26050236Y-64865000D03*
X25090236Y-64865000D03*
%TD*%
%TO.C,C7*%
X31790236Y-72745000D03*
X30830236Y-72745000D03*
%TD*%
D10*
%TO.C,D12*%
X179400000Y-53575000D03*
X179400000Y-55675000D03*
%TD*%
%TO.C,D13*%
X122250000Y-72625000D03*
X122250000Y-74725000D03*
%TD*%
D17*
%TO.C,R3*%
X11420236Y-36275000D03*
X10400236Y-36275000D03*
%TD*%
D10*
%TO.C,D16*%
X179400000Y-72625000D03*
X179400000Y-74725000D03*
%TD*%
D15*
%TO.C,C8*%
X28920236Y-64865000D03*
X27960236Y-64865000D03*
%TD*%
D18*
%TO.C,U2*%
X51370236Y-65360000D03*
X51370236Y-66630000D03*
X51370236Y-67900000D03*
X51370236Y-69170000D03*
X44170236Y-69170000D03*
X44170236Y-67900000D03*
X44170236Y-66630000D03*
X44170236Y-65360000D03*
%TD*%
D15*
%TO.C,C5*%
X31790236Y-68805000D03*
X30830236Y-68805000D03*
%TD*%
D17*
%TO.C,R7*%
X11420236Y-44235000D03*
X10400236Y-44235000D03*
%TD*%
%TO.C,R4*%
X11420236Y-38265000D03*
X10400236Y-38265000D03*
%TD*%
%TO.C,R6*%
X11420236Y-42245000D03*
X10400236Y-42245000D03*
%TD*%
%TO.C,R1*%
X11420236Y-32295000D03*
X10400236Y-32295000D03*
%TD*%
D15*
%TO.C,C11*%
X28920236Y-70775000D03*
X27960236Y-70775000D03*
%TD*%
%TO.C,C9*%
X28920236Y-66835000D03*
X27960236Y-66835000D03*
%TD*%
D10*
%TO.C,D6*%
X141300000Y-34525000D03*
X141300000Y-36625000D03*
%TD*%
%TO.C,D11*%
X160350000Y-53575000D03*
X160350000Y-55675000D03*
%TD*%
D15*
%TO.C,C2*%
X31790236Y-64865000D03*
X30830236Y-64865000D03*
%TD*%
%TO.C,C12*%
X28920236Y-72745000D03*
X27960236Y-72745000D03*
%TD*%
D11*
%TO.C,CH15*%
X146180000Y-81375000D03*
X159670000Y-82425000D03*
%TD*%
%TO.C,CH8*%
X165230000Y-43275000D03*
X178720000Y-44325000D03*
%TD*%
D19*
%TO.C,U3*%
X20280236Y-69335000D03*
X20280236Y-67735000D03*
X18680236Y-69335000D03*
X18680236Y-67735000D03*
D20*
X22917736Y-65935000D03*
X22917736Y-66335000D03*
X22917736Y-66735000D03*
X22917736Y-67135000D03*
X22917736Y-67535000D03*
X22917736Y-67935000D03*
X22917736Y-68335000D03*
X22917736Y-68735000D03*
X22917736Y-69135000D03*
X22917736Y-69535000D03*
X22917736Y-69935000D03*
X22917736Y-70335000D03*
X22917736Y-70735000D03*
X22917736Y-71135000D03*
D21*
X22080236Y-71972500D03*
X21680236Y-71972500D03*
X21280236Y-71972500D03*
X20880236Y-71972500D03*
X20480236Y-71972500D03*
X20080236Y-71972500D03*
X19680236Y-71972500D03*
X19280236Y-71972500D03*
X18880236Y-71972500D03*
X18480236Y-71972500D03*
X18080236Y-71972500D03*
X17680236Y-71972500D03*
X17280236Y-71972500D03*
X16880236Y-71972500D03*
D20*
X16042736Y-71135000D03*
X16042736Y-70735000D03*
X16042736Y-70335000D03*
X16042736Y-69935000D03*
X16042736Y-69535000D03*
X16042736Y-69135000D03*
X16042736Y-68735000D03*
X16042736Y-68335000D03*
X16042736Y-67935000D03*
X16042736Y-67535000D03*
X16042736Y-67135000D03*
X16042736Y-66735000D03*
X16042736Y-66335000D03*
X16042736Y-65935000D03*
D21*
X16880236Y-65097500D03*
X17280236Y-65097500D03*
X17680236Y-65097500D03*
X18080236Y-65097500D03*
X18480236Y-65097500D03*
X18880236Y-65097500D03*
X19280236Y-65097500D03*
X19680236Y-65097500D03*
X20080236Y-65097500D03*
X20480236Y-65097500D03*
X20880236Y-65097500D03*
X21280236Y-65097500D03*
X21680236Y-65097500D03*
X22080236Y-65097500D03*
%TD*%
D15*
%TO.C,C14*%
X26050236Y-66835000D03*
X25090236Y-66835000D03*
%TD*%
D11*
%TO.C,CH16*%
X165230000Y-81375000D03*
X178720000Y-82425000D03*
%TD*%
%TO.C,CH2*%
X127130000Y-24225000D03*
X140620000Y-25275000D03*
%TD*%
%TO.C,CH14*%
X127130000Y-81375000D03*
X140620000Y-82425000D03*
%TD*%
D10*
%TO.C,D5*%
X122250000Y-34525000D03*
X122250000Y-36625000D03*
%TD*%
D15*
%TO.C,C15*%
X26050236Y-68805000D03*
X25090236Y-68805000D03*
%TD*%
D10*
%TO.C,D9*%
X122250000Y-53575000D03*
X122250000Y-55675000D03*
%TD*%
D11*
%TO.C,CH13*%
X108080000Y-81375000D03*
X121570000Y-82425000D03*
%TD*%
D10*
%TO.C,D8*%
X179400000Y-34525000D03*
X179400000Y-36625000D03*
%TD*%
%TO.C,D3*%
X160350000Y-15475000D03*
X160350000Y-17575000D03*
%TD*%
%TO.C,D1*%
X122250000Y-15475000D03*
X122250000Y-17575000D03*
%TD*%
D11*
%TO.C,CH3*%
X146180000Y-24225000D03*
X159670000Y-25275000D03*
%TD*%
D10*
%TO.C,D4*%
X179400000Y-15475000D03*
X179400000Y-17575000D03*
%TD*%
D11*
%TO.C,CH1*%
X108080000Y-24225000D03*
X121570000Y-25275000D03*
%TD*%
M02*
