M48
; DRILL file {KiCad 8.0.3} date 2024-06-18T00:53:08+0700
; FORMAT={-:-/ absolute / inch / decimal}
; #@! TF.CreationDate,2024-06-18T00:53:08+07:00
; #@! TF.GenerationSoftware,Kicad,Pcbnew,8.0.3
; #@! TF.FileFunction,NonPlated,1,2,NPTH
FMAT,2
INCH
; #@! TA.AperFunction,NonPlated,NPTH,ComponentDrill
T1C0.1260
; #@! TA.AperFunction,NonPlated,NPTH,ComponentDrill
T2C0.2067
%
G90
G05
T1
X3.9843Y-0.1969
X3.9843Y-3.5906
X7.378Y-0.1969
X7.378Y-3.5906
T2
X4.5561Y-0.7687
X4.5561Y-1.5187
X4.5561Y-2.2687
X4.5561Y-3.0187
X5.3061Y-0.7687
X5.3061Y-1.5187
X5.3061Y-2.2687
X5.3061Y-3.0187
X6.0561Y-0.7687
X6.0561Y-1.5187
X6.0561Y-2.2687
X6.0561Y-3.0187
X6.8061Y-0.7687
X6.8061Y-1.5187
X6.8061Y-2.2687
X6.8061Y-3.0187
M30
