%TF.GenerationSoftware,KiCad,Pcbnew,8.0.3*%
%TF.CreationDate,2024-06-18T00:53:01+07:00*%
%TF.ProjectId,Bandung_v1.0.0,42616e64-756e-4675-9f76-312e302e302e,rev?*%
%TF.SameCoordinates,Original*%
%TF.FileFunction,Copper,L2,Bot*%
%TF.FilePolarity,Positive*%
%FSLAX46Y46*%
G04 Gerber Fmt 4.6, Leading zero omitted, Abs format (unit mm)*
G04 Created by KiCad (PCBNEW 8.0.3) date 2024-06-18 00:53:01*
%MOMM*%
%LPD*%
G01*
G04 APERTURE LIST*
G04 Aperture macros list*
%AMRoundRect*
0 Rectangle with rounded corners*
0 $1 Rounding radius*
0 $2 $3 $4 $5 $6 $7 $8 $9 X,Y pos of 4 corners*
0 Add a 4 corners polygon primitive as box body*
4,1,4,$2,$3,$4,$5,$6,$7,$8,$9,$2,$3,0*
0 Add four circle primitives for the rounded corners*
1,1,$1+$1,$2,$3*
1,1,$1+$1,$4,$5*
1,1,$1+$1,$6,$7*
1,1,$1+$1,$8,$9*
0 Add four rect primitives between the rounded corners*
20,1,$1+$1,$2,$3,$4,$5,0*
20,1,$1+$1,$4,$5,$6,$7,0*
20,1,$1+$1,$6,$7,$8,$9,0*
20,1,$1+$1,$8,$9,$2,$3,0*%
G04 Aperture macros list end*
%TA.AperFunction,SMDPad,CuDef*%
%ADD10RoundRect,0.112500X-0.112500X0.187500X-0.112500X-0.187500X0.112500X-0.187500X0.112500X0.187500X0*%
%TD*%
%TA.AperFunction,ComponentPad*%
%ADD11C,3.300000*%
%TD*%
%TA.AperFunction,SMDPad,CuDef*%
%ADD12R,1.200000X2.550000*%
%TD*%
%TA.AperFunction,SMDPad,CuDef*%
%ADD13RoundRect,0.255000X1.070000X1.020000X-1.070000X1.020000X-1.070000X-1.020000X1.070000X-1.020000X0*%
%TD*%
%TA.AperFunction,SMDPad,CuDef*%
%ADD14RoundRect,0.375000X0.625000X0.375000X-0.625000X0.375000X-0.625000X-0.375000X0.625000X-0.375000X0*%
%TD*%
%TA.AperFunction,SMDPad,CuDef*%
%ADD15RoundRect,0.500000X0.500000X1.400000X-0.500000X1.400000X-0.500000X-1.400000X0.500000X-1.400000X0*%
%TD*%
%TA.AperFunction,SMDPad,CuDef*%
%ADD16R,1.400000X1.200000*%
%TD*%
%TA.AperFunction,SMDPad,CuDef*%
%ADD17RoundRect,0.140000X0.140000X0.170000X-0.140000X0.170000X-0.140000X-0.170000X0.140000X-0.170000X0*%
%TD*%
%TA.AperFunction,SMDPad,CuDef*%
%ADD18RoundRect,0.250000X0.250000X0.475000X-0.250000X0.475000X-0.250000X-0.475000X0.250000X-0.475000X0*%
%TD*%
%TA.AperFunction,SMDPad,CuDef*%
%ADD19RoundRect,0.135000X0.135000X0.185000X-0.135000X0.185000X-0.135000X-0.185000X0.135000X-0.185000X0*%
%TD*%
%TA.AperFunction,ComponentPad*%
%ADD20C,0.700000*%
%TD*%
%TA.AperFunction,ComponentPad*%
%ADD21O,0.900000X1.700000*%
%TD*%
%TA.AperFunction,ComponentPad*%
%ADD22O,0.900000X2.400000*%
%TD*%
%TA.AperFunction,ComponentPad*%
%ADD23R,1.700000X1.700000*%
%TD*%
%TA.AperFunction,ComponentPad*%
%ADD24O,1.700000X1.700000*%
%TD*%
%TA.AperFunction,SMDPad,CuDef*%
%ADD25RoundRect,0.150000X0.650000X0.150000X-0.650000X0.150000X-0.650000X-0.150000X0.650000X-0.150000X0*%
%TD*%
%TA.AperFunction,SMDPad,CuDef*%
%ADD26RoundRect,0.050000X0.387500X0.050000X-0.387500X0.050000X-0.387500X-0.050000X0.387500X-0.050000X0*%
%TD*%
%TA.AperFunction,SMDPad,CuDef*%
%ADD27RoundRect,0.050000X0.050000X0.387500X-0.050000X0.387500X-0.050000X-0.387500X0.050000X-0.387500X0*%
%TD*%
%TA.AperFunction,HeatsinkPad*%
%ADD28R,3.200000X3.200000*%
%TD*%
G04 APERTURE END LIST*
D10*
%TO.P,D10,1,K*%
%TO.N,/GPIO6*%
X141300000Y-53575000D03*
%TO.P,D10,2,A*%
%TO.N,Net-(D10-A)*%
X141300000Y-55675000D03*
%TD*%
%TO.P,D2,1,K*%
%TO.N,/GPIO4*%
X141300000Y-15475000D03*
%TO.P,D2,2,A*%
%TO.N,Net-(D2-A)*%
X141300000Y-17575000D03*
%TD*%
D11*
%TO.P,CH9,1,1*%
%TO.N,/GPIO0*%
X111325000Y-62325000D03*
D12*
X109775000Y-62325000D03*
D13*
X108080000Y-62325000D03*
%TO.P,CH9,2,2*%
%TO.N,Net-(D9-A)*%
X121570000Y-63375000D03*
D12*
X119875000Y-63375000D03*
D11*
X118325000Y-63375000D03*
%TD*%
D14*
%TO.P,U1,1,GND*%
%TO.N,GND*%
X40820236Y-65780000D03*
%TO.P,U1,2,VO*%
%TO.N,+3V3*%
X40820236Y-68080000D03*
D15*
X34520236Y-68080000D03*
D14*
%TO.P,U1,3,VI*%
%TO.N,VBUS*%
X40820236Y-70380000D03*
%TD*%
D11*
%TO.P,CH6,1,1*%
%TO.N,/GPIO1*%
X130375000Y-43275000D03*
D12*
X128825000Y-43275000D03*
D13*
X127130000Y-43275000D03*
%TO.P,CH6,2,2*%
%TO.N,Net-(D6-A)*%
X140620000Y-44325000D03*
D12*
X138925000Y-44325000D03*
D11*
X137375000Y-44325000D03*
%TD*%
%TO.P,CH7,1,1*%
%TO.N,/GPIO2*%
X149425000Y-43275000D03*
D12*
X147875000Y-43275000D03*
D13*
X146180000Y-43275000D03*
%TO.P,CH7,2,2*%
%TO.N,Net-(D7-A)*%
X159670000Y-44325000D03*
D12*
X157975000Y-44325000D03*
D11*
X156425000Y-44325000D03*
%TD*%
D16*
%TO.P,Y1,1,1*%
%TO.N,/XIN*%
X8850236Y-74155000D03*
%TO.P,Y1,2,2*%
%TO.N,GND*%
X6650236Y-74155000D03*
%TO.P,Y1,3,3*%
%TO.N,Net-(C3-Pad2)*%
X6650236Y-72455000D03*
%TO.P,Y1,4,4*%
%TO.N,GND*%
X8850236Y-72455000D03*
%TD*%
D17*
%TO.P,C6,1*%
%TO.N,+1V1*%
X31790236Y-70775000D03*
%TO.P,C6,2*%
%TO.N,GND*%
X30830236Y-70775000D03*
%TD*%
D11*
%TO.P,CH5,1,1*%
%TO.N,/GPIO0*%
X111325000Y-43275000D03*
D12*
X109775000Y-43275000D03*
D13*
X108080000Y-43275000D03*
%TO.P,CH5,2,2*%
%TO.N,Net-(D5-A)*%
X121570000Y-44325000D03*
D12*
X119875000Y-44325000D03*
D11*
X118325000Y-44325000D03*
%TD*%
D10*
%TO.P,D7,1,K*%
%TO.N,/GPIO5*%
X160350000Y-34525000D03*
%TO.P,D7,2,A*%
%TO.N,Net-(D7-A)*%
X160350000Y-36625000D03*
%TD*%
D11*
%TO.P,CH10,1,1*%
%TO.N,/GPIO1*%
X130375000Y-62325000D03*
D12*
X128825000Y-62325000D03*
D13*
X127130000Y-62325000D03*
%TO.P,CH10,2,2*%
%TO.N,Net-(D10-A)*%
X140620000Y-63375000D03*
D12*
X138925000Y-63375000D03*
D11*
X137375000Y-63375000D03*
%TD*%
%TO.P,CH11,1,1*%
%TO.N,/GPIO2*%
X149425000Y-62325000D03*
D12*
X147875000Y-62325000D03*
D13*
X146180000Y-62325000D03*
%TO.P,CH11,2,2*%
%TO.N,Net-(D11-A)*%
X159670000Y-63375000D03*
D12*
X157975000Y-63375000D03*
D11*
X156425000Y-63375000D03*
%TD*%
D18*
%TO.P,C17,1*%
%TO.N,+3V3*%
X13550236Y-71405000D03*
%TO.P,C17,2*%
%TO.N,GND*%
X11650236Y-71405000D03*
%TD*%
D17*
%TO.P,C16,1*%
%TO.N,+3V3*%
X26050236Y-70775000D03*
%TO.P,C16,2*%
%TO.N,GND*%
X25090236Y-70775000D03*
%TD*%
D18*
%TO.P,C1,1*%
%TO.N,VBUS*%
X13550236Y-65385000D03*
%TO.P,C1,2*%
%TO.N,GND*%
X11650236Y-65385000D03*
%TD*%
D10*
%TO.P,D15,1,K*%
%TO.N,/GPIO7*%
X160350000Y-72625000D03*
%TO.P,D15,2,A*%
%TO.N,Net-(D15-A)*%
X160350000Y-74725000D03*
%TD*%
D11*
%TO.P,CH4,1,1*%
%TO.N,/GPIO3*%
X168475000Y-24225000D03*
D12*
X166925000Y-24225000D03*
D13*
X165230000Y-24225000D03*
%TO.P,CH4,2,2*%
%TO.N,Net-(D4-A)*%
X178720000Y-25275000D03*
D12*
X177025000Y-25275000D03*
D11*
X175475000Y-25275000D03*
%TD*%
D19*
%TO.P,R2,1*%
%TO.N,/QSPI_SS*%
X11420236Y-34285000D03*
%TO.P,R2,2*%
%TO.N,+3V3*%
X10400236Y-34285000D03*
%TD*%
D17*
%TO.P,C10,1*%
%TO.N,+3V3*%
X28920236Y-68805000D03*
%TO.P,C10,2*%
%TO.N,GND*%
X27960236Y-68805000D03*
%TD*%
D20*
%TO.P,J1,A1,GND*%
%TO.N,GND*%
X141325000Y-6100000D03*
%TO.P,J1,A4,VBUS*%
%TO.N,VBUS*%
X142175000Y-6100000D03*
%TO.P,J1,A5,CC1*%
%TO.N,Net-(J1-CC1)*%
X143025000Y-6100000D03*
%TO.P,J1,A6,D+*%
%TO.N,/USB_DP*%
X143875000Y-6100000D03*
%TO.P,J1,A7,D-*%
%TO.N,/USB_DM*%
X144725000Y-6100000D03*
%TO.P,J1,A8,SBU1*%
%TO.N,unconnected-(J1-SBU1-PadA8)*%
X145575000Y-6100000D03*
%TO.P,J1,A9,VBUS*%
%TO.N,VBUS*%
X146425000Y-6100000D03*
%TO.P,J1,A12,GND*%
%TO.N,GND*%
X147275000Y-6100000D03*
%TO.P,J1,B1,GND*%
X147275000Y-4750000D03*
%TO.P,J1,B4,VBUS*%
%TO.N,VBUS*%
X146425000Y-4750000D03*
%TO.P,J1,B5,CC2*%
%TO.N,Net-(J1-CC2)*%
X145575000Y-4750000D03*
%TO.P,J1,B6,D+*%
%TO.N,/USB_DP*%
X144725000Y-4750000D03*
%TO.P,J1,B7,D-*%
%TO.N,/USB_DM*%
X143875000Y-4750000D03*
%TO.P,J1,B8,SBU2*%
%TO.N,unconnected-(J1-SBU2-PadB8)*%
X143025000Y-4750000D03*
%TO.P,J1,B9,VBUS*%
%TO.N,VBUS*%
X142175000Y-4750000D03*
%TO.P,J1,B12,GND*%
%TO.N,GND*%
X141325000Y-4750000D03*
D21*
%TO.P,J1,S1,SHIELD*%
X139975000Y-1740000D03*
D22*
X139975000Y-5120000D03*
D21*
X148625000Y-1740000D03*
D22*
X148625000Y-5120000D03*
%TD*%
D19*
%TO.P,R5,1*%
%TO.N,Net-(C3-Pad2)*%
X11420236Y-40255000D03*
%TO.P,R5,2*%
%TO.N,/XOUT*%
X10400236Y-40255000D03*
%TD*%
D10*
%TO.P,D14,1,K*%
%TO.N,/GPIO7*%
X141300000Y-72625000D03*
%TO.P,D14,2,A*%
%TO.N,Net-(D14-A)*%
X141300000Y-74725000D03*
%TD*%
D17*
%TO.P,C3,1*%
%TO.N,GND*%
X31790236Y-66835000D03*
%TO.P,C3,2*%
%TO.N,Net-(C3-Pad2)*%
X30830236Y-66835000D03*
%TD*%
D11*
%TO.P,CH12,1,1*%
%TO.N,/GPIO3*%
X168475000Y-62325000D03*
D12*
X166925000Y-62325000D03*
D13*
X165230000Y-62325000D03*
%TO.P,CH12,2,2*%
%TO.N,Net-(D12-A)*%
X178720000Y-63375000D03*
D12*
X177025000Y-63375000D03*
D11*
X175475000Y-63375000D03*
%TD*%
D18*
%TO.P,C4,1*%
%TO.N,+3V3*%
X13550236Y-68395000D03*
%TO.P,C4,2*%
%TO.N,GND*%
X11650236Y-68395000D03*
%TD*%
D17*
%TO.P,C13,1*%
%TO.N,+3V3*%
X26050236Y-64865000D03*
%TO.P,C13,2*%
%TO.N,GND*%
X25090236Y-64865000D03*
%TD*%
%TO.P,C7,1*%
%TO.N,+1V1*%
X31790236Y-72745000D03*
%TO.P,C7,2*%
%TO.N,GND*%
X30830236Y-72745000D03*
%TD*%
D10*
%TO.P,D12,1,K*%
%TO.N,/GPIO6*%
X179400000Y-53575000D03*
%TO.P,D12,2,A*%
%TO.N,Net-(D12-A)*%
X179400000Y-55675000D03*
%TD*%
D23*
%TO.P,J2,1,Pin_1*%
%TO.N,/~{USB_BOOT}*%
X8050236Y-66205000D03*
D24*
%TO.P,J2,2,Pin_2*%
%TO.N,GND*%
X8050236Y-68745000D03*
%TD*%
D10*
%TO.P,D13,1,K*%
%TO.N,/GPIO7*%
X122250000Y-72625000D03*
%TO.P,D13,2,A*%
%TO.N,Net-(D13-A)*%
X122250000Y-74725000D03*
%TD*%
D19*
%TO.P,R3,1*%
%TO.N,/USB_DP*%
X11420236Y-36275000D03*
%TO.P,R3,2*%
%TO.N,Net-(U3-USB_DP)*%
X10400236Y-36275000D03*
%TD*%
D10*
%TO.P,D16,1,K*%
%TO.N,/GPIO7*%
X179400000Y-72625000D03*
%TO.P,D16,2,A*%
%TO.N,Net-(D16-A)*%
X179400000Y-74725000D03*
%TD*%
D17*
%TO.P,C8,1*%
%TO.N,+1V1*%
X28920236Y-64865000D03*
%TO.P,C8,2*%
%TO.N,GND*%
X27960236Y-64865000D03*
%TD*%
D25*
%TO.P,U2,1,~{CS}*%
%TO.N,/QSPI_SS*%
X51370236Y-65360000D03*
%TO.P,U2,2,DO(IO1)*%
%TO.N,/QSPI_SD1*%
X51370236Y-66630000D03*
%TO.P,U2,3,IO2*%
%TO.N,/QSPI_SD2*%
X51370236Y-67900000D03*
%TO.P,U2,4,GND*%
%TO.N,GND*%
X51370236Y-69170000D03*
%TO.P,U2,5,DI(IO0)*%
%TO.N,/QSPI_SD0*%
X44170236Y-69170000D03*
%TO.P,U2,6,CLK*%
%TO.N,/QSPI_SCLK*%
X44170236Y-67900000D03*
%TO.P,U2,7,IO3*%
%TO.N,/QSPI_SD3*%
X44170236Y-66630000D03*
%TO.P,U2,8,VCC*%
%TO.N,+3V3*%
X44170236Y-65360000D03*
%TD*%
D17*
%TO.P,C5,1*%
%TO.N,+3V3*%
X31790236Y-68805000D03*
%TO.P,C5,2*%
%TO.N,GND*%
X30830236Y-68805000D03*
%TD*%
D19*
%TO.P,R7,1*%
%TO.N,Net-(J1-CC2)*%
X11420236Y-44235000D03*
%TO.P,R7,2*%
%TO.N,GND*%
X10400236Y-44235000D03*
%TD*%
%TO.P,R4,1*%
%TO.N,/USB_DM*%
X11420236Y-38265000D03*
%TO.P,R4,2*%
%TO.N,Net-(U3-USB_DM)*%
X10400236Y-38265000D03*
%TD*%
%TO.P,R6,1*%
%TO.N,Net-(J1-CC1)*%
X11420236Y-42245000D03*
%TO.P,R6,2*%
%TO.N,GND*%
X10400236Y-42245000D03*
%TD*%
%TO.P,R1,1*%
%TO.N,/QSPI_SS*%
X11420236Y-32295000D03*
%TO.P,R1,2*%
%TO.N,/~{USB_BOOT}*%
X10400236Y-32295000D03*
%TD*%
D17*
%TO.P,C11,1*%
%TO.N,+3V3*%
X28920236Y-70775000D03*
%TO.P,C11,2*%
%TO.N,GND*%
X27960236Y-70775000D03*
%TD*%
%TO.P,C9,1*%
%TO.N,+3V3*%
X28920236Y-66835000D03*
%TO.P,C9,2*%
%TO.N,GND*%
X27960236Y-66835000D03*
%TD*%
D10*
%TO.P,D6,1,K*%
%TO.N,/GPIO5*%
X141300000Y-34525000D03*
%TO.P,D6,2,A*%
%TO.N,Net-(D6-A)*%
X141300000Y-36625000D03*
%TD*%
%TO.P,D11,1,K*%
%TO.N,/GPIO6*%
X160350000Y-53575000D03*
%TO.P,D11,2,A*%
%TO.N,Net-(D11-A)*%
X160350000Y-55675000D03*
%TD*%
D17*
%TO.P,C2,1*%
%TO.N,GND*%
X31790236Y-64865000D03*
%TO.P,C2,2*%
%TO.N,/XIN*%
X30830236Y-64865000D03*
%TD*%
%TO.P,C12,1*%
%TO.N,+3V3*%
X28920236Y-72745000D03*
%TO.P,C12,2*%
%TO.N,GND*%
X27960236Y-72745000D03*
%TD*%
D11*
%TO.P,CH15,1,1*%
%TO.N,/GPIO2*%
X149425000Y-81375000D03*
D12*
X147875000Y-81375000D03*
D13*
X146180000Y-81375000D03*
%TO.P,CH15,2,2*%
%TO.N,Net-(D15-A)*%
X159670000Y-82425000D03*
D12*
X157975000Y-82425000D03*
D11*
X156425000Y-82425000D03*
%TD*%
%TO.P,CH8,1,1*%
%TO.N,/GPIO3*%
X168475000Y-43275000D03*
D12*
X166925000Y-43275000D03*
D13*
X165230000Y-43275000D03*
%TO.P,CH8,2,2*%
%TO.N,Net-(D8-A)*%
X178720000Y-44325000D03*
D12*
X177025000Y-44325000D03*
D11*
X175475000Y-44325000D03*
%TD*%
D26*
%TO.P,U3,1,IOVDD*%
%TO.N,+3V3*%
X22917736Y-65935000D03*
%TO.P,U3,2,GPIO0*%
%TO.N,/GPIO0*%
X22917736Y-66335000D03*
%TO.P,U3,3,GPIO1*%
%TO.N,/GPIO1*%
X22917736Y-66735000D03*
%TO.P,U3,4,GPIO2*%
%TO.N,/GPIO2*%
X22917736Y-67135000D03*
%TO.P,U3,5,GPIO3*%
%TO.N,/GPIO3*%
X22917736Y-67535000D03*
%TO.P,U3,6,GPIO4*%
%TO.N,/GPIO4*%
X22917736Y-67935000D03*
%TO.P,U3,7,GPIO5*%
%TO.N,/GPIO5*%
X22917736Y-68335000D03*
%TO.P,U3,8,GPIO6*%
%TO.N,/GPIO6*%
X22917736Y-68735000D03*
%TO.P,U3,9,GPIO7*%
%TO.N,/GPIO7*%
X22917736Y-69135000D03*
%TO.P,U3,10,IOVDD*%
%TO.N,+3V3*%
X22917736Y-69535000D03*
%TO.P,U3,11,GPIO8*%
%TO.N,unconnected-(U3-GPIO8-Pad11)*%
X22917736Y-69935000D03*
%TO.P,U3,12,GPIO9*%
%TO.N,unconnected-(U3-GPIO9-Pad12)*%
X22917736Y-70335000D03*
%TO.P,U3,13,GPIO10*%
%TO.N,unconnected-(U3-GPIO10-Pad13)*%
X22917736Y-70735000D03*
%TO.P,U3,14,GPIO11*%
%TO.N,unconnected-(U3-GPIO11-Pad14)*%
X22917736Y-71135000D03*
D27*
%TO.P,U3,15,GPIO12*%
%TO.N,unconnected-(U3-GPIO12-Pad15)*%
X22080236Y-71972500D03*
%TO.P,U3,16,GPIO13*%
%TO.N,unconnected-(U3-GPIO13-Pad16)*%
X21680236Y-71972500D03*
%TO.P,U3,17,GPIO14*%
%TO.N,unconnected-(U3-GPIO14-Pad17)*%
X21280236Y-71972500D03*
%TO.P,U3,18,GPIO15*%
%TO.N,unconnected-(U3-GPIO15-Pad18)*%
X20880236Y-71972500D03*
%TO.P,U3,19,TESTEN*%
%TO.N,GND*%
X20480236Y-71972500D03*
%TO.P,U3,20,XIN*%
%TO.N,/XIN*%
X20080236Y-71972500D03*
%TO.P,U3,21,XOUT*%
%TO.N,/XOUT*%
X19680236Y-71972500D03*
%TO.P,U3,22,IOVDD*%
%TO.N,+3V3*%
X19280236Y-71972500D03*
%TO.P,U3,23,DVDD*%
%TO.N,+1V1*%
X18880236Y-71972500D03*
%TO.P,U3,24,SWCLK*%
%TO.N,unconnected-(U3-SWCLK-Pad24)*%
X18480236Y-71972500D03*
%TO.P,U3,25,SWD*%
%TO.N,unconnected-(U3-SWD-Pad25)*%
X18080236Y-71972500D03*
%TO.P,U3,26,RUN*%
%TO.N,unconnected-(U3-RUN-Pad26)*%
X17680236Y-71972500D03*
%TO.P,U3,27,GPIO16*%
%TO.N,unconnected-(U3-GPIO16-Pad27)*%
X17280236Y-71972500D03*
%TO.P,U3,28,GPIO17*%
%TO.N,unconnected-(U3-GPIO17-Pad28)*%
X16880236Y-71972500D03*
D26*
%TO.P,U3,29,GPIO18*%
%TO.N,unconnected-(U3-GPIO18-Pad29)*%
X16042736Y-71135000D03*
%TO.P,U3,30,GPIO19*%
%TO.N,unconnected-(U3-GPIO19-Pad30)*%
X16042736Y-70735000D03*
%TO.P,U3,31,GPIO20*%
%TO.N,unconnected-(U3-GPIO20-Pad31)*%
X16042736Y-70335000D03*
%TO.P,U3,32,GPIO21*%
%TO.N,unconnected-(U3-GPIO21-Pad32)*%
X16042736Y-69935000D03*
%TO.P,U3,33,IOVDD*%
%TO.N,+3V3*%
X16042736Y-69535000D03*
%TO.P,U3,34,GPIO22*%
%TO.N,unconnected-(U3-GPIO22-Pad34)*%
X16042736Y-69135000D03*
%TO.P,U3,35,GPIO23*%
%TO.N,unconnected-(U3-GPIO23-Pad35)*%
X16042736Y-68735000D03*
%TO.P,U3,36,GPIO24*%
%TO.N,unconnected-(U3-GPIO24-Pad36)*%
X16042736Y-68335000D03*
%TO.P,U3,37,GPIO25*%
%TO.N,unconnected-(U3-GPIO25-Pad37)*%
X16042736Y-67935000D03*
%TO.P,U3,38,GPIO26_ADC0*%
%TO.N,unconnected-(U3-GPIO26_ADC0-Pad38)*%
X16042736Y-67535000D03*
%TO.P,U3,39,GPIO27_ADC1*%
%TO.N,unconnected-(U3-GPIO27_ADC1-Pad39)*%
X16042736Y-67135000D03*
%TO.P,U3,40,GPIO28_ADC2*%
%TO.N,unconnected-(U3-GPIO28_ADC2-Pad40)*%
X16042736Y-66735000D03*
%TO.P,U3,41,GPIO29_ADC3*%
%TO.N,unconnected-(U3-GPIO29_ADC3-Pad41)*%
X16042736Y-66335000D03*
%TO.P,U3,42,IOVDD*%
%TO.N,+3V3*%
X16042736Y-65935000D03*
D27*
%TO.P,U3,43,ADC_AVDD*%
X16880236Y-65097500D03*
%TO.P,U3,44,VREG_IN*%
X17280236Y-65097500D03*
%TO.P,U3,45,VREG_VOUT*%
%TO.N,+1V1*%
X17680236Y-65097500D03*
%TO.P,U3,46,USB_DM*%
%TO.N,Net-(U3-USB_DM)*%
X18080236Y-65097500D03*
%TO.P,U3,47,USB_DP*%
%TO.N,Net-(U3-USB_DP)*%
X18480236Y-65097500D03*
%TO.P,U3,48,USB_VDD*%
%TO.N,+3V3*%
X18880236Y-65097500D03*
%TO.P,U3,49,IOVDD*%
X19280236Y-65097500D03*
%TO.P,U3,50,DVDD*%
%TO.N,+1V1*%
X19680236Y-65097500D03*
%TO.P,U3,51,QSPI_SD3*%
%TO.N,/QSPI_SD3*%
X20080236Y-65097500D03*
%TO.P,U3,52,QSPI_SCLK*%
%TO.N,/QSPI_SCLK*%
X20480236Y-65097500D03*
%TO.P,U3,53,QSPI_SD0*%
%TO.N,/QSPI_SD0*%
X20880236Y-65097500D03*
%TO.P,U3,54,QSPI_SD2*%
%TO.N,/QSPI_SD2*%
X21280236Y-65097500D03*
%TO.P,U3,55,QSPI_SD1*%
%TO.N,/QSPI_SD1*%
X21680236Y-65097500D03*
%TO.P,U3,56,QSPI_SS*%
%TO.N,/QSPI_SS*%
X22080236Y-65097500D03*
D28*
%TO.P,U3,57,GND*%
%TO.N,GND*%
X19480236Y-68535000D03*
%TD*%
D17*
%TO.P,C14,1*%
%TO.N,+3V3*%
X26050236Y-66835000D03*
%TO.P,C14,2*%
%TO.N,GND*%
X25090236Y-66835000D03*
%TD*%
D11*
%TO.P,CH16,1,1*%
%TO.N,/GPIO3*%
X168475000Y-81375000D03*
D12*
X166925000Y-81375000D03*
D13*
X165230000Y-81375000D03*
%TO.P,CH16,2,2*%
%TO.N,Net-(D16-A)*%
X178720000Y-82425000D03*
D12*
X177025000Y-82425000D03*
D11*
X175475000Y-82425000D03*
%TD*%
%TO.P,CH2,1,1*%
%TO.N,/GPIO1*%
X130375000Y-24225000D03*
D12*
X128825000Y-24225000D03*
D13*
X127130000Y-24225000D03*
%TO.P,CH2,2,2*%
%TO.N,Net-(D2-A)*%
X140620000Y-25275000D03*
D12*
X138925000Y-25275000D03*
D11*
X137375000Y-25275000D03*
%TD*%
%TO.P,CH14,1,1*%
%TO.N,/GPIO1*%
X130375000Y-81375000D03*
D12*
X128825000Y-81375000D03*
D13*
X127130000Y-81375000D03*
%TO.P,CH14,2,2*%
%TO.N,Net-(D14-A)*%
X140620000Y-82425000D03*
D12*
X138925000Y-82425000D03*
D11*
X137375000Y-82425000D03*
%TD*%
D10*
%TO.P,D5,1,K*%
%TO.N,/GPIO5*%
X122250000Y-34525000D03*
%TO.P,D5,2,A*%
%TO.N,Net-(D5-A)*%
X122250000Y-36625000D03*
%TD*%
D17*
%TO.P,C15,1*%
%TO.N,+3V3*%
X26050236Y-68805000D03*
%TO.P,C15,2*%
%TO.N,GND*%
X25090236Y-68805000D03*
%TD*%
D10*
%TO.P,D9,1,K*%
%TO.N,/GPIO6*%
X122250000Y-53575000D03*
%TO.P,D9,2,A*%
%TO.N,Net-(D9-A)*%
X122250000Y-55675000D03*
%TD*%
D11*
%TO.P,CH13,1,1*%
%TO.N,/GPIO0*%
X111325000Y-81375000D03*
D12*
X109775000Y-81375000D03*
D13*
X108080000Y-81375000D03*
%TO.P,CH13,2,2*%
%TO.N,Net-(D13-A)*%
X121570000Y-82425000D03*
D12*
X119875000Y-82425000D03*
D11*
X118325000Y-82425000D03*
%TD*%
D10*
%TO.P,D8,1,K*%
%TO.N,/GPIO5*%
X179400000Y-34525000D03*
%TO.P,D8,2,A*%
%TO.N,Net-(D8-A)*%
X179400000Y-36625000D03*
%TD*%
%TO.P,D3,1,K*%
%TO.N,/GPIO4*%
X160350000Y-15475000D03*
%TO.P,D3,2,A*%
%TO.N,Net-(D3-A)*%
X160350000Y-17575000D03*
%TD*%
%TO.P,D1,1,K*%
%TO.N,/GPIO4*%
X122250000Y-15475000D03*
%TO.P,D1,2,A*%
%TO.N,Net-(D1-A)*%
X122250000Y-17575000D03*
%TD*%
D11*
%TO.P,CH3,1,1*%
%TO.N,/GPIO2*%
X149425000Y-24225000D03*
D12*
X147875000Y-24225000D03*
D13*
X146180000Y-24225000D03*
%TO.P,CH3,2,2*%
%TO.N,Net-(D3-A)*%
X159670000Y-25275000D03*
D12*
X157975000Y-25275000D03*
D11*
X156425000Y-25275000D03*
%TD*%
D10*
%TO.P,D4,1,K*%
%TO.N,/GPIO4*%
X179400000Y-15475000D03*
%TO.P,D4,2,A*%
%TO.N,Net-(D4-A)*%
X179400000Y-17575000D03*
%TD*%
D11*
%TO.P,CH1,1,1*%
%TO.N,/GPIO0*%
X111325000Y-24225000D03*
D12*
X109775000Y-24225000D03*
D13*
X108080000Y-24225000D03*
%TO.P,CH1,2,2*%
%TO.N,Net-(D1-A)*%
X121570000Y-25275000D03*
D12*
X119875000Y-25275000D03*
D11*
X118325000Y-25275000D03*
%TD*%
M02*
