M48
; DRILL file {KiCad 8.0.3} date 2024-06-18T00:53:08+0700
; FORMAT={-:-/ absolute / inch / decimal}
; #@! TF.CreationDate,2024-06-18T00:53:08+07:00
; #@! TF.GenerationSoftware,Kicad,Pcbnew,8.0.3
; #@! TF.FileFunction,Plated,1,2,PTH
FMAT,2
INCH
; #@! TA.AperFunction,Plated,PTH,ComponentDrill
T1C0.0157
; #@! TA.AperFunction,Plated,PTH,ComponentDrill
T2C0.0236
; #@! TA.AperFunction,Plated,PTH,ComponentDrill
T3C0.0394
; #@! TA.AperFunction,Plated,PTH,ComponentDrill
T4C0.1181
%
G90
G05
T1
X5.564Y-0.187
X5.564Y-0.2402
X5.5974Y-0.187
X5.5974Y-0.2402
X5.6309Y-0.187
X5.6309Y-0.2402
X5.6644Y-0.187
X5.6644Y-0.2402
X5.6978Y-0.187
X5.6978Y-0.2402
X5.7313Y-0.187
X5.7313Y-0.2402
X5.7648Y-0.187
X5.7648Y-0.2402
X5.7982Y-0.187
X5.7982Y-0.2402
T3
X0.3169Y-2.6065
X0.3169Y-2.7065
T4
X4.3829Y-0.9537
X4.3829Y-1.7037
X4.3829Y-2.4537
X4.3829Y-3.2037
X4.6585Y-0.9951
X4.6585Y-1.7451
X4.6585Y-2.4951
X4.6585Y-3.2451
X5.1329Y-0.9537
X5.1329Y-1.7037
X5.1329Y-2.4537
X5.1329Y-3.2037
X5.4085Y-0.9951
X5.4085Y-1.7451
X5.4085Y-2.4951
X5.4085Y-3.2451
X5.8829Y-0.9537
X5.8829Y-1.7037
X5.8829Y-2.4537
X5.8829Y-3.2037
X6.1585Y-0.9951
X6.1585Y-1.7451
X6.1585Y-2.4951
X6.1585Y-3.2451
X6.6329Y-0.9537
X6.6329Y-1.7037
X6.6329Y-2.4537
X6.6329Y-3.2037
X6.9085Y-0.9951
X6.9085Y-1.7451
X6.9085Y-2.4951
X6.9085Y-3.2451
T2
G00X5.5108Y-0.0528
M15
G01X5.5108Y-0.0843
M16
G05
G00X5.5108Y-0.172
M15
G01X5.5108Y-0.2311
M16
G05
G00X5.8514Y-0.0528
M15
G01X5.8514Y-0.0843
M16
G05
G00X5.8514Y-0.172
M15
G01X5.8514Y-0.2311
M16
G05
M30
