%TF.GenerationSoftware,KiCad,Pcbnew,8.0.3*%
%TF.CreationDate,2024-06-18T00:53:01+07:00*%
%TF.ProjectId,Bandung_v1.0.0,42616e64-756e-4675-9f76-312e302e302e,rev?*%
%TF.SameCoordinates,Original*%
%TF.FileFunction,Soldermask,Top*%
%TF.FilePolarity,Negative*%
%FSLAX46Y46*%
G04 Gerber Fmt 4.6, Leading zero omitted, Abs format (unit mm)*
G04 Created by KiCad (PCBNEW 8.0.3) date 2024-06-18 00:53:01*
%MOMM*%
%LPD*%
G01*
G04 APERTURE LIST*
%ADD10C,3.200000*%
%ADD11C,5.250000*%
%ADD12C,0.700000*%
%ADD13O,0.900000X1.700000*%
%ADD14O,0.900000X2.400000*%
%ADD15R,1.700000X1.700000*%
%ADD16O,1.700000X1.700000*%
G04 APERTURE END LIST*
D10*
%TO.C,H2*%
X187400000Y-5000000D03*
%TD*%
%TO.C,H4*%
X187400000Y-91200000D03*
%TD*%
%TO.C,H1*%
X101200000Y-5000000D03*
%TD*%
%TO.C,H3*%
X101200000Y-91200000D03*
%TD*%
D11*
%TO.C,CH9*%
X115725000Y-57625000D03*
%TD*%
%TO.C,CH6*%
X134775000Y-38575000D03*
%TD*%
%TO.C,CH7*%
X153825000Y-38575000D03*
%TD*%
%TO.C,CH5*%
X115725000Y-38575000D03*
%TD*%
%TO.C,CH10*%
X134775000Y-57625000D03*
%TD*%
%TO.C,CH11*%
X153825000Y-57625000D03*
%TD*%
%TO.C,CH4*%
X172875000Y-19525000D03*
%TD*%
D12*
%TO.C,J1*%
X141325000Y-6100000D03*
X142175000Y-6100000D03*
X143025000Y-6100000D03*
X143875000Y-6100000D03*
X144725000Y-6100000D03*
X145575000Y-6100000D03*
X146425000Y-6100000D03*
X147275000Y-6100000D03*
X147275000Y-4750000D03*
X146425000Y-4750000D03*
X145575000Y-4750000D03*
X144725000Y-4750000D03*
X143875000Y-4750000D03*
X143025000Y-4750000D03*
X142175000Y-4750000D03*
X141325000Y-4750000D03*
D13*
X139975000Y-1740000D03*
D14*
X139975000Y-5120000D03*
D13*
X148625000Y-1740000D03*
D14*
X148625000Y-5120000D03*
%TD*%
D11*
%TO.C,CH12*%
X172875000Y-57625000D03*
%TD*%
D15*
%TO.C,J2*%
X8050236Y-66205000D03*
D16*
X8050236Y-68745000D03*
%TD*%
D11*
%TO.C,CH15*%
X153825000Y-76675000D03*
%TD*%
%TO.C,CH8*%
X172875000Y-38575000D03*
%TD*%
%TO.C,CH16*%
X172875000Y-76675000D03*
%TD*%
%TO.C,CH2*%
X134775000Y-19525000D03*
%TD*%
%TO.C,CH14*%
X134775000Y-76675000D03*
%TD*%
%TO.C,CH13*%
X115725000Y-76675000D03*
%TD*%
%TO.C,CH3*%
X153825000Y-19525000D03*
%TD*%
%TO.C,CH1*%
X115725000Y-19525000D03*
%TD*%
M02*
