%TF.GenerationSoftware,KiCad,Pcbnew,8.0.3*%
%TF.CreationDate,2024-06-18T00:53:01+07:00*%
%TF.ProjectId,Bandung_v1.0.0,42616e64-756e-4675-9f76-312e302e302e,rev?*%
%TF.SameCoordinates,Original*%
%TF.FileFunction,Copper,L1,Top*%
%TF.FilePolarity,Positive*%
%FSLAX46Y46*%
G04 Gerber Fmt 4.6, Leading zero omitted, Abs format (unit mm)*
G04 Created by KiCad (PCBNEW 8.0.3) date 2024-06-18 00:53:01*
%MOMM*%
%LPD*%
G01*
G04 APERTURE LIST*
%TA.AperFunction,ComponentPad*%
%ADD10C,3.300000*%
%TD*%
%TA.AperFunction,ComponentPad*%
%ADD11C,0.700000*%
%TD*%
%TA.AperFunction,ComponentPad*%
%ADD12O,0.900000X1.700000*%
%TD*%
%TA.AperFunction,ComponentPad*%
%ADD13O,0.900000X2.400000*%
%TD*%
%TA.AperFunction,ComponentPad*%
%ADD14R,1.700000X1.700000*%
%TD*%
%TA.AperFunction,ComponentPad*%
%ADD15O,1.700000X1.700000*%
%TD*%
G04 APERTURE END LIST*
D10*
%TO.P,CH9,1,1*%
%TO.N,/GPIO0*%
X111325000Y-62325000D03*
%TO.P,CH9,2,2*%
%TO.N,Net-(D9-A)*%
X118325000Y-63375000D03*
%TD*%
%TO.P,CH6,1,1*%
%TO.N,/GPIO1*%
X130375000Y-43275000D03*
%TO.P,CH6,2,2*%
%TO.N,Net-(D6-A)*%
X137375000Y-44325000D03*
%TD*%
%TO.P,CH7,1,1*%
%TO.N,/GPIO2*%
X149425000Y-43275000D03*
%TO.P,CH7,2,2*%
%TO.N,Net-(D7-A)*%
X156425000Y-44325000D03*
%TD*%
%TO.P,CH5,1,1*%
%TO.N,/GPIO0*%
X111325000Y-43275000D03*
%TO.P,CH5,2,2*%
%TO.N,Net-(D5-A)*%
X118325000Y-44325000D03*
%TD*%
%TO.P,CH10,1,1*%
%TO.N,/GPIO1*%
X130375000Y-62325000D03*
%TO.P,CH10,2,2*%
%TO.N,Net-(D10-A)*%
X137375000Y-63375000D03*
%TD*%
%TO.P,CH11,1,1*%
%TO.N,/GPIO2*%
X149425000Y-62325000D03*
%TO.P,CH11,2,2*%
%TO.N,Net-(D11-A)*%
X156425000Y-63375000D03*
%TD*%
%TO.P,CH4,1,1*%
%TO.N,/GPIO3*%
X168475000Y-24225000D03*
%TO.P,CH4,2,2*%
%TO.N,Net-(D4-A)*%
X175475000Y-25275000D03*
%TD*%
D11*
%TO.P,J1,A1,GND*%
%TO.N,GND*%
X141325000Y-6100000D03*
%TO.P,J1,A4,VBUS*%
%TO.N,VBUS*%
X142175000Y-6100000D03*
%TO.P,J1,A5,CC1*%
%TO.N,Net-(J1-CC1)*%
X143025000Y-6100000D03*
%TO.P,J1,A6,D+*%
%TO.N,/USB_DP*%
X143875000Y-6100000D03*
%TO.P,J1,A7,D-*%
%TO.N,/USB_DM*%
X144725000Y-6100000D03*
%TO.P,J1,A8,SBU1*%
%TO.N,unconnected-(J1-SBU1-PadA8)*%
X145575000Y-6100000D03*
%TO.P,J1,A9,VBUS*%
%TO.N,VBUS*%
X146425000Y-6100000D03*
%TO.P,J1,A12,GND*%
%TO.N,GND*%
X147275000Y-6100000D03*
%TO.P,J1,B1,GND*%
X147275000Y-4750000D03*
%TO.P,J1,B4,VBUS*%
%TO.N,VBUS*%
X146425000Y-4750000D03*
%TO.P,J1,B5,CC2*%
%TO.N,Net-(J1-CC2)*%
X145575000Y-4750000D03*
%TO.P,J1,B6,D+*%
%TO.N,/USB_DP*%
X144725000Y-4750000D03*
%TO.P,J1,B7,D-*%
%TO.N,/USB_DM*%
X143875000Y-4750000D03*
%TO.P,J1,B8,SBU2*%
%TO.N,unconnected-(J1-SBU2-PadB8)*%
X143025000Y-4750000D03*
%TO.P,J1,B9,VBUS*%
%TO.N,VBUS*%
X142175000Y-4750000D03*
%TO.P,J1,B12,GND*%
%TO.N,GND*%
X141325000Y-4750000D03*
D12*
%TO.P,J1,S1,SHIELD*%
X139975000Y-1740000D03*
D13*
X139975000Y-5120000D03*
D12*
X148625000Y-1740000D03*
D13*
X148625000Y-5120000D03*
%TD*%
D10*
%TO.P,CH12,1,1*%
%TO.N,/GPIO3*%
X168475000Y-62325000D03*
%TO.P,CH12,2,2*%
%TO.N,Net-(D12-A)*%
X175475000Y-63375000D03*
%TD*%
D14*
%TO.P,J2,1,Pin_1*%
%TO.N,/~{USB_BOOT}*%
X8050236Y-66205000D03*
D15*
%TO.P,J2,2,Pin_2*%
%TO.N,GND*%
X8050236Y-68745000D03*
%TD*%
D10*
%TO.P,CH15,1,1*%
%TO.N,/GPIO2*%
X149425000Y-81375000D03*
%TO.P,CH15,2,2*%
%TO.N,Net-(D15-A)*%
X156425000Y-82425000D03*
%TD*%
%TO.P,CH8,1,1*%
%TO.N,/GPIO3*%
X168475000Y-43275000D03*
%TO.P,CH8,2,2*%
%TO.N,Net-(D8-A)*%
X175475000Y-44325000D03*
%TD*%
%TO.P,CH16,1,1*%
%TO.N,/GPIO3*%
X168475000Y-81375000D03*
%TO.P,CH16,2,2*%
%TO.N,Net-(D16-A)*%
X175475000Y-82425000D03*
%TD*%
%TO.P,CH2,1,1*%
%TO.N,/GPIO1*%
X130375000Y-24225000D03*
%TO.P,CH2,2,2*%
%TO.N,Net-(D2-A)*%
X137375000Y-25275000D03*
%TD*%
%TO.P,CH14,1,1*%
%TO.N,/GPIO1*%
X130375000Y-81375000D03*
%TO.P,CH14,2,2*%
%TO.N,Net-(D14-A)*%
X137375000Y-82425000D03*
%TD*%
%TO.P,CH13,1,1*%
%TO.N,/GPIO0*%
X111325000Y-81375000D03*
%TO.P,CH13,2,2*%
%TO.N,Net-(D13-A)*%
X118325000Y-82425000D03*
%TD*%
%TO.P,CH3,1,1*%
%TO.N,/GPIO2*%
X149425000Y-24225000D03*
%TO.P,CH3,2,2*%
%TO.N,Net-(D3-A)*%
X156425000Y-25275000D03*
%TD*%
%TO.P,CH1,1,1*%
%TO.N,/GPIO0*%
X111325000Y-24225000D03*
%TO.P,CH1,2,2*%
%TO.N,Net-(D1-A)*%
X118325000Y-25275000D03*
%TD*%
M02*
