%TF.GenerationSoftware,KiCad,Pcbnew,8.0.3*%
%TF.CreationDate,2024-06-18T00:53:01+07:00*%
%TF.ProjectId,Bandung_v1.0.0,42616e64-756e-4675-9f76-312e302e302e,rev?*%
%TF.SameCoordinates,Original*%
%TF.FileFunction,Legend,Bot*%
%TF.FilePolarity,Positive*%
%FSLAX46Y46*%
G04 Gerber Fmt 4.6, Leading zero omitted, Abs format (unit mm)*
G04 Created by KiCad (PCBNEW 8.0.3) date 2024-06-18 00:53:01*
%MOMM*%
%LPD*%
G01*
G04 APERTURE LIST*
%ADD10C,0.150000*%
%ADD11C,0.120000*%
G04 APERTURE END LIST*
D10*
X139904819Y-53410714D02*
X138904819Y-53410714D01*
X138904819Y-53410714D02*
X138904819Y-53648809D01*
X138904819Y-53648809D02*
X138952438Y-53791666D01*
X138952438Y-53791666D02*
X139047676Y-53886904D01*
X139047676Y-53886904D02*
X139142914Y-53934523D01*
X139142914Y-53934523D02*
X139333390Y-53982142D01*
X139333390Y-53982142D02*
X139476247Y-53982142D01*
X139476247Y-53982142D02*
X139666723Y-53934523D01*
X139666723Y-53934523D02*
X139761961Y-53886904D01*
X139761961Y-53886904D02*
X139857200Y-53791666D01*
X139857200Y-53791666D02*
X139904819Y-53648809D01*
X139904819Y-53648809D02*
X139904819Y-53410714D01*
X139904819Y-54934523D02*
X139904819Y-54363095D01*
X139904819Y-54648809D02*
X138904819Y-54648809D01*
X138904819Y-54648809D02*
X139047676Y-54553571D01*
X139047676Y-54553571D02*
X139142914Y-54458333D01*
X139142914Y-54458333D02*
X139190533Y-54363095D01*
X138904819Y-55553571D02*
X138904819Y-55648809D01*
X138904819Y-55648809D02*
X138952438Y-55744047D01*
X138952438Y-55744047D02*
X139000057Y-55791666D01*
X139000057Y-55791666D02*
X139095295Y-55839285D01*
X139095295Y-55839285D02*
X139285771Y-55886904D01*
X139285771Y-55886904D02*
X139523866Y-55886904D01*
X139523866Y-55886904D02*
X139714342Y-55839285D01*
X139714342Y-55839285D02*
X139809580Y-55791666D01*
X139809580Y-55791666D02*
X139857200Y-55744047D01*
X139857200Y-55744047D02*
X139904819Y-55648809D01*
X139904819Y-55648809D02*
X139904819Y-55553571D01*
X139904819Y-55553571D02*
X139857200Y-55458333D01*
X139857200Y-55458333D02*
X139809580Y-55410714D01*
X139809580Y-55410714D02*
X139714342Y-55363095D01*
X139714342Y-55363095D02*
X139523866Y-55315476D01*
X139523866Y-55315476D02*
X139285771Y-55315476D01*
X139285771Y-55315476D02*
X139095295Y-55363095D01*
X139095295Y-55363095D02*
X139000057Y-55410714D01*
X139000057Y-55410714D02*
X138952438Y-55458333D01*
X138952438Y-55458333D02*
X138904819Y-55553571D01*
X139904819Y-15786905D02*
X138904819Y-15786905D01*
X138904819Y-15786905D02*
X138904819Y-16025000D01*
X138904819Y-16025000D02*
X138952438Y-16167857D01*
X138952438Y-16167857D02*
X139047676Y-16263095D01*
X139047676Y-16263095D02*
X139142914Y-16310714D01*
X139142914Y-16310714D02*
X139333390Y-16358333D01*
X139333390Y-16358333D02*
X139476247Y-16358333D01*
X139476247Y-16358333D02*
X139666723Y-16310714D01*
X139666723Y-16310714D02*
X139761961Y-16263095D01*
X139761961Y-16263095D02*
X139857200Y-16167857D01*
X139857200Y-16167857D02*
X139904819Y-16025000D01*
X139904819Y-16025000D02*
X139904819Y-15786905D01*
X139000057Y-16739286D02*
X138952438Y-16786905D01*
X138952438Y-16786905D02*
X138904819Y-16882143D01*
X138904819Y-16882143D02*
X138904819Y-17120238D01*
X138904819Y-17120238D02*
X138952438Y-17215476D01*
X138952438Y-17215476D02*
X139000057Y-17263095D01*
X139000057Y-17263095D02*
X139095295Y-17310714D01*
X139095295Y-17310714D02*
X139190533Y-17310714D01*
X139190533Y-17310714D02*
X139333390Y-17263095D01*
X139333390Y-17263095D02*
X139904819Y-16691667D01*
X139904819Y-16691667D02*
X139904819Y-17310714D01*
X120570476Y-60384580D02*
X120618095Y-60432200D01*
X120618095Y-60432200D02*
X120760952Y-60479819D01*
X120760952Y-60479819D02*
X120856190Y-60479819D01*
X120856190Y-60479819D02*
X120999047Y-60432200D01*
X120999047Y-60432200D02*
X121094285Y-60336961D01*
X121094285Y-60336961D02*
X121141904Y-60241723D01*
X121141904Y-60241723D02*
X121189523Y-60051247D01*
X121189523Y-60051247D02*
X121189523Y-59908390D01*
X121189523Y-59908390D02*
X121141904Y-59717914D01*
X121141904Y-59717914D02*
X121094285Y-59622676D01*
X121094285Y-59622676D02*
X120999047Y-59527438D01*
X120999047Y-59527438D02*
X120856190Y-59479819D01*
X120856190Y-59479819D02*
X120760952Y-59479819D01*
X120760952Y-59479819D02*
X120618095Y-59527438D01*
X120618095Y-59527438D02*
X120570476Y-59575057D01*
X120141904Y-60479819D02*
X120141904Y-59479819D01*
X120141904Y-59956009D02*
X119570476Y-59956009D01*
X119570476Y-60479819D02*
X119570476Y-59479819D01*
X119046666Y-60479819D02*
X118856190Y-60479819D01*
X118856190Y-60479819D02*
X118760952Y-60432200D01*
X118760952Y-60432200D02*
X118713333Y-60384580D01*
X118713333Y-60384580D02*
X118618095Y-60241723D01*
X118618095Y-60241723D02*
X118570476Y-60051247D01*
X118570476Y-60051247D02*
X118570476Y-59670295D01*
X118570476Y-59670295D02*
X118618095Y-59575057D01*
X118618095Y-59575057D02*
X118665714Y-59527438D01*
X118665714Y-59527438D02*
X118760952Y-59479819D01*
X118760952Y-59479819D02*
X118951428Y-59479819D01*
X118951428Y-59479819D02*
X119046666Y-59527438D01*
X119046666Y-59527438D02*
X119094285Y-59575057D01*
X119094285Y-59575057D02*
X119141904Y-59670295D01*
X119141904Y-59670295D02*
X119141904Y-59908390D01*
X119141904Y-59908390D02*
X119094285Y-60003628D01*
X119094285Y-60003628D02*
X119046666Y-60051247D01*
X119046666Y-60051247D02*
X118951428Y-60098866D01*
X118951428Y-60098866D02*
X118760952Y-60098866D01*
X118760952Y-60098866D02*
X118665714Y-60051247D01*
X118665714Y-60051247D02*
X118618095Y-60003628D01*
X118618095Y-60003628D02*
X118570476Y-59908390D01*
X38432140Y-63034819D02*
X38432140Y-63844342D01*
X38432140Y-63844342D02*
X38384521Y-63939580D01*
X38384521Y-63939580D02*
X38336902Y-63987200D01*
X38336902Y-63987200D02*
X38241664Y-64034819D01*
X38241664Y-64034819D02*
X38051188Y-64034819D01*
X38051188Y-64034819D02*
X37955950Y-63987200D01*
X37955950Y-63987200D02*
X37908331Y-63939580D01*
X37908331Y-63939580D02*
X37860712Y-63844342D01*
X37860712Y-63844342D02*
X37860712Y-63034819D01*
X36860712Y-64034819D02*
X37432140Y-64034819D01*
X37146426Y-64034819D02*
X37146426Y-63034819D01*
X37146426Y-63034819D02*
X37241664Y-63177676D01*
X37241664Y-63177676D02*
X37336902Y-63272914D01*
X37336902Y-63272914D02*
X37432140Y-63320533D01*
X139620476Y-41334580D02*
X139668095Y-41382200D01*
X139668095Y-41382200D02*
X139810952Y-41429819D01*
X139810952Y-41429819D02*
X139906190Y-41429819D01*
X139906190Y-41429819D02*
X140049047Y-41382200D01*
X140049047Y-41382200D02*
X140144285Y-41286961D01*
X140144285Y-41286961D02*
X140191904Y-41191723D01*
X140191904Y-41191723D02*
X140239523Y-41001247D01*
X140239523Y-41001247D02*
X140239523Y-40858390D01*
X140239523Y-40858390D02*
X140191904Y-40667914D01*
X140191904Y-40667914D02*
X140144285Y-40572676D01*
X140144285Y-40572676D02*
X140049047Y-40477438D01*
X140049047Y-40477438D02*
X139906190Y-40429819D01*
X139906190Y-40429819D02*
X139810952Y-40429819D01*
X139810952Y-40429819D02*
X139668095Y-40477438D01*
X139668095Y-40477438D02*
X139620476Y-40525057D01*
X139191904Y-41429819D02*
X139191904Y-40429819D01*
X139191904Y-40906009D02*
X138620476Y-40906009D01*
X138620476Y-41429819D02*
X138620476Y-40429819D01*
X137715714Y-40429819D02*
X137906190Y-40429819D01*
X137906190Y-40429819D02*
X138001428Y-40477438D01*
X138001428Y-40477438D02*
X138049047Y-40525057D01*
X138049047Y-40525057D02*
X138144285Y-40667914D01*
X138144285Y-40667914D02*
X138191904Y-40858390D01*
X138191904Y-40858390D02*
X138191904Y-41239342D01*
X138191904Y-41239342D02*
X138144285Y-41334580D01*
X138144285Y-41334580D02*
X138096666Y-41382200D01*
X138096666Y-41382200D02*
X138001428Y-41429819D01*
X138001428Y-41429819D02*
X137810952Y-41429819D01*
X137810952Y-41429819D02*
X137715714Y-41382200D01*
X137715714Y-41382200D02*
X137668095Y-41334580D01*
X137668095Y-41334580D02*
X137620476Y-41239342D01*
X137620476Y-41239342D02*
X137620476Y-41001247D01*
X137620476Y-41001247D02*
X137668095Y-40906009D01*
X137668095Y-40906009D02*
X137715714Y-40858390D01*
X137715714Y-40858390D02*
X137810952Y-40810771D01*
X137810952Y-40810771D02*
X138001428Y-40810771D01*
X138001428Y-40810771D02*
X138096666Y-40858390D01*
X138096666Y-40858390D02*
X138144285Y-40906009D01*
X138144285Y-40906009D02*
X138191904Y-41001247D01*
X158670476Y-41334580D02*
X158718095Y-41382200D01*
X158718095Y-41382200D02*
X158860952Y-41429819D01*
X158860952Y-41429819D02*
X158956190Y-41429819D01*
X158956190Y-41429819D02*
X159099047Y-41382200D01*
X159099047Y-41382200D02*
X159194285Y-41286961D01*
X159194285Y-41286961D02*
X159241904Y-41191723D01*
X159241904Y-41191723D02*
X159289523Y-41001247D01*
X159289523Y-41001247D02*
X159289523Y-40858390D01*
X159289523Y-40858390D02*
X159241904Y-40667914D01*
X159241904Y-40667914D02*
X159194285Y-40572676D01*
X159194285Y-40572676D02*
X159099047Y-40477438D01*
X159099047Y-40477438D02*
X158956190Y-40429819D01*
X158956190Y-40429819D02*
X158860952Y-40429819D01*
X158860952Y-40429819D02*
X158718095Y-40477438D01*
X158718095Y-40477438D02*
X158670476Y-40525057D01*
X158241904Y-41429819D02*
X158241904Y-40429819D01*
X158241904Y-40906009D02*
X157670476Y-40906009D01*
X157670476Y-41429819D02*
X157670476Y-40429819D01*
X157289523Y-40429819D02*
X156622857Y-40429819D01*
X156622857Y-40429819D02*
X157051428Y-41429819D01*
X8226426Y-70833628D02*
X8226426Y-71309819D01*
X8559759Y-70309819D02*
X8226426Y-70833628D01*
X8226426Y-70833628D02*
X7893093Y-70309819D01*
X7035950Y-71309819D02*
X7607378Y-71309819D01*
X7321664Y-71309819D02*
X7321664Y-70309819D01*
X7321664Y-70309819D02*
X7416902Y-70452676D01*
X7416902Y-70452676D02*
X7512140Y-70547914D01*
X7512140Y-70547914D02*
X7607378Y-70595533D01*
X31476902Y-69974580D02*
X31524521Y-70022200D01*
X31524521Y-70022200D02*
X31667378Y-70069819D01*
X31667378Y-70069819D02*
X31762616Y-70069819D01*
X31762616Y-70069819D02*
X31905473Y-70022200D01*
X31905473Y-70022200D02*
X32000711Y-69926961D01*
X32000711Y-69926961D02*
X32048330Y-69831723D01*
X32048330Y-69831723D02*
X32095949Y-69641247D01*
X32095949Y-69641247D02*
X32095949Y-69498390D01*
X32095949Y-69498390D02*
X32048330Y-69307914D01*
X32048330Y-69307914D02*
X32000711Y-69212676D01*
X32000711Y-69212676D02*
X31905473Y-69117438D01*
X31905473Y-69117438D02*
X31762616Y-69069819D01*
X31762616Y-69069819D02*
X31667378Y-69069819D01*
X31667378Y-69069819D02*
X31524521Y-69117438D01*
X31524521Y-69117438D02*
X31476902Y-69165057D01*
X30619759Y-69069819D02*
X30810235Y-69069819D01*
X30810235Y-69069819D02*
X30905473Y-69117438D01*
X30905473Y-69117438D02*
X30953092Y-69165057D01*
X30953092Y-69165057D02*
X31048330Y-69307914D01*
X31048330Y-69307914D02*
X31095949Y-69498390D01*
X31095949Y-69498390D02*
X31095949Y-69879342D01*
X31095949Y-69879342D02*
X31048330Y-69974580D01*
X31048330Y-69974580D02*
X31000711Y-70022200D01*
X31000711Y-70022200D02*
X30905473Y-70069819D01*
X30905473Y-70069819D02*
X30714997Y-70069819D01*
X30714997Y-70069819D02*
X30619759Y-70022200D01*
X30619759Y-70022200D02*
X30572140Y-69974580D01*
X30572140Y-69974580D02*
X30524521Y-69879342D01*
X30524521Y-69879342D02*
X30524521Y-69641247D01*
X30524521Y-69641247D02*
X30572140Y-69546009D01*
X30572140Y-69546009D02*
X30619759Y-69498390D01*
X30619759Y-69498390D02*
X30714997Y-69450771D01*
X30714997Y-69450771D02*
X30905473Y-69450771D01*
X30905473Y-69450771D02*
X31000711Y-69498390D01*
X31000711Y-69498390D02*
X31048330Y-69546009D01*
X31048330Y-69546009D02*
X31095949Y-69641247D01*
X120570476Y-41334580D02*
X120618095Y-41382200D01*
X120618095Y-41382200D02*
X120760952Y-41429819D01*
X120760952Y-41429819D02*
X120856190Y-41429819D01*
X120856190Y-41429819D02*
X120999047Y-41382200D01*
X120999047Y-41382200D02*
X121094285Y-41286961D01*
X121094285Y-41286961D02*
X121141904Y-41191723D01*
X121141904Y-41191723D02*
X121189523Y-41001247D01*
X121189523Y-41001247D02*
X121189523Y-40858390D01*
X121189523Y-40858390D02*
X121141904Y-40667914D01*
X121141904Y-40667914D02*
X121094285Y-40572676D01*
X121094285Y-40572676D02*
X120999047Y-40477438D01*
X120999047Y-40477438D02*
X120856190Y-40429819D01*
X120856190Y-40429819D02*
X120760952Y-40429819D01*
X120760952Y-40429819D02*
X120618095Y-40477438D01*
X120618095Y-40477438D02*
X120570476Y-40525057D01*
X120141904Y-41429819D02*
X120141904Y-40429819D01*
X120141904Y-40906009D02*
X119570476Y-40906009D01*
X119570476Y-41429819D02*
X119570476Y-40429819D01*
X118618095Y-40429819D02*
X119094285Y-40429819D01*
X119094285Y-40429819D02*
X119141904Y-40906009D01*
X119141904Y-40906009D02*
X119094285Y-40858390D01*
X119094285Y-40858390D02*
X118999047Y-40810771D01*
X118999047Y-40810771D02*
X118760952Y-40810771D01*
X118760952Y-40810771D02*
X118665714Y-40858390D01*
X118665714Y-40858390D02*
X118618095Y-40906009D01*
X118618095Y-40906009D02*
X118570476Y-41001247D01*
X118570476Y-41001247D02*
X118570476Y-41239342D01*
X118570476Y-41239342D02*
X118618095Y-41334580D01*
X118618095Y-41334580D02*
X118665714Y-41382200D01*
X118665714Y-41382200D02*
X118760952Y-41429819D01*
X118760952Y-41429819D02*
X118999047Y-41429819D01*
X118999047Y-41429819D02*
X119094285Y-41382200D01*
X119094285Y-41382200D02*
X119141904Y-41334580D01*
X158954819Y-34836905D02*
X157954819Y-34836905D01*
X157954819Y-34836905D02*
X157954819Y-35075000D01*
X157954819Y-35075000D02*
X158002438Y-35217857D01*
X158002438Y-35217857D02*
X158097676Y-35313095D01*
X158097676Y-35313095D02*
X158192914Y-35360714D01*
X158192914Y-35360714D02*
X158383390Y-35408333D01*
X158383390Y-35408333D02*
X158526247Y-35408333D01*
X158526247Y-35408333D02*
X158716723Y-35360714D01*
X158716723Y-35360714D02*
X158811961Y-35313095D01*
X158811961Y-35313095D02*
X158907200Y-35217857D01*
X158907200Y-35217857D02*
X158954819Y-35075000D01*
X158954819Y-35075000D02*
X158954819Y-34836905D01*
X157954819Y-35741667D02*
X157954819Y-36408333D01*
X157954819Y-36408333D02*
X158954819Y-35979762D01*
X140096666Y-60384580D02*
X140144285Y-60432200D01*
X140144285Y-60432200D02*
X140287142Y-60479819D01*
X140287142Y-60479819D02*
X140382380Y-60479819D01*
X140382380Y-60479819D02*
X140525237Y-60432200D01*
X140525237Y-60432200D02*
X140620475Y-60336961D01*
X140620475Y-60336961D02*
X140668094Y-60241723D01*
X140668094Y-60241723D02*
X140715713Y-60051247D01*
X140715713Y-60051247D02*
X140715713Y-59908390D01*
X140715713Y-59908390D02*
X140668094Y-59717914D01*
X140668094Y-59717914D02*
X140620475Y-59622676D01*
X140620475Y-59622676D02*
X140525237Y-59527438D01*
X140525237Y-59527438D02*
X140382380Y-59479819D01*
X140382380Y-59479819D02*
X140287142Y-59479819D01*
X140287142Y-59479819D02*
X140144285Y-59527438D01*
X140144285Y-59527438D02*
X140096666Y-59575057D01*
X139668094Y-60479819D02*
X139668094Y-59479819D01*
X139668094Y-59956009D02*
X139096666Y-59956009D01*
X139096666Y-60479819D02*
X139096666Y-59479819D01*
X138096666Y-60479819D02*
X138668094Y-60479819D01*
X138382380Y-60479819D02*
X138382380Y-59479819D01*
X138382380Y-59479819D02*
X138477618Y-59622676D01*
X138477618Y-59622676D02*
X138572856Y-59717914D01*
X138572856Y-59717914D02*
X138668094Y-59765533D01*
X137477618Y-59479819D02*
X137382380Y-59479819D01*
X137382380Y-59479819D02*
X137287142Y-59527438D01*
X137287142Y-59527438D02*
X137239523Y-59575057D01*
X137239523Y-59575057D02*
X137191904Y-59670295D01*
X137191904Y-59670295D02*
X137144285Y-59860771D01*
X137144285Y-59860771D02*
X137144285Y-60098866D01*
X137144285Y-60098866D02*
X137191904Y-60289342D01*
X137191904Y-60289342D02*
X137239523Y-60384580D01*
X137239523Y-60384580D02*
X137287142Y-60432200D01*
X137287142Y-60432200D02*
X137382380Y-60479819D01*
X137382380Y-60479819D02*
X137477618Y-60479819D01*
X137477618Y-60479819D02*
X137572856Y-60432200D01*
X137572856Y-60432200D02*
X137620475Y-60384580D01*
X137620475Y-60384580D02*
X137668094Y-60289342D01*
X137668094Y-60289342D02*
X137715713Y-60098866D01*
X137715713Y-60098866D02*
X137715713Y-59860771D01*
X137715713Y-59860771D02*
X137668094Y-59670295D01*
X137668094Y-59670295D02*
X137620475Y-59575057D01*
X137620475Y-59575057D02*
X137572856Y-59527438D01*
X137572856Y-59527438D02*
X137477618Y-59479819D01*
X159146666Y-60384580D02*
X159194285Y-60432200D01*
X159194285Y-60432200D02*
X159337142Y-60479819D01*
X159337142Y-60479819D02*
X159432380Y-60479819D01*
X159432380Y-60479819D02*
X159575237Y-60432200D01*
X159575237Y-60432200D02*
X159670475Y-60336961D01*
X159670475Y-60336961D02*
X159718094Y-60241723D01*
X159718094Y-60241723D02*
X159765713Y-60051247D01*
X159765713Y-60051247D02*
X159765713Y-59908390D01*
X159765713Y-59908390D02*
X159718094Y-59717914D01*
X159718094Y-59717914D02*
X159670475Y-59622676D01*
X159670475Y-59622676D02*
X159575237Y-59527438D01*
X159575237Y-59527438D02*
X159432380Y-59479819D01*
X159432380Y-59479819D02*
X159337142Y-59479819D01*
X159337142Y-59479819D02*
X159194285Y-59527438D01*
X159194285Y-59527438D02*
X159146666Y-59575057D01*
X158718094Y-60479819D02*
X158718094Y-59479819D01*
X158718094Y-59956009D02*
X158146666Y-59956009D01*
X158146666Y-60479819D02*
X158146666Y-59479819D01*
X157146666Y-60479819D02*
X157718094Y-60479819D01*
X157432380Y-60479819D02*
X157432380Y-59479819D01*
X157432380Y-59479819D02*
X157527618Y-59622676D01*
X157527618Y-59622676D02*
X157622856Y-59717914D01*
X157622856Y-59717914D02*
X157718094Y-59765533D01*
X156194285Y-60479819D02*
X156765713Y-60479819D01*
X156479999Y-60479819D02*
X156479999Y-59479819D01*
X156479999Y-59479819D02*
X156575237Y-59622676D01*
X156575237Y-59622676D02*
X156670475Y-59717914D01*
X156670475Y-59717914D02*
X156765713Y-59765533D01*
X13243093Y-70084580D02*
X13290712Y-70132200D01*
X13290712Y-70132200D02*
X13433569Y-70179819D01*
X13433569Y-70179819D02*
X13528807Y-70179819D01*
X13528807Y-70179819D02*
X13671664Y-70132200D01*
X13671664Y-70132200D02*
X13766902Y-70036961D01*
X13766902Y-70036961D02*
X13814521Y-69941723D01*
X13814521Y-69941723D02*
X13862140Y-69751247D01*
X13862140Y-69751247D02*
X13862140Y-69608390D01*
X13862140Y-69608390D02*
X13814521Y-69417914D01*
X13814521Y-69417914D02*
X13766902Y-69322676D01*
X13766902Y-69322676D02*
X13671664Y-69227438D01*
X13671664Y-69227438D02*
X13528807Y-69179819D01*
X13528807Y-69179819D02*
X13433569Y-69179819D01*
X13433569Y-69179819D02*
X13290712Y-69227438D01*
X13290712Y-69227438D02*
X13243093Y-69275057D01*
X12290712Y-70179819D02*
X12862140Y-70179819D01*
X12576426Y-70179819D02*
X12576426Y-69179819D01*
X12576426Y-69179819D02*
X12671664Y-69322676D01*
X12671664Y-69322676D02*
X12766902Y-69417914D01*
X12766902Y-69417914D02*
X12862140Y-69465533D01*
X11957378Y-69179819D02*
X11290712Y-69179819D01*
X11290712Y-69179819D02*
X11719283Y-70179819D01*
X26213093Y-69974580D02*
X26260712Y-70022200D01*
X26260712Y-70022200D02*
X26403569Y-70069819D01*
X26403569Y-70069819D02*
X26498807Y-70069819D01*
X26498807Y-70069819D02*
X26641664Y-70022200D01*
X26641664Y-70022200D02*
X26736902Y-69926961D01*
X26736902Y-69926961D02*
X26784521Y-69831723D01*
X26784521Y-69831723D02*
X26832140Y-69641247D01*
X26832140Y-69641247D02*
X26832140Y-69498390D01*
X26832140Y-69498390D02*
X26784521Y-69307914D01*
X26784521Y-69307914D02*
X26736902Y-69212676D01*
X26736902Y-69212676D02*
X26641664Y-69117438D01*
X26641664Y-69117438D02*
X26498807Y-69069819D01*
X26498807Y-69069819D02*
X26403569Y-69069819D01*
X26403569Y-69069819D02*
X26260712Y-69117438D01*
X26260712Y-69117438D02*
X26213093Y-69165057D01*
X25260712Y-70069819D02*
X25832140Y-70069819D01*
X25546426Y-70069819D02*
X25546426Y-69069819D01*
X25546426Y-69069819D02*
X25641664Y-69212676D01*
X25641664Y-69212676D02*
X25736902Y-69307914D01*
X25736902Y-69307914D02*
X25832140Y-69355533D01*
X24403569Y-69069819D02*
X24594045Y-69069819D01*
X24594045Y-69069819D02*
X24689283Y-69117438D01*
X24689283Y-69117438D02*
X24736902Y-69165057D01*
X24736902Y-69165057D02*
X24832140Y-69307914D01*
X24832140Y-69307914D02*
X24879759Y-69498390D01*
X24879759Y-69498390D02*
X24879759Y-69879342D01*
X24879759Y-69879342D02*
X24832140Y-69974580D01*
X24832140Y-69974580D02*
X24784521Y-70022200D01*
X24784521Y-70022200D02*
X24689283Y-70069819D01*
X24689283Y-70069819D02*
X24498807Y-70069819D01*
X24498807Y-70069819D02*
X24403569Y-70022200D01*
X24403569Y-70022200D02*
X24355950Y-69974580D01*
X24355950Y-69974580D02*
X24308331Y-69879342D01*
X24308331Y-69879342D02*
X24308331Y-69641247D01*
X24308331Y-69641247D02*
X24355950Y-69546009D01*
X24355950Y-69546009D02*
X24403569Y-69498390D01*
X24403569Y-69498390D02*
X24498807Y-69450771D01*
X24498807Y-69450771D02*
X24689283Y-69450771D01*
X24689283Y-69450771D02*
X24784521Y-69498390D01*
X24784521Y-69498390D02*
X24832140Y-69546009D01*
X24832140Y-69546009D02*
X24879759Y-69641247D01*
X12766902Y-64064580D02*
X12814521Y-64112200D01*
X12814521Y-64112200D02*
X12957378Y-64159819D01*
X12957378Y-64159819D02*
X13052616Y-64159819D01*
X13052616Y-64159819D02*
X13195473Y-64112200D01*
X13195473Y-64112200D02*
X13290711Y-64016961D01*
X13290711Y-64016961D02*
X13338330Y-63921723D01*
X13338330Y-63921723D02*
X13385949Y-63731247D01*
X13385949Y-63731247D02*
X13385949Y-63588390D01*
X13385949Y-63588390D02*
X13338330Y-63397914D01*
X13338330Y-63397914D02*
X13290711Y-63302676D01*
X13290711Y-63302676D02*
X13195473Y-63207438D01*
X13195473Y-63207438D02*
X13052616Y-63159819D01*
X13052616Y-63159819D02*
X12957378Y-63159819D01*
X12957378Y-63159819D02*
X12814521Y-63207438D01*
X12814521Y-63207438D02*
X12766902Y-63255057D01*
X11814521Y-64159819D02*
X12385949Y-64159819D01*
X12100235Y-64159819D02*
X12100235Y-63159819D01*
X12100235Y-63159819D02*
X12195473Y-63302676D01*
X12195473Y-63302676D02*
X12290711Y-63397914D01*
X12290711Y-63397914D02*
X12385949Y-63445533D01*
X158954819Y-72460714D02*
X157954819Y-72460714D01*
X157954819Y-72460714D02*
X157954819Y-72698809D01*
X157954819Y-72698809D02*
X158002438Y-72841666D01*
X158002438Y-72841666D02*
X158097676Y-72936904D01*
X158097676Y-72936904D02*
X158192914Y-72984523D01*
X158192914Y-72984523D02*
X158383390Y-73032142D01*
X158383390Y-73032142D02*
X158526247Y-73032142D01*
X158526247Y-73032142D02*
X158716723Y-72984523D01*
X158716723Y-72984523D02*
X158811961Y-72936904D01*
X158811961Y-72936904D02*
X158907200Y-72841666D01*
X158907200Y-72841666D02*
X158954819Y-72698809D01*
X158954819Y-72698809D02*
X158954819Y-72460714D01*
X158954819Y-73984523D02*
X158954819Y-73413095D01*
X158954819Y-73698809D02*
X157954819Y-73698809D01*
X157954819Y-73698809D02*
X158097676Y-73603571D01*
X158097676Y-73603571D02*
X158192914Y-73508333D01*
X158192914Y-73508333D02*
X158240533Y-73413095D01*
X157954819Y-74889285D02*
X157954819Y-74413095D01*
X157954819Y-74413095D02*
X158431009Y-74365476D01*
X158431009Y-74365476D02*
X158383390Y-74413095D01*
X158383390Y-74413095D02*
X158335771Y-74508333D01*
X158335771Y-74508333D02*
X158335771Y-74746428D01*
X158335771Y-74746428D02*
X158383390Y-74841666D01*
X158383390Y-74841666D02*
X158431009Y-74889285D01*
X158431009Y-74889285D02*
X158526247Y-74936904D01*
X158526247Y-74936904D02*
X158764342Y-74936904D01*
X158764342Y-74936904D02*
X158859580Y-74889285D01*
X158859580Y-74889285D02*
X158907200Y-74841666D01*
X158907200Y-74841666D02*
X158954819Y-74746428D01*
X158954819Y-74746428D02*
X158954819Y-74508333D01*
X158954819Y-74508333D02*
X158907200Y-74413095D01*
X158907200Y-74413095D02*
X158859580Y-74365476D01*
X177720476Y-22284580D02*
X177768095Y-22332200D01*
X177768095Y-22332200D02*
X177910952Y-22379819D01*
X177910952Y-22379819D02*
X178006190Y-22379819D01*
X178006190Y-22379819D02*
X178149047Y-22332200D01*
X178149047Y-22332200D02*
X178244285Y-22236961D01*
X178244285Y-22236961D02*
X178291904Y-22141723D01*
X178291904Y-22141723D02*
X178339523Y-21951247D01*
X178339523Y-21951247D02*
X178339523Y-21808390D01*
X178339523Y-21808390D02*
X178291904Y-21617914D01*
X178291904Y-21617914D02*
X178244285Y-21522676D01*
X178244285Y-21522676D02*
X178149047Y-21427438D01*
X178149047Y-21427438D02*
X178006190Y-21379819D01*
X178006190Y-21379819D02*
X177910952Y-21379819D01*
X177910952Y-21379819D02*
X177768095Y-21427438D01*
X177768095Y-21427438D02*
X177720476Y-21475057D01*
X177291904Y-22379819D02*
X177291904Y-21379819D01*
X177291904Y-21856009D02*
X176720476Y-21856009D01*
X176720476Y-22379819D02*
X176720476Y-21379819D01*
X175815714Y-21713152D02*
X175815714Y-22379819D01*
X176053809Y-21332200D02*
X176291904Y-22046485D01*
X176291904Y-22046485D02*
X175672857Y-22046485D01*
X11076902Y-33569819D02*
X11410235Y-33093628D01*
X11648330Y-33569819D02*
X11648330Y-32569819D01*
X11648330Y-32569819D02*
X11267378Y-32569819D01*
X11267378Y-32569819D02*
X11172140Y-32617438D01*
X11172140Y-32617438D02*
X11124521Y-32665057D01*
X11124521Y-32665057D02*
X11076902Y-32760295D01*
X11076902Y-32760295D02*
X11076902Y-32903152D01*
X11076902Y-32903152D02*
X11124521Y-32998390D01*
X11124521Y-32998390D02*
X11172140Y-33046009D01*
X11172140Y-33046009D02*
X11267378Y-33093628D01*
X11267378Y-33093628D02*
X11648330Y-33093628D01*
X10695949Y-32665057D02*
X10648330Y-32617438D01*
X10648330Y-32617438D02*
X10553092Y-32569819D01*
X10553092Y-32569819D02*
X10314997Y-32569819D01*
X10314997Y-32569819D02*
X10219759Y-32617438D01*
X10219759Y-32617438D02*
X10172140Y-32665057D01*
X10172140Y-32665057D02*
X10124521Y-32760295D01*
X10124521Y-32760295D02*
X10124521Y-32855533D01*
X10124521Y-32855533D02*
X10172140Y-32998390D01*
X10172140Y-32998390D02*
X10743568Y-33569819D01*
X10743568Y-33569819D02*
X10124521Y-33569819D01*
X29083093Y-68004580D02*
X29130712Y-68052200D01*
X29130712Y-68052200D02*
X29273569Y-68099819D01*
X29273569Y-68099819D02*
X29368807Y-68099819D01*
X29368807Y-68099819D02*
X29511664Y-68052200D01*
X29511664Y-68052200D02*
X29606902Y-67956961D01*
X29606902Y-67956961D02*
X29654521Y-67861723D01*
X29654521Y-67861723D02*
X29702140Y-67671247D01*
X29702140Y-67671247D02*
X29702140Y-67528390D01*
X29702140Y-67528390D02*
X29654521Y-67337914D01*
X29654521Y-67337914D02*
X29606902Y-67242676D01*
X29606902Y-67242676D02*
X29511664Y-67147438D01*
X29511664Y-67147438D02*
X29368807Y-67099819D01*
X29368807Y-67099819D02*
X29273569Y-67099819D01*
X29273569Y-67099819D02*
X29130712Y-67147438D01*
X29130712Y-67147438D02*
X29083093Y-67195057D01*
X28130712Y-68099819D02*
X28702140Y-68099819D01*
X28416426Y-68099819D02*
X28416426Y-67099819D01*
X28416426Y-67099819D02*
X28511664Y-67242676D01*
X28511664Y-67242676D02*
X28606902Y-67337914D01*
X28606902Y-67337914D02*
X28702140Y-67385533D01*
X27511664Y-67099819D02*
X27416426Y-67099819D01*
X27416426Y-67099819D02*
X27321188Y-67147438D01*
X27321188Y-67147438D02*
X27273569Y-67195057D01*
X27273569Y-67195057D02*
X27225950Y-67290295D01*
X27225950Y-67290295D02*
X27178331Y-67480771D01*
X27178331Y-67480771D02*
X27178331Y-67718866D01*
X27178331Y-67718866D02*
X27225950Y-67909342D01*
X27225950Y-67909342D02*
X27273569Y-68004580D01*
X27273569Y-68004580D02*
X27321188Y-68052200D01*
X27321188Y-68052200D02*
X27416426Y-68099819D01*
X27416426Y-68099819D02*
X27511664Y-68099819D01*
X27511664Y-68099819D02*
X27606902Y-68052200D01*
X27606902Y-68052200D02*
X27654521Y-68004580D01*
X27654521Y-68004580D02*
X27702140Y-67909342D01*
X27702140Y-67909342D02*
X27749759Y-67718866D01*
X27749759Y-67718866D02*
X27749759Y-67480771D01*
X27749759Y-67480771D02*
X27702140Y-67290295D01*
X27702140Y-67290295D02*
X27654521Y-67195057D01*
X27654521Y-67195057D02*
X27606902Y-67147438D01*
X27606902Y-67147438D02*
X27511664Y-67099819D01*
X144633333Y-7354819D02*
X144633333Y-8069104D01*
X144633333Y-8069104D02*
X144680952Y-8211961D01*
X144680952Y-8211961D02*
X144776190Y-8307200D01*
X144776190Y-8307200D02*
X144919047Y-8354819D01*
X144919047Y-8354819D02*
X145014285Y-8354819D01*
X143633333Y-8354819D02*
X144204761Y-8354819D01*
X143919047Y-8354819D02*
X143919047Y-7354819D01*
X143919047Y-7354819D02*
X144014285Y-7497676D01*
X144014285Y-7497676D02*
X144109523Y-7592914D01*
X144109523Y-7592914D02*
X144204761Y-7640533D01*
X11076902Y-39539819D02*
X11410235Y-39063628D01*
X11648330Y-39539819D02*
X11648330Y-38539819D01*
X11648330Y-38539819D02*
X11267378Y-38539819D01*
X11267378Y-38539819D02*
X11172140Y-38587438D01*
X11172140Y-38587438D02*
X11124521Y-38635057D01*
X11124521Y-38635057D02*
X11076902Y-38730295D01*
X11076902Y-38730295D02*
X11076902Y-38873152D01*
X11076902Y-38873152D02*
X11124521Y-38968390D01*
X11124521Y-38968390D02*
X11172140Y-39016009D01*
X11172140Y-39016009D02*
X11267378Y-39063628D01*
X11267378Y-39063628D02*
X11648330Y-39063628D01*
X10172140Y-38539819D02*
X10648330Y-38539819D01*
X10648330Y-38539819D02*
X10695949Y-39016009D01*
X10695949Y-39016009D02*
X10648330Y-38968390D01*
X10648330Y-38968390D02*
X10553092Y-38920771D01*
X10553092Y-38920771D02*
X10314997Y-38920771D01*
X10314997Y-38920771D02*
X10219759Y-38968390D01*
X10219759Y-38968390D02*
X10172140Y-39016009D01*
X10172140Y-39016009D02*
X10124521Y-39111247D01*
X10124521Y-39111247D02*
X10124521Y-39349342D01*
X10124521Y-39349342D02*
X10172140Y-39444580D01*
X10172140Y-39444580D02*
X10219759Y-39492200D01*
X10219759Y-39492200D02*
X10314997Y-39539819D01*
X10314997Y-39539819D02*
X10553092Y-39539819D01*
X10553092Y-39539819D02*
X10648330Y-39492200D01*
X10648330Y-39492200D02*
X10695949Y-39444580D01*
X139904819Y-72460714D02*
X138904819Y-72460714D01*
X138904819Y-72460714D02*
X138904819Y-72698809D01*
X138904819Y-72698809D02*
X138952438Y-72841666D01*
X138952438Y-72841666D02*
X139047676Y-72936904D01*
X139047676Y-72936904D02*
X139142914Y-72984523D01*
X139142914Y-72984523D02*
X139333390Y-73032142D01*
X139333390Y-73032142D02*
X139476247Y-73032142D01*
X139476247Y-73032142D02*
X139666723Y-72984523D01*
X139666723Y-72984523D02*
X139761961Y-72936904D01*
X139761961Y-72936904D02*
X139857200Y-72841666D01*
X139857200Y-72841666D02*
X139904819Y-72698809D01*
X139904819Y-72698809D02*
X139904819Y-72460714D01*
X139904819Y-73984523D02*
X139904819Y-73413095D01*
X139904819Y-73698809D02*
X138904819Y-73698809D01*
X138904819Y-73698809D02*
X139047676Y-73603571D01*
X139047676Y-73603571D02*
X139142914Y-73508333D01*
X139142914Y-73508333D02*
X139190533Y-73413095D01*
X139238152Y-74841666D02*
X139904819Y-74841666D01*
X138857200Y-74603571D02*
X139571485Y-74365476D01*
X139571485Y-74365476D02*
X139571485Y-74984523D01*
X31476902Y-66034580D02*
X31524521Y-66082200D01*
X31524521Y-66082200D02*
X31667378Y-66129819D01*
X31667378Y-66129819D02*
X31762616Y-66129819D01*
X31762616Y-66129819D02*
X31905473Y-66082200D01*
X31905473Y-66082200D02*
X32000711Y-65986961D01*
X32000711Y-65986961D02*
X32048330Y-65891723D01*
X32048330Y-65891723D02*
X32095949Y-65701247D01*
X32095949Y-65701247D02*
X32095949Y-65558390D01*
X32095949Y-65558390D02*
X32048330Y-65367914D01*
X32048330Y-65367914D02*
X32000711Y-65272676D01*
X32000711Y-65272676D02*
X31905473Y-65177438D01*
X31905473Y-65177438D02*
X31762616Y-65129819D01*
X31762616Y-65129819D02*
X31667378Y-65129819D01*
X31667378Y-65129819D02*
X31524521Y-65177438D01*
X31524521Y-65177438D02*
X31476902Y-65225057D01*
X31143568Y-65129819D02*
X30524521Y-65129819D01*
X30524521Y-65129819D02*
X30857854Y-65510771D01*
X30857854Y-65510771D02*
X30714997Y-65510771D01*
X30714997Y-65510771D02*
X30619759Y-65558390D01*
X30619759Y-65558390D02*
X30572140Y-65606009D01*
X30572140Y-65606009D02*
X30524521Y-65701247D01*
X30524521Y-65701247D02*
X30524521Y-65939342D01*
X30524521Y-65939342D02*
X30572140Y-66034580D01*
X30572140Y-66034580D02*
X30619759Y-66082200D01*
X30619759Y-66082200D02*
X30714997Y-66129819D01*
X30714997Y-66129819D02*
X31000711Y-66129819D01*
X31000711Y-66129819D02*
X31095949Y-66082200D01*
X31095949Y-66082200D02*
X31143568Y-66034580D01*
X178196666Y-60384580D02*
X178244285Y-60432200D01*
X178244285Y-60432200D02*
X178387142Y-60479819D01*
X178387142Y-60479819D02*
X178482380Y-60479819D01*
X178482380Y-60479819D02*
X178625237Y-60432200D01*
X178625237Y-60432200D02*
X178720475Y-60336961D01*
X178720475Y-60336961D02*
X178768094Y-60241723D01*
X178768094Y-60241723D02*
X178815713Y-60051247D01*
X178815713Y-60051247D02*
X178815713Y-59908390D01*
X178815713Y-59908390D02*
X178768094Y-59717914D01*
X178768094Y-59717914D02*
X178720475Y-59622676D01*
X178720475Y-59622676D02*
X178625237Y-59527438D01*
X178625237Y-59527438D02*
X178482380Y-59479819D01*
X178482380Y-59479819D02*
X178387142Y-59479819D01*
X178387142Y-59479819D02*
X178244285Y-59527438D01*
X178244285Y-59527438D02*
X178196666Y-59575057D01*
X177768094Y-60479819D02*
X177768094Y-59479819D01*
X177768094Y-59956009D02*
X177196666Y-59956009D01*
X177196666Y-60479819D02*
X177196666Y-59479819D01*
X176196666Y-60479819D02*
X176768094Y-60479819D01*
X176482380Y-60479819D02*
X176482380Y-59479819D01*
X176482380Y-59479819D02*
X176577618Y-59622676D01*
X176577618Y-59622676D02*
X176672856Y-59717914D01*
X176672856Y-59717914D02*
X176768094Y-59765533D01*
X175815713Y-59575057D02*
X175768094Y-59527438D01*
X175768094Y-59527438D02*
X175672856Y-59479819D01*
X175672856Y-59479819D02*
X175434761Y-59479819D01*
X175434761Y-59479819D02*
X175339523Y-59527438D01*
X175339523Y-59527438D02*
X175291904Y-59575057D01*
X175291904Y-59575057D02*
X175244285Y-59670295D01*
X175244285Y-59670295D02*
X175244285Y-59765533D01*
X175244285Y-59765533D02*
X175291904Y-59908390D01*
X175291904Y-59908390D02*
X175863332Y-60479819D01*
X175863332Y-60479819D02*
X175244285Y-60479819D01*
X12766902Y-67074580D02*
X12814521Y-67122200D01*
X12814521Y-67122200D02*
X12957378Y-67169819D01*
X12957378Y-67169819D02*
X13052616Y-67169819D01*
X13052616Y-67169819D02*
X13195473Y-67122200D01*
X13195473Y-67122200D02*
X13290711Y-67026961D01*
X13290711Y-67026961D02*
X13338330Y-66931723D01*
X13338330Y-66931723D02*
X13385949Y-66741247D01*
X13385949Y-66741247D02*
X13385949Y-66598390D01*
X13385949Y-66598390D02*
X13338330Y-66407914D01*
X13338330Y-66407914D02*
X13290711Y-66312676D01*
X13290711Y-66312676D02*
X13195473Y-66217438D01*
X13195473Y-66217438D02*
X13052616Y-66169819D01*
X13052616Y-66169819D02*
X12957378Y-66169819D01*
X12957378Y-66169819D02*
X12814521Y-66217438D01*
X12814521Y-66217438D02*
X12766902Y-66265057D01*
X11909759Y-66503152D02*
X11909759Y-67169819D01*
X12147854Y-66122200D02*
X12385949Y-66836485D01*
X12385949Y-66836485D02*
X11766902Y-66836485D01*
X26213093Y-64064580D02*
X26260712Y-64112200D01*
X26260712Y-64112200D02*
X26403569Y-64159819D01*
X26403569Y-64159819D02*
X26498807Y-64159819D01*
X26498807Y-64159819D02*
X26641664Y-64112200D01*
X26641664Y-64112200D02*
X26736902Y-64016961D01*
X26736902Y-64016961D02*
X26784521Y-63921723D01*
X26784521Y-63921723D02*
X26832140Y-63731247D01*
X26832140Y-63731247D02*
X26832140Y-63588390D01*
X26832140Y-63588390D02*
X26784521Y-63397914D01*
X26784521Y-63397914D02*
X26736902Y-63302676D01*
X26736902Y-63302676D02*
X26641664Y-63207438D01*
X26641664Y-63207438D02*
X26498807Y-63159819D01*
X26498807Y-63159819D02*
X26403569Y-63159819D01*
X26403569Y-63159819D02*
X26260712Y-63207438D01*
X26260712Y-63207438D02*
X26213093Y-63255057D01*
X25260712Y-64159819D02*
X25832140Y-64159819D01*
X25546426Y-64159819D02*
X25546426Y-63159819D01*
X25546426Y-63159819D02*
X25641664Y-63302676D01*
X25641664Y-63302676D02*
X25736902Y-63397914D01*
X25736902Y-63397914D02*
X25832140Y-63445533D01*
X24927378Y-63159819D02*
X24308331Y-63159819D01*
X24308331Y-63159819D02*
X24641664Y-63540771D01*
X24641664Y-63540771D02*
X24498807Y-63540771D01*
X24498807Y-63540771D02*
X24403569Y-63588390D01*
X24403569Y-63588390D02*
X24355950Y-63636009D01*
X24355950Y-63636009D02*
X24308331Y-63731247D01*
X24308331Y-63731247D02*
X24308331Y-63969342D01*
X24308331Y-63969342D02*
X24355950Y-64064580D01*
X24355950Y-64064580D02*
X24403569Y-64112200D01*
X24403569Y-64112200D02*
X24498807Y-64159819D01*
X24498807Y-64159819D02*
X24784521Y-64159819D01*
X24784521Y-64159819D02*
X24879759Y-64112200D01*
X24879759Y-64112200D02*
X24927378Y-64064580D01*
X31476902Y-71944580D02*
X31524521Y-71992200D01*
X31524521Y-71992200D02*
X31667378Y-72039819D01*
X31667378Y-72039819D02*
X31762616Y-72039819D01*
X31762616Y-72039819D02*
X31905473Y-71992200D01*
X31905473Y-71992200D02*
X32000711Y-71896961D01*
X32000711Y-71896961D02*
X32048330Y-71801723D01*
X32048330Y-71801723D02*
X32095949Y-71611247D01*
X32095949Y-71611247D02*
X32095949Y-71468390D01*
X32095949Y-71468390D02*
X32048330Y-71277914D01*
X32048330Y-71277914D02*
X32000711Y-71182676D01*
X32000711Y-71182676D02*
X31905473Y-71087438D01*
X31905473Y-71087438D02*
X31762616Y-71039819D01*
X31762616Y-71039819D02*
X31667378Y-71039819D01*
X31667378Y-71039819D02*
X31524521Y-71087438D01*
X31524521Y-71087438D02*
X31476902Y-71135057D01*
X31143568Y-71039819D02*
X30476902Y-71039819D01*
X30476902Y-71039819D02*
X30905473Y-72039819D01*
X178004819Y-53410714D02*
X177004819Y-53410714D01*
X177004819Y-53410714D02*
X177004819Y-53648809D01*
X177004819Y-53648809D02*
X177052438Y-53791666D01*
X177052438Y-53791666D02*
X177147676Y-53886904D01*
X177147676Y-53886904D02*
X177242914Y-53934523D01*
X177242914Y-53934523D02*
X177433390Y-53982142D01*
X177433390Y-53982142D02*
X177576247Y-53982142D01*
X177576247Y-53982142D02*
X177766723Y-53934523D01*
X177766723Y-53934523D02*
X177861961Y-53886904D01*
X177861961Y-53886904D02*
X177957200Y-53791666D01*
X177957200Y-53791666D02*
X178004819Y-53648809D01*
X178004819Y-53648809D02*
X178004819Y-53410714D01*
X178004819Y-54934523D02*
X178004819Y-54363095D01*
X178004819Y-54648809D02*
X177004819Y-54648809D01*
X177004819Y-54648809D02*
X177147676Y-54553571D01*
X177147676Y-54553571D02*
X177242914Y-54458333D01*
X177242914Y-54458333D02*
X177290533Y-54363095D01*
X177100057Y-55315476D02*
X177052438Y-55363095D01*
X177052438Y-55363095D02*
X177004819Y-55458333D01*
X177004819Y-55458333D02*
X177004819Y-55696428D01*
X177004819Y-55696428D02*
X177052438Y-55791666D01*
X177052438Y-55791666D02*
X177100057Y-55839285D01*
X177100057Y-55839285D02*
X177195295Y-55886904D01*
X177195295Y-55886904D02*
X177290533Y-55886904D01*
X177290533Y-55886904D02*
X177433390Y-55839285D01*
X177433390Y-55839285D02*
X178004819Y-55267857D01*
X178004819Y-55267857D02*
X178004819Y-55886904D01*
X8383569Y-63329819D02*
X8383569Y-64044104D01*
X8383569Y-64044104D02*
X8431188Y-64186961D01*
X8431188Y-64186961D02*
X8526426Y-64282200D01*
X8526426Y-64282200D02*
X8669283Y-64329819D01*
X8669283Y-64329819D02*
X8764521Y-64329819D01*
X7954997Y-63425057D02*
X7907378Y-63377438D01*
X7907378Y-63377438D02*
X7812140Y-63329819D01*
X7812140Y-63329819D02*
X7574045Y-63329819D01*
X7574045Y-63329819D02*
X7478807Y-63377438D01*
X7478807Y-63377438D02*
X7431188Y-63425057D01*
X7431188Y-63425057D02*
X7383569Y-63520295D01*
X7383569Y-63520295D02*
X7383569Y-63615533D01*
X7383569Y-63615533D02*
X7431188Y-63758390D01*
X7431188Y-63758390D02*
X8002616Y-64329819D01*
X8002616Y-64329819D02*
X7383569Y-64329819D01*
X120854819Y-72460714D02*
X119854819Y-72460714D01*
X119854819Y-72460714D02*
X119854819Y-72698809D01*
X119854819Y-72698809D02*
X119902438Y-72841666D01*
X119902438Y-72841666D02*
X119997676Y-72936904D01*
X119997676Y-72936904D02*
X120092914Y-72984523D01*
X120092914Y-72984523D02*
X120283390Y-73032142D01*
X120283390Y-73032142D02*
X120426247Y-73032142D01*
X120426247Y-73032142D02*
X120616723Y-72984523D01*
X120616723Y-72984523D02*
X120711961Y-72936904D01*
X120711961Y-72936904D02*
X120807200Y-72841666D01*
X120807200Y-72841666D02*
X120854819Y-72698809D01*
X120854819Y-72698809D02*
X120854819Y-72460714D01*
X120854819Y-73984523D02*
X120854819Y-73413095D01*
X120854819Y-73698809D02*
X119854819Y-73698809D01*
X119854819Y-73698809D02*
X119997676Y-73603571D01*
X119997676Y-73603571D02*
X120092914Y-73508333D01*
X120092914Y-73508333D02*
X120140533Y-73413095D01*
X119854819Y-74317857D02*
X119854819Y-74936904D01*
X119854819Y-74936904D02*
X120235771Y-74603571D01*
X120235771Y-74603571D02*
X120235771Y-74746428D01*
X120235771Y-74746428D02*
X120283390Y-74841666D01*
X120283390Y-74841666D02*
X120331009Y-74889285D01*
X120331009Y-74889285D02*
X120426247Y-74936904D01*
X120426247Y-74936904D02*
X120664342Y-74936904D01*
X120664342Y-74936904D02*
X120759580Y-74889285D01*
X120759580Y-74889285D02*
X120807200Y-74841666D01*
X120807200Y-74841666D02*
X120854819Y-74746428D01*
X120854819Y-74746428D02*
X120854819Y-74460714D01*
X120854819Y-74460714D02*
X120807200Y-74365476D01*
X120807200Y-74365476D02*
X120759580Y-74317857D01*
X11076902Y-35559819D02*
X11410235Y-35083628D01*
X11648330Y-35559819D02*
X11648330Y-34559819D01*
X11648330Y-34559819D02*
X11267378Y-34559819D01*
X11267378Y-34559819D02*
X11172140Y-34607438D01*
X11172140Y-34607438D02*
X11124521Y-34655057D01*
X11124521Y-34655057D02*
X11076902Y-34750295D01*
X11076902Y-34750295D02*
X11076902Y-34893152D01*
X11076902Y-34893152D02*
X11124521Y-34988390D01*
X11124521Y-34988390D02*
X11172140Y-35036009D01*
X11172140Y-35036009D02*
X11267378Y-35083628D01*
X11267378Y-35083628D02*
X11648330Y-35083628D01*
X10743568Y-34559819D02*
X10124521Y-34559819D01*
X10124521Y-34559819D02*
X10457854Y-34940771D01*
X10457854Y-34940771D02*
X10314997Y-34940771D01*
X10314997Y-34940771D02*
X10219759Y-34988390D01*
X10219759Y-34988390D02*
X10172140Y-35036009D01*
X10172140Y-35036009D02*
X10124521Y-35131247D01*
X10124521Y-35131247D02*
X10124521Y-35369342D01*
X10124521Y-35369342D02*
X10172140Y-35464580D01*
X10172140Y-35464580D02*
X10219759Y-35512200D01*
X10219759Y-35512200D02*
X10314997Y-35559819D01*
X10314997Y-35559819D02*
X10600711Y-35559819D01*
X10600711Y-35559819D02*
X10695949Y-35512200D01*
X10695949Y-35512200D02*
X10743568Y-35464580D01*
X178004819Y-72460714D02*
X177004819Y-72460714D01*
X177004819Y-72460714D02*
X177004819Y-72698809D01*
X177004819Y-72698809D02*
X177052438Y-72841666D01*
X177052438Y-72841666D02*
X177147676Y-72936904D01*
X177147676Y-72936904D02*
X177242914Y-72984523D01*
X177242914Y-72984523D02*
X177433390Y-73032142D01*
X177433390Y-73032142D02*
X177576247Y-73032142D01*
X177576247Y-73032142D02*
X177766723Y-72984523D01*
X177766723Y-72984523D02*
X177861961Y-72936904D01*
X177861961Y-72936904D02*
X177957200Y-72841666D01*
X177957200Y-72841666D02*
X178004819Y-72698809D01*
X178004819Y-72698809D02*
X178004819Y-72460714D01*
X178004819Y-73984523D02*
X178004819Y-73413095D01*
X178004819Y-73698809D02*
X177004819Y-73698809D01*
X177004819Y-73698809D02*
X177147676Y-73603571D01*
X177147676Y-73603571D02*
X177242914Y-73508333D01*
X177242914Y-73508333D02*
X177290533Y-73413095D01*
X177004819Y-74841666D02*
X177004819Y-74651190D01*
X177004819Y-74651190D02*
X177052438Y-74555952D01*
X177052438Y-74555952D02*
X177100057Y-74508333D01*
X177100057Y-74508333D02*
X177242914Y-74413095D01*
X177242914Y-74413095D02*
X177433390Y-74365476D01*
X177433390Y-74365476D02*
X177814342Y-74365476D01*
X177814342Y-74365476D02*
X177909580Y-74413095D01*
X177909580Y-74413095D02*
X177957200Y-74460714D01*
X177957200Y-74460714D02*
X178004819Y-74555952D01*
X178004819Y-74555952D02*
X178004819Y-74746428D01*
X178004819Y-74746428D02*
X177957200Y-74841666D01*
X177957200Y-74841666D02*
X177909580Y-74889285D01*
X177909580Y-74889285D02*
X177814342Y-74936904D01*
X177814342Y-74936904D02*
X177576247Y-74936904D01*
X177576247Y-74936904D02*
X177481009Y-74889285D01*
X177481009Y-74889285D02*
X177433390Y-74841666D01*
X177433390Y-74841666D02*
X177385771Y-74746428D01*
X177385771Y-74746428D02*
X177385771Y-74555952D01*
X177385771Y-74555952D02*
X177433390Y-74460714D01*
X177433390Y-74460714D02*
X177481009Y-74413095D01*
X177481009Y-74413095D02*
X177576247Y-74365476D01*
X28606902Y-64064580D02*
X28654521Y-64112200D01*
X28654521Y-64112200D02*
X28797378Y-64159819D01*
X28797378Y-64159819D02*
X28892616Y-64159819D01*
X28892616Y-64159819D02*
X29035473Y-64112200D01*
X29035473Y-64112200D02*
X29130711Y-64016961D01*
X29130711Y-64016961D02*
X29178330Y-63921723D01*
X29178330Y-63921723D02*
X29225949Y-63731247D01*
X29225949Y-63731247D02*
X29225949Y-63588390D01*
X29225949Y-63588390D02*
X29178330Y-63397914D01*
X29178330Y-63397914D02*
X29130711Y-63302676D01*
X29130711Y-63302676D02*
X29035473Y-63207438D01*
X29035473Y-63207438D02*
X28892616Y-63159819D01*
X28892616Y-63159819D02*
X28797378Y-63159819D01*
X28797378Y-63159819D02*
X28654521Y-63207438D01*
X28654521Y-63207438D02*
X28606902Y-63255057D01*
X28035473Y-63588390D02*
X28130711Y-63540771D01*
X28130711Y-63540771D02*
X28178330Y-63493152D01*
X28178330Y-63493152D02*
X28225949Y-63397914D01*
X28225949Y-63397914D02*
X28225949Y-63350295D01*
X28225949Y-63350295D02*
X28178330Y-63255057D01*
X28178330Y-63255057D02*
X28130711Y-63207438D01*
X28130711Y-63207438D02*
X28035473Y-63159819D01*
X28035473Y-63159819D02*
X27844997Y-63159819D01*
X27844997Y-63159819D02*
X27749759Y-63207438D01*
X27749759Y-63207438D02*
X27702140Y-63255057D01*
X27702140Y-63255057D02*
X27654521Y-63350295D01*
X27654521Y-63350295D02*
X27654521Y-63397914D01*
X27654521Y-63397914D02*
X27702140Y-63493152D01*
X27702140Y-63493152D02*
X27749759Y-63540771D01*
X27749759Y-63540771D02*
X27844997Y-63588390D01*
X27844997Y-63588390D02*
X28035473Y-63588390D01*
X28035473Y-63588390D02*
X28130711Y-63636009D01*
X28130711Y-63636009D02*
X28178330Y-63683628D01*
X28178330Y-63683628D02*
X28225949Y-63778866D01*
X28225949Y-63778866D02*
X28225949Y-63969342D01*
X28225949Y-63969342D02*
X28178330Y-64064580D01*
X28178330Y-64064580D02*
X28130711Y-64112200D01*
X28130711Y-64112200D02*
X28035473Y-64159819D01*
X28035473Y-64159819D02*
X27844997Y-64159819D01*
X27844997Y-64159819D02*
X27749759Y-64112200D01*
X27749759Y-64112200D02*
X27702140Y-64064580D01*
X27702140Y-64064580D02*
X27654521Y-63969342D01*
X27654521Y-63969342D02*
X27654521Y-63778866D01*
X27654521Y-63778866D02*
X27702140Y-63683628D01*
X27702140Y-63683628D02*
X27749759Y-63636009D01*
X27749759Y-63636009D02*
X27844997Y-63588390D01*
X48532140Y-63159819D02*
X48532140Y-63969342D01*
X48532140Y-63969342D02*
X48484521Y-64064580D01*
X48484521Y-64064580D02*
X48436902Y-64112200D01*
X48436902Y-64112200D02*
X48341664Y-64159819D01*
X48341664Y-64159819D02*
X48151188Y-64159819D01*
X48151188Y-64159819D02*
X48055950Y-64112200D01*
X48055950Y-64112200D02*
X48008331Y-64064580D01*
X48008331Y-64064580D02*
X47960712Y-63969342D01*
X47960712Y-63969342D02*
X47960712Y-63159819D01*
X47532140Y-63255057D02*
X47484521Y-63207438D01*
X47484521Y-63207438D02*
X47389283Y-63159819D01*
X47389283Y-63159819D02*
X47151188Y-63159819D01*
X47151188Y-63159819D02*
X47055950Y-63207438D01*
X47055950Y-63207438D02*
X47008331Y-63255057D01*
X47008331Y-63255057D02*
X46960712Y-63350295D01*
X46960712Y-63350295D02*
X46960712Y-63445533D01*
X46960712Y-63445533D02*
X47008331Y-63588390D01*
X47008331Y-63588390D02*
X47579759Y-64159819D01*
X47579759Y-64159819D02*
X46960712Y-64159819D01*
X31476902Y-68004580D02*
X31524521Y-68052200D01*
X31524521Y-68052200D02*
X31667378Y-68099819D01*
X31667378Y-68099819D02*
X31762616Y-68099819D01*
X31762616Y-68099819D02*
X31905473Y-68052200D01*
X31905473Y-68052200D02*
X32000711Y-67956961D01*
X32000711Y-67956961D02*
X32048330Y-67861723D01*
X32048330Y-67861723D02*
X32095949Y-67671247D01*
X32095949Y-67671247D02*
X32095949Y-67528390D01*
X32095949Y-67528390D02*
X32048330Y-67337914D01*
X32048330Y-67337914D02*
X32000711Y-67242676D01*
X32000711Y-67242676D02*
X31905473Y-67147438D01*
X31905473Y-67147438D02*
X31762616Y-67099819D01*
X31762616Y-67099819D02*
X31667378Y-67099819D01*
X31667378Y-67099819D02*
X31524521Y-67147438D01*
X31524521Y-67147438D02*
X31476902Y-67195057D01*
X30572140Y-67099819D02*
X31048330Y-67099819D01*
X31048330Y-67099819D02*
X31095949Y-67576009D01*
X31095949Y-67576009D02*
X31048330Y-67528390D01*
X31048330Y-67528390D02*
X30953092Y-67480771D01*
X30953092Y-67480771D02*
X30714997Y-67480771D01*
X30714997Y-67480771D02*
X30619759Y-67528390D01*
X30619759Y-67528390D02*
X30572140Y-67576009D01*
X30572140Y-67576009D02*
X30524521Y-67671247D01*
X30524521Y-67671247D02*
X30524521Y-67909342D01*
X30524521Y-67909342D02*
X30572140Y-68004580D01*
X30572140Y-68004580D02*
X30619759Y-68052200D01*
X30619759Y-68052200D02*
X30714997Y-68099819D01*
X30714997Y-68099819D02*
X30953092Y-68099819D01*
X30953092Y-68099819D02*
X31048330Y-68052200D01*
X31048330Y-68052200D02*
X31095949Y-68004580D01*
X11076902Y-43519819D02*
X11410235Y-43043628D01*
X11648330Y-43519819D02*
X11648330Y-42519819D01*
X11648330Y-42519819D02*
X11267378Y-42519819D01*
X11267378Y-42519819D02*
X11172140Y-42567438D01*
X11172140Y-42567438D02*
X11124521Y-42615057D01*
X11124521Y-42615057D02*
X11076902Y-42710295D01*
X11076902Y-42710295D02*
X11076902Y-42853152D01*
X11076902Y-42853152D02*
X11124521Y-42948390D01*
X11124521Y-42948390D02*
X11172140Y-42996009D01*
X11172140Y-42996009D02*
X11267378Y-43043628D01*
X11267378Y-43043628D02*
X11648330Y-43043628D01*
X10743568Y-42519819D02*
X10076902Y-42519819D01*
X10076902Y-42519819D02*
X10505473Y-43519819D01*
X11076902Y-37549819D02*
X11410235Y-37073628D01*
X11648330Y-37549819D02*
X11648330Y-36549819D01*
X11648330Y-36549819D02*
X11267378Y-36549819D01*
X11267378Y-36549819D02*
X11172140Y-36597438D01*
X11172140Y-36597438D02*
X11124521Y-36645057D01*
X11124521Y-36645057D02*
X11076902Y-36740295D01*
X11076902Y-36740295D02*
X11076902Y-36883152D01*
X11076902Y-36883152D02*
X11124521Y-36978390D01*
X11124521Y-36978390D02*
X11172140Y-37026009D01*
X11172140Y-37026009D02*
X11267378Y-37073628D01*
X11267378Y-37073628D02*
X11648330Y-37073628D01*
X10219759Y-36883152D02*
X10219759Y-37549819D01*
X10457854Y-36502200D02*
X10695949Y-37216485D01*
X10695949Y-37216485D02*
X10076902Y-37216485D01*
X11076902Y-41529819D02*
X11410235Y-41053628D01*
X11648330Y-41529819D02*
X11648330Y-40529819D01*
X11648330Y-40529819D02*
X11267378Y-40529819D01*
X11267378Y-40529819D02*
X11172140Y-40577438D01*
X11172140Y-40577438D02*
X11124521Y-40625057D01*
X11124521Y-40625057D02*
X11076902Y-40720295D01*
X11076902Y-40720295D02*
X11076902Y-40863152D01*
X11076902Y-40863152D02*
X11124521Y-40958390D01*
X11124521Y-40958390D02*
X11172140Y-41006009D01*
X11172140Y-41006009D02*
X11267378Y-41053628D01*
X11267378Y-41053628D02*
X11648330Y-41053628D01*
X10219759Y-40529819D02*
X10410235Y-40529819D01*
X10410235Y-40529819D02*
X10505473Y-40577438D01*
X10505473Y-40577438D02*
X10553092Y-40625057D01*
X10553092Y-40625057D02*
X10648330Y-40767914D01*
X10648330Y-40767914D02*
X10695949Y-40958390D01*
X10695949Y-40958390D02*
X10695949Y-41339342D01*
X10695949Y-41339342D02*
X10648330Y-41434580D01*
X10648330Y-41434580D02*
X10600711Y-41482200D01*
X10600711Y-41482200D02*
X10505473Y-41529819D01*
X10505473Y-41529819D02*
X10314997Y-41529819D01*
X10314997Y-41529819D02*
X10219759Y-41482200D01*
X10219759Y-41482200D02*
X10172140Y-41434580D01*
X10172140Y-41434580D02*
X10124521Y-41339342D01*
X10124521Y-41339342D02*
X10124521Y-41101247D01*
X10124521Y-41101247D02*
X10172140Y-41006009D01*
X10172140Y-41006009D02*
X10219759Y-40958390D01*
X10219759Y-40958390D02*
X10314997Y-40910771D01*
X10314997Y-40910771D02*
X10505473Y-40910771D01*
X10505473Y-40910771D02*
X10600711Y-40958390D01*
X10600711Y-40958390D02*
X10648330Y-41006009D01*
X10648330Y-41006009D02*
X10695949Y-41101247D01*
X11076902Y-31579819D02*
X11410235Y-31103628D01*
X11648330Y-31579819D02*
X11648330Y-30579819D01*
X11648330Y-30579819D02*
X11267378Y-30579819D01*
X11267378Y-30579819D02*
X11172140Y-30627438D01*
X11172140Y-30627438D02*
X11124521Y-30675057D01*
X11124521Y-30675057D02*
X11076902Y-30770295D01*
X11076902Y-30770295D02*
X11076902Y-30913152D01*
X11076902Y-30913152D02*
X11124521Y-31008390D01*
X11124521Y-31008390D02*
X11172140Y-31056009D01*
X11172140Y-31056009D02*
X11267378Y-31103628D01*
X11267378Y-31103628D02*
X11648330Y-31103628D01*
X10124521Y-31579819D02*
X10695949Y-31579819D01*
X10410235Y-31579819D02*
X10410235Y-30579819D01*
X10410235Y-30579819D02*
X10505473Y-30722676D01*
X10505473Y-30722676D02*
X10600711Y-30817914D01*
X10600711Y-30817914D02*
X10695949Y-30865533D01*
X29083093Y-69974580D02*
X29130712Y-70022200D01*
X29130712Y-70022200D02*
X29273569Y-70069819D01*
X29273569Y-70069819D02*
X29368807Y-70069819D01*
X29368807Y-70069819D02*
X29511664Y-70022200D01*
X29511664Y-70022200D02*
X29606902Y-69926961D01*
X29606902Y-69926961D02*
X29654521Y-69831723D01*
X29654521Y-69831723D02*
X29702140Y-69641247D01*
X29702140Y-69641247D02*
X29702140Y-69498390D01*
X29702140Y-69498390D02*
X29654521Y-69307914D01*
X29654521Y-69307914D02*
X29606902Y-69212676D01*
X29606902Y-69212676D02*
X29511664Y-69117438D01*
X29511664Y-69117438D02*
X29368807Y-69069819D01*
X29368807Y-69069819D02*
X29273569Y-69069819D01*
X29273569Y-69069819D02*
X29130712Y-69117438D01*
X29130712Y-69117438D02*
X29083093Y-69165057D01*
X28130712Y-70069819D02*
X28702140Y-70069819D01*
X28416426Y-70069819D02*
X28416426Y-69069819D01*
X28416426Y-69069819D02*
X28511664Y-69212676D01*
X28511664Y-69212676D02*
X28606902Y-69307914D01*
X28606902Y-69307914D02*
X28702140Y-69355533D01*
X27178331Y-70069819D02*
X27749759Y-70069819D01*
X27464045Y-70069819D02*
X27464045Y-69069819D01*
X27464045Y-69069819D02*
X27559283Y-69212676D01*
X27559283Y-69212676D02*
X27654521Y-69307914D01*
X27654521Y-69307914D02*
X27749759Y-69355533D01*
X28606902Y-66034580D02*
X28654521Y-66082200D01*
X28654521Y-66082200D02*
X28797378Y-66129819D01*
X28797378Y-66129819D02*
X28892616Y-66129819D01*
X28892616Y-66129819D02*
X29035473Y-66082200D01*
X29035473Y-66082200D02*
X29130711Y-65986961D01*
X29130711Y-65986961D02*
X29178330Y-65891723D01*
X29178330Y-65891723D02*
X29225949Y-65701247D01*
X29225949Y-65701247D02*
X29225949Y-65558390D01*
X29225949Y-65558390D02*
X29178330Y-65367914D01*
X29178330Y-65367914D02*
X29130711Y-65272676D01*
X29130711Y-65272676D02*
X29035473Y-65177438D01*
X29035473Y-65177438D02*
X28892616Y-65129819D01*
X28892616Y-65129819D02*
X28797378Y-65129819D01*
X28797378Y-65129819D02*
X28654521Y-65177438D01*
X28654521Y-65177438D02*
X28606902Y-65225057D01*
X28130711Y-66129819D02*
X27940235Y-66129819D01*
X27940235Y-66129819D02*
X27844997Y-66082200D01*
X27844997Y-66082200D02*
X27797378Y-66034580D01*
X27797378Y-66034580D02*
X27702140Y-65891723D01*
X27702140Y-65891723D02*
X27654521Y-65701247D01*
X27654521Y-65701247D02*
X27654521Y-65320295D01*
X27654521Y-65320295D02*
X27702140Y-65225057D01*
X27702140Y-65225057D02*
X27749759Y-65177438D01*
X27749759Y-65177438D02*
X27844997Y-65129819D01*
X27844997Y-65129819D02*
X28035473Y-65129819D01*
X28035473Y-65129819D02*
X28130711Y-65177438D01*
X28130711Y-65177438D02*
X28178330Y-65225057D01*
X28178330Y-65225057D02*
X28225949Y-65320295D01*
X28225949Y-65320295D02*
X28225949Y-65558390D01*
X28225949Y-65558390D02*
X28178330Y-65653628D01*
X28178330Y-65653628D02*
X28130711Y-65701247D01*
X28130711Y-65701247D02*
X28035473Y-65748866D01*
X28035473Y-65748866D02*
X27844997Y-65748866D01*
X27844997Y-65748866D02*
X27749759Y-65701247D01*
X27749759Y-65701247D02*
X27702140Y-65653628D01*
X27702140Y-65653628D02*
X27654521Y-65558390D01*
X139904819Y-34836905D02*
X138904819Y-34836905D01*
X138904819Y-34836905D02*
X138904819Y-35075000D01*
X138904819Y-35075000D02*
X138952438Y-35217857D01*
X138952438Y-35217857D02*
X139047676Y-35313095D01*
X139047676Y-35313095D02*
X139142914Y-35360714D01*
X139142914Y-35360714D02*
X139333390Y-35408333D01*
X139333390Y-35408333D02*
X139476247Y-35408333D01*
X139476247Y-35408333D02*
X139666723Y-35360714D01*
X139666723Y-35360714D02*
X139761961Y-35313095D01*
X139761961Y-35313095D02*
X139857200Y-35217857D01*
X139857200Y-35217857D02*
X139904819Y-35075000D01*
X139904819Y-35075000D02*
X139904819Y-34836905D01*
X138904819Y-36265476D02*
X138904819Y-36075000D01*
X138904819Y-36075000D02*
X138952438Y-35979762D01*
X138952438Y-35979762D02*
X139000057Y-35932143D01*
X139000057Y-35932143D02*
X139142914Y-35836905D01*
X139142914Y-35836905D02*
X139333390Y-35789286D01*
X139333390Y-35789286D02*
X139714342Y-35789286D01*
X139714342Y-35789286D02*
X139809580Y-35836905D01*
X139809580Y-35836905D02*
X139857200Y-35884524D01*
X139857200Y-35884524D02*
X139904819Y-35979762D01*
X139904819Y-35979762D02*
X139904819Y-36170238D01*
X139904819Y-36170238D02*
X139857200Y-36265476D01*
X139857200Y-36265476D02*
X139809580Y-36313095D01*
X139809580Y-36313095D02*
X139714342Y-36360714D01*
X139714342Y-36360714D02*
X139476247Y-36360714D01*
X139476247Y-36360714D02*
X139381009Y-36313095D01*
X139381009Y-36313095D02*
X139333390Y-36265476D01*
X139333390Y-36265476D02*
X139285771Y-36170238D01*
X139285771Y-36170238D02*
X139285771Y-35979762D01*
X139285771Y-35979762D02*
X139333390Y-35884524D01*
X139333390Y-35884524D02*
X139381009Y-35836905D01*
X139381009Y-35836905D02*
X139476247Y-35789286D01*
X158954819Y-53410714D02*
X157954819Y-53410714D01*
X157954819Y-53410714D02*
X157954819Y-53648809D01*
X157954819Y-53648809D02*
X158002438Y-53791666D01*
X158002438Y-53791666D02*
X158097676Y-53886904D01*
X158097676Y-53886904D02*
X158192914Y-53934523D01*
X158192914Y-53934523D02*
X158383390Y-53982142D01*
X158383390Y-53982142D02*
X158526247Y-53982142D01*
X158526247Y-53982142D02*
X158716723Y-53934523D01*
X158716723Y-53934523D02*
X158811961Y-53886904D01*
X158811961Y-53886904D02*
X158907200Y-53791666D01*
X158907200Y-53791666D02*
X158954819Y-53648809D01*
X158954819Y-53648809D02*
X158954819Y-53410714D01*
X158954819Y-54934523D02*
X158954819Y-54363095D01*
X158954819Y-54648809D02*
X157954819Y-54648809D01*
X157954819Y-54648809D02*
X158097676Y-54553571D01*
X158097676Y-54553571D02*
X158192914Y-54458333D01*
X158192914Y-54458333D02*
X158240533Y-54363095D01*
X158954819Y-55886904D02*
X158954819Y-55315476D01*
X158954819Y-55601190D02*
X157954819Y-55601190D01*
X157954819Y-55601190D02*
X158097676Y-55505952D01*
X158097676Y-55505952D02*
X158192914Y-55410714D01*
X158192914Y-55410714D02*
X158240533Y-55315476D01*
X31476902Y-64064580D02*
X31524521Y-64112200D01*
X31524521Y-64112200D02*
X31667378Y-64159819D01*
X31667378Y-64159819D02*
X31762616Y-64159819D01*
X31762616Y-64159819D02*
X31905473Y-64112200D01*
X31905473Y-64112200D02*
X32000711Y-64016961D01*
X32000711Y-64016961D02*
X32048330Y-63921723D01*
X32048330Y-63921723D02*
X32095949Y-63731247D01*
X32095949Y-63731247D02*
X32095949Y-63588390D01*
X32095949Y-63588390D02*
X32048330Y-63397914D01*
X32048330Y-63397914D02*
X32000711Y-63302676D01*
X32000711Y-63302676D02*
X31905473Y-63207438D01*
X31905473Y-63207438D02*
X31762616Y-63159819D01*
X31762616Y-63159819D02*
X31667378Y-63159819D01*
X31667378Y-63159819D02*
X31524521Y-63207438D01*
X31524521Y-63207438D02*
X31476902Y-63255057D01*
X31095949Y-63255057D02*
X31048330Y-63207438D01*
X31048330Y-63207438D02*
X30953092Y-63159819D01*
X30953092Y-63159819D02*
X30714997Y-63159819D01*
X30714997Y-63159819D02*
X30619759Y-63207438D01*
X30619759Y-63207438D02*
X30572140Y-63255057D01*
X30572140Y-63255057D02*
X30524521Y-63350295D01*
X30524521Y-63350295D02*
X30524521Y-63445533D01*
X30524521Y-63445533D02*
X30572140Y-63588390D01*
X30572140Y-63588390D02*
X31143568Y-64159819D01*
X31143568Y-64159819D02*
X30524521Y-64159819D01*
X29083093Y-71944580D02*
X29130712Y-71992200D01*
X29130712Y-71992200D02*
X29273569Y-72039819D01*
X29273569Y-72039819D02*
X29368807Y-72039819D01*
X29368807Y-72039819D02*
X29511664Y-71992200D01*
X29511664Y-71992200D02*
X29606902Y-71896961D01*
X29606902Y-71896961D02*
X29654521Y-71801723D01*
X29654521Y-71801723D02*
X29702140Y-71611247D01*
X29702140Y-71611247D02*
X29702140Y-71468390D01*
X29702140Y-71468390D02*
X29654521Y-71277914D01*
X29654521Y-71277914D02*
X29606902Y-71182676D01*
X29606902Y-71182676D02*
X29511664Y-71087438D01*
X29511664Y-71087438D02*
X29368807Y-71039819D01*
X29368807Y-71039819D02*
X29273569Y-71039819D01*
X29273569Y-71039819D02*
X29130712Y-71087438D01*
X29130712Y-71087438D02*
X29083093Y-71135057D01*
X28130712Y-72039819D02*
X28702140Y-72039819D01*
X28416426Y-72039819D02*
X28416426Y-71039819D01*
X28416426Y-71039819D02*
X28511664Y-71182676D01*
X28511664Y-71182676D02*
X28606902Y-71277914D01*
X28606902Y-71277914D02*
X28702140Y-71325533D01*
X27749759Y-71135057D02*
X27702140Y-71087438D01*
X27702140Y-71087438D02*
X27606902Y-71039819D01*
X27606902Y-71039819D02*
X27368807Y-71039819D01*
X27368807Y-71039819D02*
X27273569Y-71087438D01*
X27273569Y-71087438D02*
X27225950Y-71135057D01*
X27225950Y-71135057D02*
X27178331Y-71230295D01*
X27178331Y-71230295D02*
X27178331Y-71325533D01*
X27178331Y-71325533D02*
X27225950Y-71468390D01*
X27225950Y-71468390D02*
X27797378Y-72039819D01*
X27797378Y-72039819D02*
X27178331Y-72039819D01*
X159146666Y-79434580D02*
X159194285Y-79482200D01*
X159194285Y-79482200D02*
X159337142Y-79529819D01*
X159337142Y-79529819D02*
X159432380Y-79529819D01*
X159432380Y-79529819D02*
X159575237Y-79482200D01*
X159575237Y-79482200D02*
X159670475Y-79386961D01*
X159670475Y-79386961D02*
X159718094Y-79291723D01*
X159718094Y-79291723D02*
X159765713Y-79101247D01*
X159765713Y-79101247D02*
X159765713Y-78958390D01*
X159765713Y-78958390D02*
X159718094Y-78767914D01*
X159718094Y-78767914D02*
X159670475Y-78672676D01*
X159670475Y-78672676D02*
X159575237Y-78577438D01*
X159575237Y-78577438D02*
X159432380Y-78529819D01*
X159432380Y-78529819D02*
X159337142Y-78529819D01*
X159337142Y-78529819D02*
X159194285Y-78577438D01*
X159194285Y-78577438D02*
X159146666Y-78625057D01*
X158718094Y-79529819D02*
X158718094Y-78529819D01*
X158718094Y-79006009D02*
X158146666Y-79006009D01*
X158146666Y-79529819D02*
X158146666Y-78529819D01*
X157146666Y-79529819D02*
X157718094Y-79529819D01*
X157432380Y-79529819D02*
X157432380Y-78529819D01*
X157432380Y-78529819D02*
X157527618Y-78672676D01*
X157527618Y-78672676D02*
X157622856Y-78767914D01*
X157622856Y-78767914D02*
X157718094Y-78815533D01*
X156241904Y-78529819D02*
X156718094Y-78529819D01*
X156718094Y-78529819D02*
X156765713Y-79006009D01*
X156765713Y-79006009D02*
X156718094Y-78958390D01*
X156718094Y-78958390D02*
X156622856Y-78910771D01*
X156622856Y-78910771D02*
X156384761Y-78910771D01*
X156384761Y-78910771D02*
X156289523Y-78958390D01*
X156289523Y-78958390D02*
X156241904Y-79006009D01*
X156241904Y-79006009D02*
X156194285Y-79101247D01*
X156194285Y-79101247D02*
X156194285Y-79339342D01*
X156194285Y-79339342D02*
X156241904Y-79434580D01*
X156241904Y-79434580D02*
X156289523Y-79482200D01*
X156289523Y-79482200D02*
X156384761Y-79529819D01*
X156384761Y-79529819D02*
X156622856Y-79529819D01*
X156622856Y-79529819D02*
X156718094Y-79482200D01*
X156718094Y-79482200D02*
X156765713Y-79434580D01*
X177720476Y-41334580D02*
X177768095Y-41382200D01*
X177768095Y-41382200D02*
X177910952Y-41429819D01*
X177910952Y-41429819D02*
X178006190Y-41429819D01*
X178006190Y-41429819D02*
X178149047Y-41382200D01*
X178149047Y-41382200D02*
X178244285Y-41286961D01*
X178244285Y-41286961D02*
X178291904Y-41191723D01*
X178291904Y-41191723D02*
X178339523Y-41001247D01*
X178339523Y-41001247D02*
X178339523Y-40858390D01*
X178339523Y-40858390D02*
X178291904Y-40667914D01*
X178291904Y-40667914D02*
X178244285Y-40572676D01*
X178244285Y-40572676D02*
X178149047Y-40477438D01*
X178149047Y-40477438D02*
X178006190Y-40429819D01*
X178006190Y-40429819D02*
X177910952Y-40429819D01*
X177910952Y-40429819D02*
X177768095Y-40477438D01*
X177768095Y-40477438D02*
X177720476Y-40525057D01*
X177291904Y-41429819D02*
X177291904Y-40429819D01*
X177291904Y-40906009D02*
X176720476Y-40906009D01*
X176720476Y-41429819D02*
X176720476Y-40429819D01*
X176101428Y-40858390D02*
X176196666Y-40810771D01*
X176196666Y-40810771D02*
X176244285Y-40763152D01*
X176244285Y-40763152D02*
X176291904Y-40667914D01*
X176291904Y-40667914D02*
X176291904Y-40620295D01*
X176291904Y-40620295D02*
X176244285Y-40525057D01*
X176244285Y-40525057D02*
X176196666Y-40477438D01*
X176196666Y-40477438D02*
X176101428Y-40429819D01*
X176101428Y-40429819D02*
X175910952Y-40429819D01*
X175910952Y-40429819D02*
X175815714Y-40477438D01*
X175815714Y-40477438D02*
X175768095Y-40525057D01*
X175768095Y-40525057D02*
X175720476Y-40620295D01*
X175720476Y-40620295D02*
X175720476Y-40667914D01*
X175720476Y-40667914D02*
X175768095Y-40763152D01*
X175768095Y-40763152D02*
X175815714Y-40810771D01*
X175815714Y-40810771D02*
X175910952Y-40858390D01*
X175910952Y-40858390D02*
X176101428Y-40858390D01*
X176101428Y-40858390D02*
X176196666Y-40906009D01*
X176196666Y-40906009D02*
X176244285Y-40953628D01*
X176244285Y-40953628D02*
X176291904Y-41048866D01*
X176291904Y-41048866D02*
X176291904Y-41239342D01*
X176291904Y-41239342D02*
X176244285Y-41334580D01*
X176244285Y-41334580D02*
X176196666Y-41382200D01*
X176196666Y-41382200D02*
X176101428Y-41429819D01*
X176101428Y-41429819D02*
X175910952Y-41429819D01*
X175910952Y-41429819D02*
X175815714Y-41382200D01*
X175815714Y-41382200D02*
X175768095Y-41334580D01*
X175768095Y-41334580D02*
X175720476Y-41239342D01*
X175720476Y-41239342D02*
X175720476Y-41048866D01*
X175720476Y-41048866D02*
X175768095Y-40953628D01*
X175768095Y-40953628D02*
X175815714Y-40906009D01*
X175815714Y-40906009D02*
X175910952Y-40858390D01*
X20242140Y-63159819D02*
X20242140Y-63969342D01*
X20242140Y-63969342D02*
X20194521Y-64064580D01*
X20194521Y-64064580D02*
X20146902Y-64112200D01*
X20146902Y-64112200D02*
X20051664Y-64159819D01*
X20051664Y-64159819D02*
X19861188Y-64159819D01*
X19861188Y-64159819D02*
X19765950Y-64112200D01*
X19765950Y-64112200D02*
X19718331Y-64064580D01*
X19718331Y-64064580D02*
X19670712Y-63969342D01*
X19670712Y-63969342D02*
X19670712Y-63159819D01*
X19289759Y-63159819D02*
X18670712Y-63159819D01*
X18670712Y-63159819D02*
X19004045Y-63540771D01*
X19004045Y-63540771D02*
X18861188Y-63540771D01*
X18861188Y-63540771D02*
X18765950Y-63588390D01*
X18765950Y-63588390D02*
X18718331Y-63636009D01*
X18718331Y-63636009D02*
X18670712Y-63731247D01*
X18670712Y-63731247D02*
X18670712Y-63969342D01*
X18670712Y-63969342D02*
X18718331Y-64064580D01*
X18718331Y-64064580D02*
X18765950Y-64112200D01*
X18765950Y-64112200D02*
X18861188Y-64159819D01*
X18861188Y-64159819D02*
X19146902Y-64159819D01*
X19146902Y-64159819D02*
X19242140Y-64112200D01*
X19242140Y-64112200D02*
X19289759Y-64064580D01*
X26213093Y-66034580D02*
X26260712Y-66082200D01*
X26260712Y-66082200D02*
X26403569Y-66129819D01*
X26403569Y-66129819D02*
X26498807Y-66129819D01*
X26498807Y-66129819D02*
X26641664Y-66082200D01*
X26641664Y-66082200D02*
X26736902Y-65986961D01*
X26736902Y-65986961D02*
X26784521Y-65891723D01*
X26784521Y-65891723D02*
X26832140Y-65701247D01*
X26832140Y-65701247D02*
X26832140Y-65558390D01*
X26832140Y-65558390D02*
X26784521Y-65367914D01*
X26784521Y-65367914D02*
X26736902Y-65272676D01*
X26736902Y-65272676D02*
X26641664Y-65177438D01*
X26641664Y-65177438D02*
X26498807Y-65129819D01*
X26498807Y-65129819D02*
X26403569Y-65129819D01*
X26403569Y-65129819D02*
X26260712Y-65177438D01*
X26260712Y-65177438D02*
X26213093Y-65225057D01*
X25260712Y-66129819D02*
X25832140Y-66129819D01*
X25546426Y-66129819D02*
X25546426Y-65129819D01*
X25546426Y-65129819D02*
X25641664Y-65272676D01*
X25641664Y-65272676D02*
X25736902Y-65367914D01*
X25736902Y-65367914D02*
X25832140Y-65415533D01*
X24403569Y-65463152D02*
X24403569Y-66129819D01*
X24641664Y-65082200D02*
X24879759Y-65796485D01*
X24879759Y-65796485D02*
X24260712Y-65796485D01*
X178196666Y-79434580D02*
X178244285Y-79482200D01*
X178244285Y-79482200D02*
X178387142Y-79529819D01*
X178387142Y-79529819D02*
X178482380Y-79529819D01*
X178482380Y-79529819D02*
X178625237Y-79482200D01*
X178625237Y-79482200D02*
X178720475Y-79386961D01*
X178720475Y-79386961D02*
X178768094Y-79291723D01*
X178768094Y-79291723D02*
X178815713Y-79101247D01*
X178815713Y-79101247D02*
X178815713Y-78958390D01*
X178815713Y-78958390D02*
X178768094Y-78767914D01*
X178768094Y-78767914D02*
X178720475Y-78672676D01*
X178720475Y-78672676D02*
X178625237Y-78577438D01*
X178625237Y-78577438D02*
X178482380Y-78529819D01*
X178482380Y-78529819D02*
X178387142Y-78529819D01*
X178387142Y-78529819D02*
X178244285Y-78577438D01*
X178244285Y-78577438D02*
X178196666Y-78625057D01*
X177768094Y-79529819D02*
X177768094Y-78529819D01*
X177768094Y-79006009D02*
X177196666Y-79006009D01*
X177196666Y-79529819D02*
X177196666Y-78529819D01*
X176196666Y-79529819D02*
X176768094Y-79529819D01*
X176482380Y-79529819D02*
X176482380Y-78529819D01*
X176482380Y-78529819D02*
X176577618Y-78672676D01*
X176577618Y-78672676D02*
X176672856Y-78767914D01*
X176672856Y-78767914D02*
X176768094Y-78815533D01*
X175339523Y-78529819D02*
X175529999Y-78529819D01*
X175529999Y-78529819D02*
X175625237Y-78577438D01*
X175625237Y-78577438D02*
X175672856Y-78625057D01*
X175672856Y-78625057D02*
X175768094Y-78767914D01*
X175768094Y-78767914D02*
X175815713Y-78958390D01*
X175815713Y-78958390D02*
X175815713Y-79339342D01*
X175815713Y-79339342D02*
X175768094Y-79434580D01*
X175768094Y-79434580D02*
X175720475Y-79482200D01*
X175720475Y-79482200D02*
X175625237Y-79529819D01*
X175625237Y-79529819D02*
X175434761Y-79529819D01*
X175434761Y-79529819D02*
X175339523Y-79482200D01*
X175339523Y-79482200D02*
X175291904Y-79434580D01*
X175291904Y-79434580D02*
X175244285Y-79339342D01*
X175244285Y-79339342D02*
X175244285Y-79101247D01*
X175244285Y-79101247D02*
X175291904Y-79006009D01*
X175291904Y-79006009D02*
X175339523Y-78958390D01*
X175339523Y-78958390D02*
X175434761Y-78910771D01*
X175434761Y-78910771D02*
X175625237Y-78910771D01*
X175625237Y-78910771D02*
X175720475Y-78958390D01*
X175720475Y-78958390D02*
X175768094Y-79006009D01*
X175768094Y-79006009D02*
X175815713Y-79101247D01*
X139620476Y-22284580D02*
X139668095Y-22332200D01*
X139668095Y-22332200D02*
X139810952Y-22379819D01*
X139810952Y-22379819D02*
X139906190Y-22379819D01*
X139906190Y-22379819D02*
X140049047Y-22332200D01*
X140049047Y-22332200D02*
X140144285Y-22236961D01*
X140144285Y-22236961D02*
X140191904Y-22141723D01*
X140191904Y-22141723D02*
X140239523Y-21951247D01*
X140239523Y-21951247D02*
X140239523Y-21808390D01*
X140239523Y-21808390D02*
X140191904Y-21617914D01*
X140191904Y-21617914D02*
X140144285Y-21522676D01*
X140144285Y-21522676D02*
X140049047Y-21427438D01*
X140049047Y-21427438D02*
X139906190Y-21379819D01*
X139906190Y-21379819D02*
X139810952Y-21379819D01*
X139810952Y-21379819D02*
X139668095Y-21427438D01*
X139668095Y-21427438D02*
X139620476Y-21475057D01*
X139191904Y-22379819D02*
X139191904Y-21379819D01*
X139191904Y-21856009D02*
X138620476Y-21856009D01*
X138620476Y-22379819D02*
X138620476Y-21379819D01*
X138191904Y-21475057D02*
X138144285Y-21427438D01*
X138144285Y-21427438D02*
X138049047Y-21379819D01*
X138049047Y-21379819D02*
X137810952Y-21379819D01*
X137810952Y-21379819D02*
X137715714Y-21427438D01*
X137715714Y-21427438D02*
X137668095Y-21475057D01*
X137668095Y-21475057D02*
X137620476Y-21570295D01*
X137620476Y-21570295D02*
X137620476Y-21665533D01*
X137620476Y-21665533D02*
X137668095Y-21808390D01*
X137668095Y-21808390D02*
X138239523Y-22379819D01*
X138239523Y-22379819D02*
X137620476Y-22379819D01*
X140096666Y-79434580D02*
X140144285Y-79482200D01*
X140144285Y-79482200D02*
X140287142Y-79529819D01*
X140287142Y-79529819D02*
X140382380Y-79529819D01*
X140382380Y-79529819D02*
X140525237Y-79482200D01*
X140525237Y-79482200D02*
X140620475Y-79386961D01*
X140620475Y-79386961D02*
X140668094Y-79291723D01*
X140668094Y-79291723D02*
X140715713Y-79101247D01*
X140715713Y-79101247D02*
X140715713Y-78958390D01*
X140715713Y-78958390D02*
X140668094Y-78767914D01*
X140668094Y-78767914D02*
X140620475Y-78672676D01*
X140620475Y-78672676D02*
X140525237Y-78577438D01*
X140525237Y-78577438D02*
X140382380Y-78529819D01*
X140382380Y-78529819D02*
X140287142Y-78529819D01*
X140287142Y-78529819D02*
X140144285Y-78577438D01*
X140144285Y-78577438D02*
X140096666Y-78625057D01*
X139668094Y-79529819D02*
X139668094Y-78529819D01*
X139668094Y-79006009D02*
X139096666Y-79006009D01*
X139096666Y-79529819D02*
X139096666Y-78529819D01*
X138096666Y-79529819D02*
X138668094Y-79529819D01*
X138382380Y-79529819D02*
X138382380Y-78529819D01*
X138382380Y-78529819D02*
X138477618Y-78672676D01*
X138477618Y-78672676D02*
X138572856Y-78767914D01*
X138572856Y-78767914D02*
X138668094Y-78815533D01*
X137239523Y-78863152D02*
X137239523Y-79529819D01*
X137477618Y-78482200D02*
X137715713Y-79196485D01*
X137715713Y-79196485D02*
X137096666Y-79196485D01*
X120854819Y-34836905D02*
X119854819Y-34836905D01*
X119854819Y-34836905D02*
X119854819Y-35075000D01*
X119854819Y-35075000D02*
X119902438Y-35217857D01*
X119902438Y-35217857D02*
X119997676Y-35313095D01*
X119997676Y-35313095D02*
X120092914Y-35360714D01*
X120092914Y-35360714D02*
X120283390Y-35408333D01*
X120283390Y-35408333D02*
X120426247Y-35408333D01*
X120426247Y-35408333D02*
X120616723Y-35360714D01*
X120616723Y-35360714D02*
X120711961Y-35313095D01*
X120711961Y-35313095D02*
X120807200Y-35217857D01*
X120807200Y-35217857D02*
X120854819Y-35075000D01*
X120854819Y-35075000D02*
X120854819Y-34836905D01*
X119854819Y-36313095D02*
X119854819Y-35836905D01*
X119854819Y-35836905D02*
X120331009Y-35789286D01*
X120331009Y-35789286D02*
X120283390Y-35836905D01*
X120283390Y-35836905D02*
X120235771Y-35932143D01*
X120235771Y-35932143D02*
X120235771Y-36170238D01*
X120235771Y-36170238D02*
X120283390Y-36265476D01*
X120283390Y-36265476D02*
X120331009Y-36313095D01*
X120331009Y-36313095D02*
X120426247Y-36360714D01*
X120426247Y-36360714D02*
X120664342Y-36360714D01*
X120664342Y-36360714D02*
X120759580Y-36313095D01*
X120759580Y-36313095D02*
X120807200Y-36265476D01*
X120807200Y-36265476D02*
X120854819Y-36170238D01*
X120854819Y-36170238D02*
X120854819Y-35932143D01*
X120854819Y-35932143D02*
X120807200Y-35836905D01*
X120807200Y-35836905D02*
X120759580Y-35789286D01*
X26213093Y-68004580D02*
X26260712Y-68052200D01*
X26260712Y-68052200D02*
X26403569Y-68099819D01*
X26403569Y-68099819D02*
X26498807Y-68099819D01*
X26498807Y-68099819D02*
X26641664Y-68052200D01*
X26641664Y-68052200D02*
X26736902Y-67956961D01*
X26736902Y-67956961D02*
X26784521Y-67861723D01*
X26784521Y-67861723D02*
X26832140Y-67671247D01*
X26832140Y-67671247D02*
X26832140Y-67528390D01*
X26832140Y-67528390D02*
X26784521Y-67337914D01*
X26784521Y-67337914D02*
X26736902Y-67242676D01*
X26736902Y-67242676D02*
X26641664Y-67147438D01*
X26641664Y-67147438D02*
X26498807Y-67099819D01*
X26498807Y-67099819D02*
X26403569Y-67099819D01*
X26403569Y-67099819D02*
X26260712Y-67147438D01*
X26260712Y-67147438D02*
X26213093Y-67195057D01*
X25260712Y-68099819D02*
X25832140Y-68099819D01*
X25546426Y-68099819D02*
X25546426Y-67099819D01*
X25546426Y-67099819D02*
X25641664Y-67242676D01*
X25641664Y-67242676D02*
X25736902Y-67337914D01*
X25736902Y-67337914D02*
X25832140Y-67385533D01*
X24355950Y-67099819D02*
X24832140Y-67099819D01*
X24832140Y-67099819D02*
X24879759Y-67576009D01*
X24879759Y-67576009D02*
X24832140Y-67528390D01*
X24832140Y-67528390D02*
X24736902Y-67480771D01*
X24736902Y-67480771D02*
X24498807Y-67480771D01*
X24498807Y-67480771D02*
X24403569Y-67528390D01*
X24403569Y-67528390D02*
X24355950Y-67576009D01*
X24355950Y-67576009D02*
X24308331Y-67671247D01*
X24308331Y-67671247D02*
X24308331Y-67909342D01*
X24308331Y-67909342D02*
X24355950Y-68004580D01*
X24355950Y-68004580D02*
X24403569Y-68052200D01*
X24403569Y-68052200D02*
X24498807Y-68099819D01*
X24498807Y-68099819D02*
X24736902Y-68099819D01*
X24736902Y-68099819D02*
X24832140Y-68052200D01*
X24832140Y-68052200D02*
X24879759Y-68004580D01*
X120854819Y-53886905D02*
X119854819Y-53886905D01*
X119854819Y-53886905D02*
X119854819Y-54125000D01*
X119854819Y-54125000D02*
X119902438Y-54267857D01*
X119902438Y-54267857D02*
X119997676Y-54363095D01*
X119997676Y-54363095D02*
X120092914Y-54410714D01*
X120092914Y-54410714D02*
X120283390Y-54458333D01*
X120283390Y-54458333D02*
X120426247Y-54458333D01*
X120426247Y-54458333D02*
X120616723Y-54410714D01*
X120616723Y-54410714D02*
X120711961Y-54363095D01*
X120711961Y-54363095D02*
X120807200Y-54267857D01*
X120807200Y-54267857D02*
X120854819Y-54125000D01*
X120854819Y-54125000D02*
X120854819Y-53886905D01*
X120854819Y-54934524D02*
X120854819Y-55125000D01*
X120854819Y-55125000D02*
X120807200Y-55220238D01*
X120807200Y-55220238D02*
X120759580Y-55267857D01*
X120759580Y-55267857D02*
X120616723Y-55363095D01*
X120616723Y-55363095D02*
X120426247Y-55410714D01*
X120426247Y-55410714D02*
X120045295Y-55410714D01*
X120045295Y-55410714D02*
X119950057Y-55363095D01*
X119950057Y-55363095D02*
X119902438Y-55315476D01*
X119902438Y-55315476D02*
X119854819Y-55220238D01*
X119854819Y-55220238D02*
X119854819Y-55029762D01*
X119854819Y-55029762D02*
X119902438Y-54934524D01*
X119902438Y-54934524D02*
X119950057Y-54886905D01*
X119950057Y-54886905D02*
X120045295Y-54839286D01*
X120045295Y-54839286D02*
X120283390Y-54839286D01*
X120283390Y-54839286D02*
X120378628Y-54886905D01*
X120378628Y-54886905D02*
X120426247Y-54934524D01*
X120426247Y-54934524D02*
X120473866Y-55029762D01*
X120473866Y-55029762D02*
X120473866Y-55220238D01*
X120473866Y-55220238D02*
X120426247Y-55315476D01*
X120426247Y-55315476D02*
X120378628Y-55363095D01*
X120378628Y-55363095D02*
X120283390Y-55410714D01*
X121046666Y-79434580D02*
X121094285Y-79482200D01*
X121094285Y-79482200D02*
X121237142Y-79529819D01*
X121237142Y-79529819D02*
X121332380Y-79529819D01*
X121332380Y-79529819D02*
X121475237Y-79482200D01*
X121475237Y-79482200D02*
X121570475Y-79386961D01*
X121570475Y-79386961D02*
X121618094Y-79291723D01*
X121618094Y-79291723D02*
X121665713Y-79101247D01*
X121665713Y-79101247D02*
X121665713Y-78958390D01*
X121665713Y-78958390D02*
X121618094Y-78767914D01*
X121618094Y-78767914D02*
X121570475Y-78672676D01*
X121570475Y-78672676D02*
X121475237Y-78577438D01*
X121475237Y-78577438D02*
X121332380Y-78529819D01*
X121332380Y-78529819D02*
X121237142Y-78529819D01*
X121237142Y-78529819D02*
X121094285Y-78577438D01*
X121094285Y-78577438D02*
X121046666Y-78625057D01*
X120618094Y-79529819D02*
X120618094Y-78529819D01*
X120618094Y-79006009D02*
X120046666Y-79006009D01*
X120046666Y-79529819D02*
X120046666Y-78529819D01*
X119046666Y-79529819D02*
X119618094Y-79529819D01*
X119332380Y-79529819D02*
X119332380Y-78529819D01*
X119332380Y-78529819D02*
X119427618Y-78672676D01*
X119427618Y-78672676D02*
X119522856Y-78767914D01*
X119522856Y-78767914D02*
X119618094Y-78815533D01*
X118713332Y-78529819D02*
X118094285Y-78529819D01*
X118094285Y-78529819D02*
X118427618Y-78910771D01*
X118427618Y-78910771D02*
X118284761Y-78910771D01*
X118284761Y-78910771D02*
X118189523Y-78958390D01*
X118189523Y-78958390D02*
X118141904Y-79006009D01*
X118141904Y-79006009D02*
X118094285Y-79101247D01*
X118094285Y-79101247D02*
X118094285Y-79339342D01*
X118094285Y-79339342D02*
X118141904Y-79434580D01*
X118141904Y-79434580D02*
X118189523Y-79482200D01*
X118189523Y-79482200D02*
X118284761Y-79529819D01*
X118284761Y-79529819D02*
X118570475Y-79529819D01*
X118570475Y-79529819D02*
X118665713Y-79482200D01*
X118665713Y-79482200D02*
X118713332Y-79434580D01*
X178004819Y-34836905D02*
X177004819Y-34836905D01*
X177004819Y-34836905D02*
X177004819Y-35075000D01*
X177004819Y-35075000D02*
X177052438Y-35217857D01*
X177052438Y-35217857D02*
X177147676Y-35313095D01*
X177147676Y-35313095D02*
X177242914Y-35360714D01*
X177242914Y-35360714D02*
X177433390Y-35408333D01*
X177433390Y-35408333D02*
X177576247Y-35408333D01*
X177576247Y-35408333D02*
X177766723Y-35360714D01*
X177766723Y-35360714D02*
X177861961Y-35313095D01*
X177861961Y-35313095D02*
X177957200Y-35217857D01*
X177957200Y-35217857D02*
X178004819Y-35075000D01*
X178004819Y-35075000D02*
X178004819Y-34836905D01*
X177433390Y-35979762D02*
X177385771Y-35884524D01*
X177385771Y-35884524D02*
X177338152Y-35836905D01*
X177338152Y-35836905D02*
X177242914Y-35789286D01*
X177242914Y-35789286D02*
X177195295Y-35789286D01*
X177195295Y-35789286D02*
X177100057Y-35836905D01*
X177100057Y-35836905D02*
X177052438Y-35884524D01*
X177052438Y-35884524D02*
X177004819Y-35979762D01*
X177004819Y-35979762D02*
X177004819Y-36170238D01*
X177004819Y-36170238D02*
X177052438Y-36265476D01*
X177052438Y-36265476D02*
X177100057Y-36313095D01*
X177100057Y-36313095D02*
X177195295Y-36360714D01*
X177195295Y-36360714D02*
X177242914Y-36360714D01*
X177242914Y-36360714D02*
X177338152Y-36313095D01*
X177338152Y-36313095D02*
X177385771Y-36265476D01*
X177385771Y-36265476D02*
X177433390Y-36170238D01*
X177433390Y-36170238D02*
X177433390Y-35979762D01*
X177433390Y-35979762D02*
X177481009Y-35884524D01*
X177481009Y-35884524D02*
X177528628Y-35836905D01*
X177528628Y-35836905D02*
X177623866Y-35789286D01*
X177623866Y-35789286D02*
X177814342Y-35789286D01*
X177814342Y-35789286D02*
X177909580Y-35836905D01*
X177909580Y-35836905D02*
X177957200Y-35884524D01*
X177957200Y-35884524D02*
X178004819Y-35979762D01*
X178004819Y-35979762D02*
X178004819Y-36170238D01*
X178004819Y-36170238D02*
X177957200Y-36265476D01*
X177957200Y-36265476D02*
X177909580Y-36313095D01*
X177909580Y-36313095D02*
X177814342Y-36360714D01*
X177814342Y-36360714D02*
X177623866Y-36360714D01*
X177623866Y-36360714D02*
X177528628Y-36313095D01*
X177528628Y-36313095D02*
X177481009Y-36265476D01*
X177481009Y-36265476D02*
X177433390Y-36170238D01*
X158954819Y-15786905D02*
X157954819Y-15786905D01*
X157954819Y-15786905D02*
X157954819Y-16025000D01*
X157954819Y-16025000D02*
X158002438Y-16167857D01*
X158002438Y-16167857D02*
X158097676Y-16263095D01*
X158097676Y-16263095D02*
X158192914Y-16310714D01*
X158192914Y-16310714D02*
X158383390Y-16358333D01*
X158383390Y-16358333D02*
X158526247Y-16358333D01*
X158526247Y-16358333D02*
X158716723Y-16310714D01*
X158716723Y-16310714D02*
X158811961Y-16263095D01*
X158811961Y-16263095D02*
X158907200Y-16167857D01*
X158907200Y-16167857D02*
X158954819Y-16025000D01*
X158954819Y-16025000D02*
X158954819Y-15786905D01*
X157954819Y-16691667D02*
X157954819Y-17310714D01*
X157954819Y-17310714D02*
X158335771Y-16977381D01*
X158335771Y-16977381D02*
X158335771Y-17120238D01*
X158335771Y-17120238D02*
X158383390Y-17215476D01*
X158383390Y-17215476D02*
X158431009Y-17263095D01*
X158431009Y-17263095D02*
X158526247Y-17310714D01*
X158526247Y-17310714D02*
X158764342Y-17310714D01*
X158764342Y-17310714D02*
X158859580Y-17263095D01*
X158859580Y-17263095D02*
X158907200Y-17215476D01*
X158907200Y-17215476D02*
X158954819Y-17120238D01*
X158954819Y-17120238D02*
X158954819Y-16834524D01*
X158954819Y-16834524D02*
X158907200Y-16739286D01*
X158907200Y-16739286D02*
X158859580Y-16691667D01*
X120854819Y-15786905D02*
X119854819Y-15786905D01*
X119854819Y-15786905D02*
X119854819Y-16025000D01*
X119854819Y-16025000D02*
X119902438Y-16167857D01*
X119902438Y-16167857D02*
X119997676Y-16263095D01*
X119997676Y-16263095D02*
X120092914Y-16310714D01*
X120092914Y-16310714D02*
X120283390Y-16358333D01*
X120283390Y-16358333D02*
X120426247Y-16358333D01*
X120426247Y-16358333D02*
X120616723Y-16310714D01*
X120616723Y-16310714D02*
X120711961Y-16263095D01*
X120711961Y-16263095D02*
X120807200Y-16167857D01*
X120807200Y-16167857D02*
X120854819Y-16025000D01*
X120854819Y-16025000D02*
X120854819Y-15786905D01*
X120854819Y-17310714D02*
X120854819Y-16739286D01*
X120854819Y-17025000D02*
X119854819Y-17025000D01*
X119854819Y-17025000D02*
X119997676Y-16929762D01*
X119997676Y-16929762D02*
X120092914Y-16834524D01*
X120092914Y-16834524D02*
X120140533Y-16739286D01*
X158670476Y-22284580D02*
X158718095Y-22332200D01*
X158718095Y-22332200D02*
X158860952Y-22379819D01*
X158860952Y-22379819D02*
X158956190Y-22379819D01*
X158956190Y-22379819D02*
X159099047Y-22332200D01*
X159099047Y-22332200D02*
X159194285Y-22236961D01*
X159194285Y-22236961D02*
X159241904Y-22141723D01*
X159241904Y-22141723D02*
X159289523Y-21951247D01*
X159289523Y-21951247D02*
X159289523Y-21808390D01*
X159289523Y-21808390D02*
X159241904Y-21617914D01*
X159241904Y-21617914D02*
X159194285Y-21522676D01*
X159194285Y-21522676D02*
X159099047Y-21427438D01*
X159099047Y-21427438D02*
X158956190Y-21379819D01*
X158956190Y-21379819D02*
X158860952Y-21379819D01*
X158860952Y-21379819D02*
X158718095Y-21427438D01*
X158718095Y-21427438D02*
X158670476Y-21475057D01*
X158241904Y-22379819D02*
X158241904Y-21379819D01*
X158241904Y-21856009D02*
X157670476Y-21856009D01*
X157670476Y-22379819D02*
X157670476Y-21379819D01*
X157289523Y-21379819D02*
X156670476Y-21379819D01*
X156670476Y-21379819D02*
X157003809Y-21760771D01*
X157003809Y-21760771D02*
X156860952Y-21760771D01*
X156860952Y-21760771D02*
X156765714Y-21808390D01*
X156765714Y-21808390D02*
X156718095Y-21856009D01*
X156718095Y-21856009D02*
X156670476Y-21951247D01*
X156670476Y-21951247D02*
X156670476Y-22189342D01*
X156670476Y-22189342D02*
X156718095Y-22284580D01*
X156718095Y-22284580D02*
X156765714Y-22332200D01*
X156765714Y-22332200D02*
X156860952Y-22379819D01*
X156860952Y-22379819D02*
X157146666Y-22379819D01*
X157146666Y-22379819D02*
X157241904Y-22332200D01*
X157241904Y-22332200D02*
X157289523Y-22284580D01*
X178004819Y-15786905D02*
X177004819Y-15786905D01*
X177004819Y-15786905D02*
X177004819Y-16025000D01*
X177004819Y-16025000D02*
X177052438Y-16167857D01*
X177052438Y-16167857D02*
X177147676Y-16263095D01*
X177147676Y-16263095D02*
X177242914Y-16310714D01*
X177242914Y-16310714D02*
X177433390Y-16358333D01*
X177433390Y-16358333D02*
X177576247Y-16358333D01*
X177576247Y-16358333D02*
X177766723Y-16310714D01*
X177766723Y-16310714D02*
X177861961Y-16263095D01*
X177861961Y-16263095D02*
X177957200Y-16167857D01*
X177957200Y-16167857D02*
X178004819Y-16025000D01*
X178004819Y-16025000D02*
X178004819Y-15786905D01*
X177338152Y-17215476D02*
X178004819Y-17215476D01*
X176957200Y-16977381D02*
X177671485Y-16739286D01*
X177671485Y-16739286D02*
X177671485Y-17358333D01*
X120570476Y-22284580D02*
X120618095Y-22332200D01*
X120618095Y-22332200D02*
X120760952Y-22379819D01*
X120760952Y-22379819D02*
X120856190Y-22379819D01*
X120856190Y-22379819D02*
X120999047Y-22332200D01*
X120999047Y-22332200D02*
X121094285Y-22236961D01*
X121094285Y-22236961D02*
X121141904Y-22141723D01*
X121141904Y-22141723D02*
X121189523Y-21951247D01*
X121189523Y-21951247D02*
X121189523Y-21808390D01*
X121189523Y-21808390D02*
X121141904Y-21617914D01*
X121141904Y-21617914D02*
X121094285Y-21522676D01*
X121094285Y-21522676D02*
X120999047Y-21427438D01*
X120999047Y-21427438D02*
X120856190Y-21379819D01*
X120856190Y-21379819D02*
X120760952Y-21379819D01*
X120760952Y-21379819D02*
X120618095Y-21427438D01*
X120618095Y-21427438D02*
X120570476Y-21475057D01*
X120141904Y-22379819D02*
X120141904Y-21379819D01*
X120141904Y-21856009D02*
X119570476Y-21856009D01*
X119570476Y-22379819D02*
X119570476Y-21379819D01*
X118570476Y-22379819D02*
X119141904Y-22379819D01*
X118856190Y-22379819D02*
X118856190Y-21379819D01*
X118856190Y-21379819D02*
X118951428Y-21522676D01*
X118951428Y-21522676D02*
X119046666Y-21617914D01*
X119046666Y-21617914D02*
X119141904Y-21665533D01*
D11*
%TO.C,D10*%
X140450000Y-55675000D02*
X140450000Y-53015000D01*
X142150000Y-53015000D02*
X140450000Y-53015000D01*
X142150000Y-55675000D02*
X142150000Y-53015000D01*
%TO.C,D2*%
X140450000Y-17575000D02*
X140450000Y-14915000D01*
X142150000Y-14915000D02*
X140450000Y-14915000D01*
X142150000Y-17575000D02*
X142150000Y-14915000D01*
D10*
%TO.C,CH9*%
X108828491Y-60825000D02*
X108828491Y-60303462D01*
X108828491Y-63825000D02*
X108828491Y-64346538D01*
X109053475Y-60078491D02*
X112556159Y-60078491D01*
X112239353Y-64571509D02*
X109053462Y-64571509D01*
X113093580Y-60222493D02*
X114101773Y-60804574D01*
X114056420Y-65477507D02*
X112701817Y-64695426D01*
X114564237Y-60928491D02*
X120596538Y-60928491D01*
X114621517Y-65621509D02*
X114593841Y-65621509D01*
X114846517Y-65291366D02*
X114846517Y-65396509D01*
X116121517Y-65216366D02*
X114921517Y-65216366D01*
X116196517Y-65397359D02*
X116196517Y-65291366D01*
X120596547Y-65621509D02*
X116421525Y-65622359D01*
X120821509Y-61875000D02*
X120821509Y-61153462D01*
X120821509Y-64875000D02*
X120821509Y-65396538D01*
X108828491Y-60303462D02*
G75*
G02*
X109053475Y-60078491I225009J-38D01*
G01*
X109053462Y-64571509D02*
G75*
G02*
X108828491Y-64346538I38J225009D01*
G01*
X112239353Y-64571509D02*
G75*
G02*
X112701813Y-64695433I47J-924691D01*
G01*
X112556159Y-60078491D02*
G75*
G02*
X113093590Y-60222476I-59J-1075209D01*
G01*
X114564237Y-60928491D02*
G75*
G02*
X114101773Y-60804574I23J925011D01*
G01*
X114593841Y-65621509D02*
G75*
G02*
X114056420Y-65477507I19J1074909D01*
G01*
X114846517Y-65291366D02*
G75*
G02*
X114921517Y-65216367I75073J-74D01*
G01*
X114846517Y-65396509D02*
G75*
G02*
X114621517Y-65621507I-224997J-1D01*
G01*
X116121517Y-65216366D02*
G75*
G02*
X116196517Y-65291366I0J-75000D01*
G01*
X116421525Y-65622359D02*
G75*
G02*
X116196517Y-65397359I-8J225000D01*
G01*
X120596538Y-60928491D02*
G75*
G02*
X120821509Y-61153462I-29J-225000D01*
G01*
X120821509Y-65396538D02*
G75*
G02*
X120596547Y-65621509I-225000J29D01*
G01*
D11*
%TO.C,U1*%
X35760236Y-64670000D02*
X39520236Y-64670000D01*
X35760236Y-65930000D02*
X35760236Y-64670000D01*
X35760236Y-70230000D02*
X35760236Y-71490000D01*
X35760236Y-71490000D02*
X39520236Y-71490000D01*
X40800236Y-64770000D02*
X40560236Y-64440000D01*
X41040236Y-64440000D01*
X40800236Y-64770000D01*
G36*
X40800236Y-64770000D02*
G01*
X40560236Y-64440000D01*
X41040236Y-64440000D01*
X40800236Y-64770000D01*
G37*
D10*
%TO.C,CH6*%
X127878491Y-41775000D02*
X127878491Y-41253462D01*
X127878491Y-44775000D02*
X127878491Y-45296538D01*
X128103475Y-41028491D02*
X131606159Y-41028491D01*
X131289353Y-45521509D02*
X128103462Y-45521509D01*
X132143580Y-41172493D02*
X133151773Y-41754574D01*
X133106420Y-46427507D02*
X131751817Y-45645426D01*
X133614237Y-41878491D02*
X139646538Y-41878491D01*
X133671517Y-46571509D02*
X133643841Y-46571509D01*
X133896517Y-46241366D02*
X133896517Y-46346509D01*
X135171517Y-46166366D02*
X133971517Y-46166366D01*
X135246517Y-46347359D02*
X135246517Y-46241366D01*
X139646547Y-46571509D02*
X135471525Y-46572359D01*
X139871509Y-42825000D02*
X139871509Y-42103462D01*
X139871509Y-45825000D02*
X139871509Y-46346538D01*
X127878491Y-41253462D02*
G75*
G02*
X128103475Y-41028491I225009J-38D01*
G01*
X128103462Y-45521509D02*
G75*
G02*
X127878491Y-45296538I38J225009D01*
G01*
X131289353Y-45521509D02*
G75*
G02*
X131751813Y-45645433I47J-924691D01*
G01*
X131606159Y-41028491D02*
G75*
G02*
X132143590Y-41172476I-59J-1075209D01*
G01*
X133614237Y-41878491D02*
G75*
G02*
X133151773Y-41754574I23J925011D01*
G01*
X133643841Y-46571509D02*
G75*
G02*
X133106420Y-46427507I19J1074909D01*
G01*
X133896517Y-46241366D02*
G75*
G02*
X133971517Y-46166367I75073J-74D01*
G01*
X133896517Y-46346509D02*
G75*
G02*
X133671517Y-46571507I-224997J-1D01*
G01*
X135171517Y-46166366D02*
G75*
G02*
X135246517Y-46241366I0J-75000D01*
G01*
X135471525Y-46572359D02*
G75*
G02*
X135246517Y-46347359I-8J225000D01*
G01*
X139646538Y-41878491D02*
G75*
G02*
X139871509Y-42103462I-29J-225000D01*
G01*
X139871509Y-46346538D02*
G75*
G02*
X139646547Y-46571509I-225000J29D01*
G01*
%TO.C,CH7*%
X146928491Y-41775000D02*
X146928491Y-41253462D01*
X146928491Y-44775000D02*
X146928491Y-45296538D01*
X147153475Y-41028491D02*
X150656159Y-41028491D01*
X150339353Y-45521509D02*
X147153462Y-45521509D01*
X151193580Y-41172493D02*
X152201773Y-41754574D01*
X152156420Y-46427507D02*
X150801817Y-45645426D01*
X152664237Y-41878491D02*
X158696538Y-41878491D01*
X152721517Y-46571509D02*
X152693841Y-46571509D01*
X152946517Y-46241366D02*
X152946517Y-46346509D01*
X154221517Y-46166366D02*
X153021517Y-46166366D01*
X154296517Y-46347359D02*
X154296517Y-46241366D01*
X158696547Y-46571509D02*
X154521525Y-46572359D01*
X158921509Y-42825000D02*
X158921509Y-42103462D01*
X158921509Y-45825000D02*
X158921509Y-46346538D01*
X146928491Y-41253462D02*
G75*
G02*
X147153475Y-41028491I225009J-38D01*
G01*
X147153462Y-45521509D02*
G75*
G02*
X146928491Y-45296538I38J225009D01*
G01*
X150339353Y-45521509D02*
G75*
G02*
X150801813Y-45645433I47J-924691D01*
G01*
X150656159Y-41028491D02*
G75*
G02*
X151193590Y-41172476I-59J-1075209D01*
G01*
X152664237Y-41878491D02*
G75*
G02*
X152201773Y-41754574I23J925011D01*
G01*
X152693841Y-46571509D02*
G75*
G02*
X152156420Y-46427507I19J1074909D01*
G01*
X152946517Y-46241366D02*
G75*
G02*
X153021517Y-46166367I75073J-74D01*
G01*
X152946517Y-46346509D02*
G75*
G02*
X152721517Y-46571507I-224997J-1D01*
G01*
X154221517Y-46166366D02*
G75*
G02*
X154296517Y-46241366I0J-75000D01*
G01*
X154521525Y-46572359D02*
G75*
G02*
X154296517Y-46347359I-8J225000D01*
G01*
X158696538Y-41878491D02*
G75*
G02*
X158921509Y-42103462I-29J-225000D01*
G01*
X158921509Y-46346538D02*
G75*
G02*
X158696547Y-46571509I-225000J29D01*
G01*
D11*
%TO.C,Y1*%
X5750236Y-74955000D02*
X9750236Y-74955000D01*
X9750236Y-74955000D02*
X9750236Y-71655000D01*
%TO.C,C6*%
X31202400Y-70415000D02*
X31418072Y-70415000D01*
X31202400Y-71135000D02*
X31418072Y-71135000D01*
D10*
%TO.C,CH5*%
X108828491Y-41775000D02*
X108828491Y-41253462D01*
X108828491Y-44775000D02*
X108828491Y-45296538D01*
X109053475Y-41028491D02*
X112556159Y-41028491D01*
X112239353Y-45521509D02*
X109053462Y-45521509D01*
X113093580Y-41172493D02*
X114101773Y-41754574D01*
X114056420Y-46427507D02*
X112701817Y-45645426D01*
X114564237Y-41878491D02*
X120596538Y-41878491D01*
X114621517Y-46571509D02*
X114593841Y-46571509D01*
X114846517Y-46241366D02*
X114846517Y-46346509D01*
X116121517Y-46166366D02*
X114921517Y-46166366D01*
X116196517Y-46347359D02*
X116196517Y-46241366D01*
X120596547Y-46571509D02*
X116421525Y-46572359D01*
X120821509Y-42825000D02*
X120821509Y-42103462D01*
X120821509Y-45825000D02*
X120821509Y-46346538D01*
X108828491Y-41253462D02*
G75*
G02*
X109053475Y-41028491I225009J-38D01*
G01*
X109053462Y-45521509D02*
G75*
G02*
X108828491Y-45296538I38J225009D01*
G01*
X112239353Y-45521509D02*
G75*
G02*
X112701813Y-45645433I47J-924691D01*
G01*
X112556159Y-41028491D02*
G75*
G02*
X113093590Y-41172476I-59J-1075209D01*
G01*
X114564237Y-41878491D02*
G75*
G02*
X114101773Y-41754574I23J925011D01*
G01*
X114593841Y-46571509D02*
G75*
G02*
X114056420Y-46427507I19J1074909D01*
G01*
X114846517Y-46241366D02*
G75*
G02*
X114921517Y-46166367I75073J-74D01*
G01*
X114846517Y-46346509D02*
G75*
G02*
X114621517Y-46571507I-224997J-1D01*
G01*
X116121517Y-46166366D02*
G75*
G02*
X116196517Y-46241366I0J-75000D01*
G01*
X116421525Y-46572359D02*
G75*
G02*
X116196517Y-46347359I-8J225000D01*
G01*
X120596538Y-41878491D02*
G75*
G02*
X120821509Y-42103462I-29J-225000D01*
G01*
X120821509Y-46346538D02*
G75*
G02*
X120596547Y-46571509I-225000J29D01*
G01*
D11*
%TO.C,D7*%
X159500000Y-36625000D02*
X159500000Y-33965000D01*
X161200000Y-33965000D02*
X159500000Y-33965000D01*
X161200000Y-36625000D02*
X161200000Y-33965000D01*
D10*
%TO.C,CH10*%
X127878491Y-60825000D02*
X127878491Y-60303462D01*
X127878491Y-63825000D02*
X127878491Y-64346538D01*
X128103475Y-60078491D02*
X131606159Y-60078491D01*
X131289353Y-64571509D02*
X128103462Y-64571509D01*
X132143580Y-60222493D02*
X133151773Y-60804574D01*
X133106420Y-65477507D02*
X131751817Y-64695426D01*
X133614237Y-60928491D02*
X139646538Y-60928491D01*
X133671517Y-65621509D02*
X133643841Y-65621509D01*
X133896517Y-65291366D02*
X133896517Y-65396509D01*
X135171517Y-65216366D02*
X133971517Y-65216366D01*
X135246517Y-65397359D02*
X135246517Y-65291366D01*
X139646547Y-65621509D02*
X135471525Y-65622359D01*
X139871509Y-61875000D02*
X139871509Y-61153462D01*
X139871509Y-64875000D02*
X139871509Y-65396538D01*
X127878491Y-60303462D02*
G75*
G02*
X128103475Y-60078491I225009J-38D01*
G01*
X128103462Y-64571509D02*
G75*
G02*
X127878491Y-64346538I38J225009D01*
G01*
X131289353Y-64571509D02*
G75*
G02*
X131751813Y-64695433I47J-924691D01*
G01*
X131606159Y-60078491D02*
G75*
G02*
X132143590Y-60222476I-59J-1075209D01*
G01*
X133614237Y-60928491D02*
G75*
G02*
X133151773Y-60804574I23J925011D01*
G01*
X133643841Y-65621509D02*
G75*
G02*
X133106420Y-65477507I19J1074909D01*
G01*
X133896517Y-65291366D02*
G75*
G02*
X133971517Y-65216367I75073J-74D01*
G01*
X133896517Y-65396509D02*
G75*
G02*
X133671517Y-65621507I-224997J-1D01*
G01*
X135171517Y-65216366D02*
G75*
G02*
X135246517Y-65291366I0J-75000D01*
G01*
X135471525Y-65622359D02*
G75*
G02*
X135246517Y-65397359I-8J225000D01*
G01*
X139646538Y-60928491D02*
G75*
G02*
X139871509Y-61153462I-29J-225000D01*
G01*
X139871509Y-65396538D02*
G75*
G02*
X139646547Y-65621509I-225000J29D01*
G01*
%TO.C,CH11*%
X146928491Y-60825000D02*
X146928491Y-60303462D01*
X146928491Y-63825000D02*
X146928491Y-64346538D01*
X147153475Y-60078491D02*
X150656159Y-60078491D01*
X150339353Y-64571509D02*
X147153462Y-64571509D01*
X151193580Y-60222493D02*
X152201773Y-60804574D01*
X152156420Y-65477507D02*
X150801817Y-64695426D01*
X152664237Y-60928491D02*
X158696538Y-60928491D01*
X152721517Y-65621509D02*
X152693841Y-65621509D01*
X152946517Y-65291366D02*
X152946517Y-65396509D01*
X154221517Y-65216366D02*
X153021517Y-65216366D01*
X154296517Y-65397359D02*
X154296517Y-65291366D01*
X158696547Y-65621509D02*
X154521525Y-65622359D01*
X158921509Y-61875000D02*
X158921509Y-61153462D01*
X158921509Y-64875000D02*
X158921509Y-65396538D01*
X146928491Y-60303462D02*
G75*
G02*
X147153475Y-60078491I225009J-38D01*
G01*
X147153462Y-64571509D02*
G75*
G02*
X146928491Y-64346538I38J225009D01*
G01*
X150339353Y-64571509D02*
G75*
G02*
X150801813Y-64695433I47J-924691D01*
G01*
X150656159Y-60078491D02*
G75*
G02*
X151193590Y-60222476I-59J-1075209D01*
G01*
X152664237Y-60928491D02*
G75*
G02*
X152201773Y-60804574I23J925011D01*
G01*
X152693841Y-65621509D02*
G75*
G02*
X152156420Y-65477507I19J1074909D01*
G01*
X152946517Y-65291366D02*
G75*
G02*
X153021517Y-65216367I75073J-74D01*
G01*
X152946517Y-65396509D02*
G75*
G02*
X152721517Y-65621507I-224997J-1D01*
G01*
X154221517Y-65216366D02*
G75*
G02*
X154296517Y-65291366I0J-75000D01*
G01*
X154521525Y-65622359D02*
G75*
G02*
X154296517Y-65397359I-8J225000D01*
G01*
X158696538Y-60928491D02*
G75*
G02*
X158921509Y-61153462I-29J-225000D01*
G01*
X158921509Y-65396538D02*
G75*
G02*
X158696547Y-65621509I-225000J29D01*
G01*
D11*
%TO.C,C17*%
X12338984Y-70670000D02*
X12861488Y-70670000D01*
X12338984Y-72140000D02*
X12861488Y-72140000D01*
%TO.C,C16*%
X25462400Y-70415000D02*
X25678072Y-70415000D01*
X25462400Y-71135000D02*
X25678072Y-71135000D01*
%TO.C,C1*%
X12338984Y-64650000D02*
X12861488Y-64650000D01*
X12338984Y-66120000D02*
X12861488Y-66120000D01*
%TO.C,D15*%
X159500000Y-74725000D02*
X159500000Y-72065000D01*
X161200000Y-72065000D02*
X159500000Y-72065000D01*
X161200000Y-74725000D02*
X161200000Y-72065000D01*
D10*
%TO.C,CH4*%
X165978491Y-22725000D02*
X165978491Y-22203462D01*
X165978491Y-25725000D02*
X165978491Y-26246538D01*
X166203475Y-21978491D02*
X169706159Y-21978491D01*
X169389353Y-26471509D02*
X166203462Y-26471509D01*
X170243580Y-22122493D02*
X171251773Y-22704574D01*
X171206420Y-27377507D02*
X169851817Y-26595426D01*
X171714237Y-22828491D02*
X177746538Y-22828491D01*
X171771517Y-27521509D02*
X171743841Y-27521509D01*
X171996517Y-27191366D02*
X171996517Y-27296509D01*
X173271517Y-27116366D02*
X172071517Y-27116366D01*
X173346517Y-27297359D02*
X173346517Y-27191366D01*
X177746547Y-27521509D02*
X173571525Y-27522359D01*
X177971509Y-23775000D02*
X177971509Y-23053462D01*
X177971509Y-26775000D02*
X177971509Y-27296538D01*
X165978491Y-22203462D02*
G75*
G02*
X166203475Y-21978491I225009J-38D01*
G01*
X166203462Y-26471509D02*
G75*
G02*
X165978491Y-26246538I38J225009D01*
G01*
X169389353Y-26471509D02*
G75*
G02*
X169851813Y-26595433I47J-924691D01*
G01*
X169706159Y-21978491D02*
G75*
G02*
X170243590Y-22122476I-59J-1075209D01*
G01*
X171714237Y-22828491D02*
G75*
G02*
X171251773Y-22704574I23J925011D01*
G01*
X171743841Y-27521509D02*
G75*
G02*
X171206420Y-27377507I19J1074909D01*
G01*
X171996517Y-27191366D02*
G75*
G02*
X172071517Y-27116367I75073J-74D01*
G01*
X171996517Y-27296509D02*
G75*
G02*
X171771517Y-27521507I-224997J-1D01*
G01*
X173271517Y-27116366D02*
G75*
G02*
X173346517Y-27191366I0J-75000D01*
G01*
X173571525Y-27522359D02*
G75*
G02*
X173346517Y-27297359I-8J225000D01*
G01*
X177746538Y-22828491D02*
G75*
G02*
X177971509Y-23053462I-29J-225000D01*
G01*
X177971509Y-27296538D02*
G75*
G02*
X177746547Y-27521509I-225000J29D01*
G01*
D11*
%TO.C,R2*%
X10756595Y-33905000D02*
X11063877Y-33905000D01*
X10756595Y-34665000D02*
X11063877Y-34665000D01*
%TO.C,C10*%
X28332400Y-68445000D02*
X28548072Y-68445000D01*
X28332400Y-69165000D02*
X28548072Y-69165000D01*
%TO.C,J1*%
X139705000Y2630000D02*
X139705000Y-100000D01*
X139705000Y-2800000D02*
X139705000Y-3700000D01*
X148775000Y-6780000D02*
X139825000Y-6780000D01*
X148895000Y2630000D02*
X139705000Y2630000D01*
X148895000Y2630000D02*
X148895000Y-100000D01*
X148895000Y-2800000D02*
X148895000Y-3700000D01*
%TO.C,R5*%
X10756595Y-39875000D02*
X11063877Y-39875000D01*
X10756595Y-40635000D02*
X11063877Y-40635000D01*
%TO.C,D14*%
X140450000Y-74725000D02*
X140450000Y-72065000D01*
X142150000Y-72065000D02*
X140450000Y-72065000D01*
X142150000Y-74725000D02*
X142150000Y-72065000D01*
%TO.C,C3*%
X31202400Y-66475000D02*
X31418072Y-66475000D01*
X31202400Y-67195000D02*
X31418072Y-67195000D01*
D10*
%TO.C,CH12*%
X165978491Y-60825000D02*
X165978491Y-60303462D01*
X165978491Y-63825000D02*
X165978491Y-64346538D01*
X166203475Y-60078491D02*
X169706159Y-60078491D01*
X169389353Y-64571509D02*
X166203462Y-64571509D01*
X170243580Y-60222493D02*
X171251773Y-60804574D01*
X171206420Y-65477507D02*
X169851817Y-64695426D01*
X171714237Y-60928491D02*
X177746538Y-60928491D01*
X171771517Y-65621509D02*
X171743841Y-65621509D01*
X171996517Y-65291366D02*
X171996517Y-65396509D01*
X173271517Y-65216366D02*
X172071517Y-65216366D01*
X173346517Y-65397359D02*
X173346517Y-65291366D01*
X177746547Y-65621509D02*
X173571525Y-65622359D01*
X177971509Y-61875000D02*
X177971509Y-61153462D01*
X177971509Y-64875000D02*
X177971509Y-65396538D01*
X165978491Y-60303462D02*
G75*
G02*
X166203475Y-60078491I225009J-38D01*
G01*
X166203462Y-64571509D02*
G75*
G02*
X165978491Y-64346538I38J225009D01*
G01*
X169389353Y-64571509D02*
G75*
G02*
X169851813Y-64695433I47J-924691D01*
G01*
X169706159Y-60078491D02*
G75*
G02*
X170243590Y-60222476I-59J-1075209D01*
G01*
X171714237Y-60928491D02*
G75*
G02*
X171251773Y-60804574I23J925011D01*
G01*
X171743841Y-65621509D02*
G75*
G02*
X171206420Y-65477507I19J1074909D01*
G01*
X171996517Y-65291366D02*
G75*
G02*
X172071517Y-65216367I75073J-74D01*
G01*
X171996517Y-65396509D02*
G75*
G02*
X171771517Y-65621507I-224997J-1D01*
G01*
X173271517Y-65216366D02*
G75*
G02*
X173346517Y-65291366I0J-75000D01*
G01*
X173571525Y-65622359D02*
G75*
G02*
X173346517Y-65397359I-8J225000D01*
G01*
X177746538Y-60928491D02*
G75*
G02*
X177971509Y-61153462I-29J-225000D01*
G01*
X177971509Y-65396538D02*
G75*
G02*
X177746547Y-65621509I-225000J29D01*
G01*
D11*
%TO.C,C4*%
X12338984Y-67660000D02*
X12861488Y-67660000D01*
X12338984Y-69130000D02*
X12861488Y-69130000D01*
%TO.C,C13*%
X25462400Y-64505000D02*
X25678072Y-64505000D01*
X25462400Y-65225000D02*
X25678072Y-65225000D01*
%TO.C,C7*%
X31202400Y-72385000D02*
X31418072Y-72385000D01*
X31202400Y-73105000D02*
X31418072Y-73105000D01*
%TO.C,D12*%
X178550000Y-55675000D02*
X178550000Y-53015000D01*
X180250000Y-53015000D02*
X178550000Y-53015000D01*
X180250000Y-55675000D02*
X180250000Y-53015000D01*
%TO.C,J2*%
X6720236Y-67475000D02*
X9380236Y-67475000D01*
X6720236Y-70075000D02*
X6720236Y-67475000D01*
X6720236Y-70075000D02*
X9380236Y-70075000D01*
X8050236Y-64875000D02*
X9380236Y-64875000D01*
X9380236Y-64875000D02*
X9380236Y-66205000D01*
X9380236Y-70075000D02*
X9380236Y-67475000D01*
%TO.C,D13*%
X121400000Y-74725000D02*
X121400000Y-72065000D01*
X123100000Y-72065000D02*
X121400000Y-72065000D01*
X123100000Y-74725000D02*
X123100000Y-72065000D01*
%TO.C,R3*%
X10756595Y-35895000D02*
X11063877Y-35895000D01*
X10756595Y-36655000D02*
X11063877Y-36655000D01*
%TO.C,D16*%
X178550000Y-74725000D02*
X178550000Y-72065000D01*
X180250000Y-72065000D02*
X178550000Y-72065000D01*
X180250000Y-74725000D02*
X180250000Y-72065000D01*
%TO.C,C8*%
X28332400Y-64505000D02*
X28548072Y-64505000D01*
X28332400Y-65225000D02*
X28548072Y-65225000D01*
%TO.C,U2*%
X45045236Y-64540000D02*
X47770236Y-64540000D01*
X45045236Y-64800000D02*
X45045236Y-64540000D01*
X45045236Y-69730000D02*
X45045236Y-69990000D01*
X45045236Y-69990000D02*
X47770236Y-69990000D01*
X50495236Y-64540000D02*
X47770236Y-64540000D01*
X50495236Y-64800000D02*
X50495236Y-64540000D01*
X50495236Y-69730000D02*
X50495236Y-69990000D01*
X50495236Y-69990000D02*
X47770236Y-69990000D01*
X51277736Y-64800000D02*
X51037736Y-64470000D01*
X51517736Y-64470000D01*
X51277736Y-64800000D01*
G36*
X51277736Y-64800000D02*
G01*
X51037736Y-64470000D01*
X51517736Y-64470000D01*
X51277736Y-64800000D01*
G37*
%TO.C,C5*%
X31202400Y-68445000D02*
X31418072Y-68445000D01*
X31202400Y-69165000D02*
X31418072Y-69165000D01*
%TO.C,R7*%
X10756595Y-43855000D02*
X11063877Y-43855000D01*
X10756595Y-44615000D02*
X11063877Y-44615000D01*
%TO.C,R4*%
X10756595Y-37885000D02*
X11063877Y-37885000D01*
X10756595Y-38645000D02*
X11063877Y-38645000D01*
%TO.C,R6*%
X10756595Y-41865000D02*
X11063877Y-41865000D01*
X10756595Y-42625000D02*
X11063877Y-42625000D01*
%TO.C,R1*%
X10756595Y-31915000D02*
X11063877Y-31915000D01*
X10756595Y-32675000D02*
X11063877Y-32675000D01*
%TO.C,C11*%
X28332400Y-70415000D02*
X28548072Y-70415000D01*
X28332400Y-71135000D02*
X28548072Y-71135000D01*
%TO.C,C9*%
X28332400Y-66475000D02*
X28548072Y-66475000D01*
X28332400Y-67195000D02*
X28548072Y-67195000D01*
%TO.C,D6*%
X140450000Y-36625000D02*
X140450000Y-33965000D01*
X142150000Y-33965000D02*
X140450000Y-33965000D01*
X142150000Y-36625000D02*
X142150000Y-33965000D01*
%TO.C,D11*%
X159500000Y-55675000D02*
X159500000Y-53015000D01*
X161200000Y-53015000D02*
X159500000Y-53015000D01*
X161200000Y-55675000D02*
X161200000Y-53015000D01*
%TO.C,C2*%
X31202400Y-64505000D02*
X31418072Y-64505000D01*
X31202400Y-65225000D02*
X31418072Y-65225000D01*
%TO.C,C12*%
X28332400Y-72385000D02*
X28548072Y-72385000D01*
X28332400Y-73105000D02*
X28548072Y-73105000D01*
D10*
%TO.C,CH15*%
X146928491Y-79875000D02*
X146928491Y-79353462D01*
X146928491Y-82875000D02*
X146928491Y-83396538D01*
X147153475Y-79128491D02*
X150656159Y-79128491D01*
X150339353Y-83621509D02*
X147153462Y-83621509D01*
X151193580Y-79272493D02*
X152201773Y-79854574D01*
X152156420Y-84527507D02*
X150801817Y-83745426D01*
X152664237Y-79978491D02*
X158696538Y-79978491D01*
X152721517Y-84671509D02*
X152693841Y-84671509D01*
X152946517Y-84341366D02*
X152946517Y-84446509D01*
X154221517Y-84266366D02*
X153021517Y-84266366D01*
X154296517Y-84447359D02*
X154296517Y-84341366D01*
X158696547Y-84671509D02*
X154521525Y-84672359D01*
X158921509Y-80925000D02*
X158921509Y-80203462D01*
X158921509Y-83925000D02*
X158921509Y-84446538D01*
X146928491Y-79353462D02*
G75*
G02*
X147153475Y-79128491I225009J-38D01*
G01*
X147153462Y-83621509D02*
G75*
G02*
X146928491Y-83396538I38J225009D01*
G01*
X150339353Y-83621509D02*
G75*
G02*
X150801813Y-83745433I47J-924691D01*
G01*
X150656159Y-79128491D02*
G75*
G02*
X151193590Y-79272476I-59J-1075209D01*
G01*
X152664237Y-79978491D02*
G75*
G02*
X152201773Y-79854574I23J925011D01*
G01*
X152693841Y-84671509D02*
G75*
G02*
X152156420Y-84527507I19J1074909D01*
G01*
X152946517Y-84341366D02*
G75*
G02*
X153021517Y-84266367I75073J-74D01*
G01*
X152946517Y-84446509D02*
G75*
G02*
X152721517Y-84671507I-224997J-1D01*
G01*
X154221517Y-84266366D02*
G75*
G02*
X154296517Y-84341366I0J-75000D01*
G01*
X154521525Y-84672359D02*
G75*
G02*
X154296517Y-84447359I-8J225000D01*
G01*
X158696538Y-79978491D02*
G75*
G02*
X158921509Y-80203462I-29J-225000D01*
G01*
X158921509Y-84446538D02*
G75*
G02*
X158696547Y-84671509I-225000J29D01*
G01*
%TO.C,CH8*%
X165978491Y-41775000D02*
X165978491Y-41253462D01*
X165978491Y-44775000D02*
X165978491Y-45296538D01*
X166203475Y-41028491D02*
X169706159Y-41028491D01*
X169389353Y-45521509D02*
X166203462Y-45521509D01*
X170243580Y-41172493D02*
X171251773Y-41754574D01*
X171206420Y-46427507D02*
X169851817Y-45645426D01*
X171714237Y-41878491D02*
X177746538Y-41878491D01*
X171771517Y-46571509D02*
X171743841Y-46571509D01*
X171996517Y-46241366D02*
X171996517Y-46346509D01*
X173271517Y-46166366D02*
X172071517Y-46166366D01*
X173346517Y-46347359D02*
X173346517Y-46241366D01*
X177746547Y-46571509D02*
X173571525Y-46572359D01*
X177971509Y-42825000D02*
X177971509Y-42103462D01*
X177971509Y-45825000D02*
X177971509Y-46346538D01*
X165978491Y-41253462D02*
G75*
G02*
X166203475Y-41028491I225009J-38D01*
G01*
X166203462Y-45521509D02*
G75*
G02*
X165978491Y-45296538I38J225009D01*
G01*
X169389353Y-45521509D02*
G75*
G02*
X169851813Y-45645433I47J-924691D01*
G01*
X169706159Y-41028491D02*
G75*
G02*
X170243590Y-41172476I-59J-1075209D01*
G01*
X171714237Y-41878491D02*
G75*
G02*
X171251773Y-41754574I23J925011D01*
G01*
X171743841Y-46571509D02*
G75*
G02*
X171206420Y-46427507I19J1074909D01*
G01*
X171996517Y-46241366D02*
G75*
G02*
X172071517Y-46166367I75073J-74D01*
G01*
X171996517Y-46346509D02*
G75*
G02*
X171771517Y-46571507I-224997J-1D01*
G01*
X173271517Y-46166366D02*
G75*
G02*
X173346517Y-46241366I0J-75000D01*
G01*
X173571525Y-46572359D02*
G75*
G02*
X173346517Y-46347359I-8J225000D01*
G01*
X177746538Y-41878491D02*
G75*
G02*
X177971509Y-42103462I-29J-225000D01*
G01*
X177971509Y-46346538D02*
G75*
G02*
X177746547Y-46571509I-225000J29D01*
G01*
D11*
%TO.C,U3*%
X15870236Y-64925000D02*
X16520236Y-64925000D01*
X15870236Y-65575000D02*
X15870236Y-64925000D01*
X15870236Y-71495000D02*
X15870236Y-72145000D01*
X15870236Y-72145000D02*
X16520236Y-72145000D01*
X22790236Y-64925000D02*
X22440236Y-64925000D01*
X23090236Y-65165000D02*
X23090236Y-65575000D01*
X23090236Y-71495000D02*
X23090236Y-72145000D01*
X23090236Y-72145000D02*
X22440236Y-72145000D01*
X23090236Y-64925000D02*
X22850236Y-64595000D01*
X23330236Y-64595000D01*
X23090236Y-64925000D01*
G36*
X23090236Y-64925000D02*
G01*
X22850236Y-64595000D01*
X23330236Y-64595000D01*
X23090236Y-64925000D01*
G37*
%TO.C,C14*%
X25462400Y-66475000D02*
X25678072Y-66475000D01*
X25462400Y-67195000D02*
X25678072Y-67195000D01*
D10*
%TO.C,CH16*%
X165978491Y-79875000D02*
X165978491Y-79353462D01*
X165978491Y-82875000D02*
X165978491Y-83396538D01*
X166203475Y-79128491D02*
X169706159Y-79128491D01*
X169389353Y-83621509D02*
X166203462Y-83621509D01*
X170243580Y-79272493D02*
X171251773Y-79854574D01*
X171206420Y-84527507D02*
X169851817Y-83745426D01*
X171714237Y-79978491D02*
X177746538Y-79978491D01*
X171771517Y-84671509D02*
X171743841Y-84671509D01*
X171996517Y-84341366D02*
X171996517Y-84446509D01*
X173271517Y-84266366D02*
X172071517Y-84266366D01*
X173346517Y-84447359D02*
X173346517Y-84341366D01*
X177746547Y-84671509D02*
X173571525Y-84672359D01*
X177971509Y-80925000D02*
X177971509Y-80203462D01*
X177971509Y-83925000D02*
X177971509Y-84446538D01*
X165978491Y-79353462D02*
G75*
G02*
X166203475Y-79128491I225009J-38D01*
G01*
X166203462Y-83621509D02*
G75*
G02*
X165978491Y-83396538I38J225009D01*
G01*
X169389353Y-83621509D02*
G75*
G02*
X169851813Y-83745433I47J-924691D01*
G01*
X169706159Y-79128491D02*
G75*
G02*
X170243590Y-79272476I-59J-1075209D01*
G01*
X171714237Y-79978491D02*
G75*
G02*
X171251773Y-79854574I23J925011D01*
G01*
X171743841Y-84671509D02*
G75*
G02*
X171206420Y-84527507I19J1074909D01*
G01*
X171996517Y-84341366D02*
G75*
G02*
X172071517Y-84266367I75073J-74D01*
G01*
X171996517Y-84446509D02*
G75*
G02*
X171771517Y-84671507I-224997J-1D01*
G01*
X173271517Y-84266366D02*
G75*
G02*
X173346517Y-84341366I0J-75000D01*
G01*
X173571525Y-84672359D02*
G75*
G02*
X173346517Y-84447359I-8J225000D01*
G01*
X177746538Y-79978491D02*
G75*
G02*
X177971509Y-80203462I-29J-225000D01*
G01*
X177971509Y-84446538D02*
G75*
G02*
X177746547Y-84671509I-225000J29D01*
G01*
%TO.C,CH2*%
X127878491Y-22725000D02*
X127878491Y-22203462D01*
X127878491Y-25725000D02*
X127878491Y-26246538D01*
X128103475Y-21978491D02*
X131606159Y-21978491D01*
X131289353Y-26471509D02*
X128103462Y-26471509D01*
X132143580Y-22122493D02*
X133151773Y-22704574D01*
X133106420Y-27377507D02*
X131751817Y-26595426D01*
X133614237Y-22828491D02*
X139646538Y-22828491D01*
X133671517Y-27521509D02*
X133643841Y-27521509D01*
X133896517Y-27191366D02*
X133896517Y-27296509D01*
X135171517Y-27116366D02*
X133971517Y-27116366D01*
X135246517Y-27297359D02*
X135246517Y-27191366D01*
X139646547Y-27521509D02*
X135471525Y-27522359D01*
X139871509Y-23775000D02*
X139871509Y-23053462D01*
X139871509Y-26775000D02*
X139871509Y-27296538D01*
X127878491Y-22203462D02*
G75*
G02*
X128103475Y-21978491I225009J-38D01*
G01*
X128103462Y-26471509D02*
G75*
G02*
X127878491Y-26246538I38J225009D01*
G01*
X131289353Y-26471509D02*
G75*
G02*
X131751813Y-26595433I47J-924691D01*
G01*
X131606159Y-21978491D02*
G75*
G02*
X132143590Y-22122476I-59J-1075209D01*
G01*
X133614237Y-22828491D02*
G75*
G02*
X133151773Y-22704574I23J925011D01*
G01*
X133643841Y-27521509D02*
G75*
G02*
X133106420Y-27377507I19J1074909D01*
G01*
X133896517Y-27191366D02*
G75*
G02*
X133971517Y-27116367I75073J-74D01*
G01*
X133896517Y-27296509D02*
G75*
G02*
X133671517Y-27521507I-224997J-1D01*
G01*
X135171517Y-27116366D02*
G75*
G02*
X135246517Y-27191366I0J-75000D01*
G01*
X135471525Y-27522359D02*
G75*
G02*
X135246517Y-27297359I-8J225000D01*
G01*
X139646538Y-22828491D02*
G75*
G02*
X139871509Y-23053462I-29J-225000D01*
G01*
X139871509Y-27296538D02*
G75*
G02*
X139646547Y-27521509I-225000J29D01*
G01*
%TO.C,CH14*%
X127878491Y-79875000D02*
X127878491Y-79353462D01*
X127878491Y-82875000D02*
X127878491Y-83396538D01*
X128103475Y-79128491D02*
X131606159Y-79128491D01*
X131289353Y-83621509D02*
X128103462Y-83621509D01*
X132143580Y-79272493D02*
X133151773Y-79854574D01*
X133106420Y-84527507D02*
X131751817Y-83745426D01*
X133614237Y-79978491D02*
X139646538Y-79978491D01*
X133671517Y-84671509D02*
X133643841Y-84671509D01*
X133896517Y-84341366D02*
X133896517Y-84446509D01*
X135171517Y-84266366D02*
X133971517Y-84266366D01*
X135246517Y-84447359D02*
X135246517Y-84341366D01*
X139646547Y-84671509D02*
X135471525Y-84672359D01*
X139871509Y-80925000D02*
X139871509Y-80203462D01*
X139871509Y-83925000D02*
X139871509Y-84446538D01*
X127878491Y-79353462D02*
G75*
G02*
X128103475Y-79128491I225009J-38D01*
G01*
X128103462Y-83621509D02*
G75*
G02*
X127878491Y-83396538I38J225009D01*
G01*
X131289353Y-83621509D02*
G75*
G02*
X131751813Y-83745433I47J-924691D01*
G01*
X131606159Y-79128491D02*
G75*
G02*
X132143590Y-79272476I-59J-1075209D01*
G01*
X133614237Y-79978491D02*
G75*
G02*
X133151773Y-79854574I23J925011D01*
G01*
X133643841Y-84671509D02*
G75*
G02*
X133106420Y-84527507I19J1074909D01*
G01*
X133896517Y-84341366D02*
G75*
G02*
X133971517Y-84266367I75073J-74D01*
G01*
X133896517Y-84446509D02*
G75*
G02*
X133671517Y-84671507I-224997J-1D01*
G01*
X135171517Y-84266366D02*
G75*
G02*
X135246517Y-84341366I0J-75000D01*
G01*
X135471525Y-84672359D02*
G75*
G02*
X135246517Y-84447359I-8J225000D01*
G01*
X139646538Y-79978491D02*
G75*
G02*
X139871509Y-80203462I-29J-225000D01*
G01*
X139871509Y-84446538D02*
G75*
G02*
X139646547Y-84671509I-225000J29D01*
G01*
D11*
%TO.C,D5*%
X121400000Y-36625000D02*
X121400000Y-33965000D01*
X123100000Y-33965000D02*
X121400000Y-33965000D01*
X123100000Y-36625000D02*
X123100000Y-33965000D01*
%TO.C,C15*%
X25462400Y-68445000D02*
X25678072Y-68445000D01*
X25462400Y-69165000D02*
X25678072Y-69165000D01*
%TO.C,D9*%
X121400000Y-55675000D02*
X121400000Y-53015000D01*
X123100000Y-53015000D02*
X121400000Y-53015000D01*
X123100000Y-55675000D02*
X123100000Y-53015000D01*
D10*
%TO.C,CH13*%
X108828491Y-79875000D02*
X108828491Y-79353462D01*
X108828491Y-82875000D02*
X108828491Y-83396538D01*
X109053475Y-79128491D02*
X112556159Y-79128491D01*
X112239353Y-83621509D02*
X109053462Y-83621509D01*
X113093580Y-79272493D02*
X114101773Y-79854574D01*
X114056420Y-84527507D02*
X112701817Y-83745426D01*
X114564237Y-79978491D02*
X120596538Y-79978491D01*
X114621517Y-84671509D02*
X114593841Y-84671509D01*
X114846517Y-84341366D02*
X114846517Y-84446509D01*
X116121517Y-84266366D02*
X114921517Y-84266366D01*
X116196517Y-84447359D02*
X116196517Y-84341366D01*
X120596547Y-84671509D02*
X116421525Y-84672359D01*
X120821509Y-80925000D02*
X120821509Y-80203462D01*
X120821509Y-83925000D02*
X120821509Y-84446538D01*
X108828491Y-79353462D02*
G75*
G02*
X109053475Y-79128491I225009J-38D01*
G01*
X109053462Y-83621509D02*
G75*
G02*
X108828491Y-83396538I38J225009D01*
G01*
X112239353Y-83621509D02*
G75*
G02*
X112701813Y-83745433I47J-924691D01*
G01*
X112556159Y-79128491D02*
G75*
G02*
X113093590Y-79272476I-59J-1075209D01*
G01*
X114564237Y-79978491D02*
G75*
G02*
X114101773Y-79854574I23J925011D01*
G01*
X114593841Y-84671509D02*
G75*
G02*
X114056420Y-84527507I19J1074909D01*
G01*
X114846517Y-84341366D02*
G75*
G02*
X114921517Y-84266367I75073J-74D01*
G01*
X114846517Y-84446509D02*
G75*
G02*
X114621517Y-84671507I-224997J-1D01*
G01*
X116121517Y-84266366D02*
G75*
G02*
X116196517Y-84341366I0J-75000D01*
G01*
X116421525Y-84672359D02*
G75*
G02*
X116196517Y-84447359I-8J225000D01*
G01*
X120596538Y-79978491D02*
G75*
G02*
X120821509Y-80203462I-29J-225000D01*
G01*
X120821509Y-84446538D02*
G75*
G02*
X120596547Y-84671509I-225000J29D01*
G01*
D11*
%TO.C,D8*%
X178550000Y-36625000D02*
X178550000Y-33965000D01*
X180250000Y-33965000D02*
X178550000Y-33965000D01*
X180250000Y-36625000D02*
X180250000Y-33965000D01*
%TO.C,D3*%
X159500000Y-17575000D02*
X159500000Y-14915000D01*
X161200000Y-14915000D02*
X159500000Y-14915000D01*
X161200000Y-17575000D02*
X161200000Y-14915000D01*
%TO.C,D1*%
X121400000Y-17575000D02*
X121400000Y-14915000D01*
X123100000Y-14915000D02*
X121400000Y-14915000D01*
X123100000Y-17575000D02*
X123100000Y-14915000D01*
D10*
%TO.C,CH3*%
X146928491Y-22725000D02*
X146928491Y-22203462D01*
X146928491Y-25725000D02*
X146928491Y-26246538D01*
X147153475Y-21978491D02*
X150656159Y-21978491D01*
X150339353Y-26471509D02*
X147153462Y-26471509D01*
X151193580Y-22122493D02*
X152201773Y-22704574D01*
X152156420Y-27377507D02*
X150801817Y-26595426D01*
X152664237Y-22828491D02*
X158696538Y-22828491D01*
X152721517Y-27521509D02*
X152693841Y-27521509D01*
X152946517Y-27191366D02*
X152946517Y-27296509D01*
X154221517Y-27116366D02*
X153021517Y-27116366D01*
X154296517Y-27297359D02*
X154296517Y-27191366D01*
X158696547Y-27521509D02*
X154521525Y-27522359D01*
X158921509Y-23775000D02*
X158921509Y-23053462D01*
X158921509Y-26775000D02*
X158921509Y-27296538D01*
X146928491Y-22203462D02*
G75*
G02*
X147153475Y-21978491I225009J-38D01*
G01*
X147153462Y-26471509D02*
G75*
G02*
X146928491Y-26246538I38J225009D01*
G01*
X150339353Y-26471509D02*
G75*
G02*
X150801813Y-26595433I47J-924691D01*
G01*
X150656159Y-21978491D02*
G75*
G02*
X151193590Y-22122476I-59J-1075209D01*
G01*
X152664237Y-22828491D02*
G75*
G02*
X152201773Y-22704574I23J925011D01*
G01*
X152693841Y-27521509D02*
G75*
G02*
X152156420Y-27377507I19J1074909D01*
G01*
X152946517Y-27191366D02*
G75*
G02*
X153021517Y-27116367I75073J-74D01*
G01*
X152946517Y-27296509D02*
G75*
G02*
X152721517Y-27521507I-224997J-1D01*
G01*
X154221517Y-27116366D02*
G75*
G02*
X154296517Y-27191366I0J-75000D01*
G01*
X154521525Y-27522359D02*
G75*
G02*
X154296517Y-27297359I-8J225000D01*
G01*
X158696538Y-22828491D02*
G75*
G02*
X158921509Y-23053462I-29J-225000D01*
G01*
X158921509Y-27296538D02*
G75*
G02*
X158696547Y-27521509I-225000J29D01*
G01*
D11*
%TO.C,D4*%
X178550000Y-17575000D02*
X178550000Y-14915000D01*
X180250000Y-14915000D02*
X178550000Y-14915000D01*
X180250000Y-17575000D02*
X180250000Y-14915000D01*
D10*
%TO.C,CH1*%
X108828491Y-22725000D02*
X108828491Y-22203462D01*
X108828491Y-25725000D02*
X108828491Y-26246538D01*
X109053475Y-21978491D02*
X112556159Y-21978491D01*
X112239353Y-26471509D02*
X109053462Y-26471509D01*
X113093580Y-22122493D02*
X114101773Y-22704574D01*
X114056420Y-27377507D02*
X112701817Y-26595426D01*
X114564237Y-22828491D02*
X120596538Y-22828491D01*
X114621517Y-27521509D02*
X114593841Y-27521509D01*
X114846517Y-27191366D02*
X114846517Y-27296509D01*
X116121517Y-27116366D02*
X114921517Y-27116366D01*
X116196517Y-27297359D02*
X116196517Y-27191366D01*
X120596547Y-27521509D02*
X116421525Y-27522359D01*
X120821509Y-23775000D02*
X120821509Y-23053462D01*
X120821509Y-26775000D02*
X120821509Y-27296538D01*
X108828491Y-22203462D02*
G75*
G02*
X109053475Y-21978491I225009J-38D01*
G01*
X109053462Y-26471509D02*
G75*
G02*
X108828491Y-26246538I38J225009D01*
G01*
X112239353Y-26471509D02*
G75*
G02*
X112701813Y-26595433I47J-924691D01*
G01*
X112556159Y-21978491D02*
G75*
G02*
X113093590Y-22122476I-59J-1075209D01*
G01*
X114564237Y-22828491D02*
G75*
G02*
X114101773Y-22704574I23J925011D01*
G01*
X114593841Y-27521509D02*
G75*
G02*
X114056420Y-27377507I19J1074909D01*
G01*
X114846517Y-27191366D02*
G75*
G02*
X114921517Y-27116367I75073J-74D01*
G01*
X114846517Y-27296509D02*
G75*
G02*
X114621517Y-27521507I-224997J-1D01*
G01*
X116121517Y-27116366D02*
G75*
G02*
X116196517Y-27191366I0J-75000D01*
G01*
X116421525Y-27522359D02*
G75*
G02*
X116196517Y-27297359I-8J225000D01*
G01*
X120596538Y-22828491D02*
G75*
G02*
X120821509Y-23053462I-29J-225000D01*
G01*
X120821509Y-27296538D02*
G75*
G02*
X120596547Y-27521509I-225000J29D01*
G01*
%TD*%
M02*
